<svg xmlns="http://www.w3.org/2000/svg" viewBox="0 0 189.88 230.01"><path d="M189.88,223.89c0,3.38-42.51,6.12-94.94,6.12S0,227.27,0,223.89c0-1.12,4.69-2.17,12.87-3.07H177C185.2,221.73,189.88,222.77,189.88,223.89Z" fill="#102770" opacity="0.3" style="isolation:isolate"/><path d="M136.13,157l-58.27,6.76a11.26,11.26,0,0,1-12.47-9.88l-5-43.13-.92-8-.61-5.24A11.26,11.26,0,0,1,68.74,85l12.73-1.47,41.05-4.76,4.48-.52a11.24,11.24,0,0,1,12.48,9.88l.69,6,2,17.49L146,144.51a11.26,11.26,0,0,1-9.87,12.5Z" fill="#fff"/><path d="M76.56,165a12.5,12.5,0,0,1-12.39-11L57.63,97.67a12.5,12.5,0,0,1,11-13.83l58.26-6.76A12.5,12.5,0,0,1,140.7,88l6.53,56.33a12.49,12.49,0,0,1-11,13.83L78,165A11.53,11.53,0,0,1,76.56,165Zm51.76-85.6a9.34,9.34,0,0,0-1.18.07l-58.26,6.8a10,10,0,0,0-8.81,11.11l6.53,56.33a10,10,0,0,0,11.12,8.8L136,155.77a10,10,0,0,0,8.81-11.12l-6.53-56.32a10,10,0,0,0-9.94-8.88Z" fill="#371a45"/><path d="M150.75,111.71l-8.55-.09-81.82-.89H55.16a34.24,34.24,0,0,1,4.3-7.91,56.77,56.77,0,0,1,9.66-10.64,71.75,71.75,0,0,1,12.35-8.55c2-1.11,4.17-2.19,6.48-3.22,13-5.82,24.43-6.34,34.57-1.54a36,36,0,0,1,5.62,3.31,55.51,55.51,0,0,1,12,12A108.47,108.47,0,0,1,150.75,111.71Z" fill="#fff"/><path d="M150.75,112.94l-95.59-1a1.26,1.26,0,0,1-1-.52,1.23,1.23,0,0,1-.17-1.1c.26-.77,6.53-19,33.46-31,13.8-6.16,25.71-6.53,36.4-1.13,10.5,5.29,19.66,16.11,28,33.06a1.22,1.22,0,0,1-.06,1.2A1.27,1.27,0,0,1,150.75,112.94ZM57,109.47l91.76,1c-7.85-15.42-16.37-25.3-26-30.16-10-5-21.22-4.66-34.3,1.18C67.11,91,59.16,104.82,57,109.47Z" fill="#371a45"/><path d="M123.07,102.26s-10.54,0-13,4.28c-2.27,3.87.67,5.34.67,5.34l10.24.4Z" fill="#fff"/><path d="M123.07,102.26l-.52,2.47-1.62,7.55-10.24-.4a3.11,3.11,0,0,1-1.31-1.49c-.35-.85-.39-2.11.64-3.85C112.53,102.26,123.07,102.26,123.07,102.26Z" fill="#fff"/><path d="M122.55,104.73l-1.62,7.55-10.24-.4a3.11,3.11,0,0,1-1.31-1.49A6.13,6.13,0,0,1,110,109C112.19,105.29,120.38,104.79,122.55,104.73Z" fill="#371a45" opacity="0.35" style="isolation:isolate"/><path d="M120.93,113.51h-.05l-10.24-.41a1.24,1.24,0,0,1-.5-.13,4.2,4.2,0,0,1-2-2.49,5.67,5.67,0,0,1,.85-4.56c2.79-4.75,13-4.89,14.11-4.89a1.24,1.24,0,0,1,1,.46,1.19,1.19,0,0,1,.24,1l-2.14,10A1.23,1.23,0,0,1,120.93,113.51Zm-9.86-2.85L120,111l1.59-7.47c-3.34.2-9,1.06-10.46,3.62a3.49,3.49,0,0,0-.62,2.62A1.76,1.76,0,0,0,111.07,110.66Z" fill="#371a45"/><path d="M67.46,102.26s10.54,0,13.05,4.28c2.27,3.87-.67,5.34-.67,5.34l-10.24.4Z" fill="#fff"/><path d="M81.15,110.39a3.11,3.11,0,0,1-1.31,1.49l-10.24.4L68,104.71l-.52-2.45s10.54,0,13,4.28C81.53,108.28,81.5,109.54,81.15,110.39Z" fill="#fff"/><path d="M81.15,110.39a3.11,3.11,0,0,1-1.31,1.49l-10.24.4L68,104.71c2.16.07,10.35.56,12.53,4.27A6.36,6.36,0,0,1,81.15,110.39Z" fill="#371a45" opacity="0.35" style="isolation:isolate"/><path d="M69.6,113.51a1.24,1.24,0,0,1-1.2-1l-2.14-10a1.22,1.22,0,0,1,1.24-1.46c1.15,0,11.32.14,14.11,4.89a5.7,5.7,0,0,1,.85,4.56,4.2,4.2,0,0,1-2,2.49,1.48,1.48,0,0,1-.5.13l-10.25.41Zm-.6-10L70.6,111l8.88-.35a1.74,1.74,0,0,0,.62-.91,3.56,3.56,0,0,0-.63-2.59C78,104.6,72.32,103.74,69,103.54Z" fill="#371a45"/><path d="M164,144.43l1.9,12.38a1.48,1.48,0,0,1-.49,1.34,1.51,1.51,0,0,1-1.4.3l-5.55-1.68h-127l-5.52,1.68a1.48,1.48,0,0,1-1.4-.31,1.45,1.45,0,0,1-.49-1.34l1.89-12.37" fill="#ef962b"/><path d="M164,144.43l1.9,12.38a1.48,1.48,0,0,1-.49,1.34,1.51,1.51,0,0,1-1.4.3l-5.55-1.68h-127l-5.52,1.68a1.48,1.48,0,0,1-1.4-.31,1.45,1.45,0,0,1-.49-1.34l1.89-12.37" fill="#371a45" opacity="0.35" style="isolation:isolate"/><path d="M164.43,159.74a2.66,2.66,0,0,1-.79-.12L158.27,158H31.64l-5.34,1.62a2.72,2.72,0,0,1-3.47-3l1.9-12.38a1.23,1.23,0,1,1,2.43.37L25.26,157a.29.29,0,0,0,.08.23.28.28,0,0,0,.25,0l5.52-1.67a.83.83,0,0,1,.35,0h127a.83.83,0,0,1,.35,0l5.55,1.67a.26.26,0,0,0,.24,0,.26.26,0,0,0,.09-.23l-1.9-12.38a1.22,1.22,0,1,1,2.42-.37l1.9,12.38a2.71,2.71,0,0,1-2.67,3.12Z" fill="#371a45"/><path d="M160.57,123.15l-2.29,36.37L154.72,216a5.14,5.14,0,0,1-5.13,4.81H40.32A5.14,5.14,0,0,1,35.19,216l-3.55-56.45-2.3-36.37Z" fill="#371a45"/><path d="M56.38,175.42a5.24,5.24,0,0,1,.1-1.25,7.36,7.36,0,0,1,.3-1.23l.51-1.47c.22-.65.38-1.12.48-1.43q.75-2.58,2-5.76L60.7,162a29.51,29.51,0,0,1,1.3-3.26,19.15,19.15,0,0,0,.85-1.91c.09-.33.63-.5,1.61-.49a11.69,11.69,0,0,1,2.43.29,3.39,3.39,0,0,1,1.48.5l7.46,16a1.33,1.33,0,0,1,.22.65,1.12,1.12,0,0,1-.26.8,1,1,0,0,1-.69.37.84.84,0,0,1-.83-.51s-.28-.23-.84-.65l-3.91-5.46h-.16c-.44,0-1.32.08-2.63.18s-2.26.17-2.8.19c-.91,0-1.39,0-1.44-.13a20.48,20.48,0,0,1-3.84,6.9c-.18.32-.63.5-1.34.54a1.57,1.57,0,0,1-.88-.14A2.81,2.81,0,0,1,56.38,175.42Zm6.78-9.12h1.09c2.94-.07,4.38-.21,4.36-.4a10.83,10.83,0,0,0-.51-1.15c-.36-.78-.77-1.62-1.23-2.53a10.41,10.41,0,0,0-1.06-1.79c-.25.42-.46.77-.62,1.06a8.54,8.54,0,0,0-.51,1l-.4.9c-.09.22-.27.65-.52,1.28S63.33,165.86,63.16,166.3Zm13.74-.11v-.53c0-.78-.07-1.61-.07-2.47s0-1.84.08-2.93.07-1.87.08-2.36v-.67l.6-.3a2.57,2.57,0,0,1,2.29.16c.41.22.78.45,1.11.67a2,2,0,0,0,.79.36A10.92,10.92,0,0,1,87,159.39,5.49,5.49,0,0,1,89.67,163a12.68,12.68,0,0,1,.37,2.38,8.32,8.32,0,0,1-.29,2.93,6.48,6.48,0,0,1-1.18,2.25,7.56,7.56,0,0,1-2,1.69,15.46,15.46,0,0,1-2.67,1.25,31.65,31.65,0,0,1-3.29,1c-1.65,0-2.65-1.2-3-3.45Zm4.1,5.22a24.48,24.48,0,0,0,3.44-1.71,4,4,0,0,0,2.33-4.09A6,6,0,0,0,86,163.1a7,7,0,0,0-1.81-2.17,4.91,4.91,0,0,0-2.43-.62h-.66l0,.61a25.61,25.61,0,0,0-.17,2.63v5.8Zm10.28-6.06a7.87,7.87,0,0,1,.75-4,5.3,5.3,0,0,1,2.9-2.43,10.63,10.63,0,0,1,4.5-1,5.05,5.05,0,0,1,4.26,1.68,7.3,7.3,0,0,1,2,2.57,8.84,8.84,0,0,1,.85,3.19A8.57,8.57,0,0,1,106,169a6.52,6.52,0,0,1-5.87,4.2A8,8,0,0,1,94,171.05,8.29,8.29,0,0,1,91.28,165.35Zm2.84,0a7.37,7.37,0,0,0,1.2,3.66,6.15,6.15,0,0,0,3.18,2.08,3.49,3.49,0,0,0,1.2.17,2.43,2.43,0,0,0,1.12-.33,5.09,5.09,0,0,0,1.92-2.49,8,8,0,0,0,.57-3.58,6.57,6.57,0,0,0-1.34-3.69,3.69,3.69,0,0,0-3-1.33,4.63,4.63,0,0,0-2.38.65,3,3,0,0,0-1.45,1.7Zm13.1-8.56.27-.13a2.49,2.49,0,0,1,1-.21,1.88,1.88,0,0,1,.77.17,4.48,4.48,0,0,1,.58.29l.65.46.31.24.63-.06h.4c4.55,0,6.83,1.16,7,3.4a4.57,4.57,0,0,1,0,.74c0,.43-.09.86-.17,1.29a9.08,9.08,0,0,1-.29,1.11,3.16,3.16,0,0,1-.51,1,2.78,2.78,0,0,1-.82.62,2.89,2.89,0,0,1-1.2.28H113.3a4.85,4.85,0,0,0-1.31.16.48.48,0,0,0-.4.5l.21,3.52-.39,1.68c0,.1-.15.22-.53.36a4.09,4.09,0,0,1-1.09.24c-.38,0-.6,0-.66-.2-.51-.5-.87-2.23-1.06-5.19,0-.68-.09-1.71-.15-3.08s-.11-2.35-.15-2.92a20,20,0,0,0-.28-2.57Zm3.68,2.78.4,3.3.12,1.52h.34c.28,0,.92-.08,1.9-.22a8.44,8.44,0,0,0,1.65-.32,1.52,1.52,0,0,0,.51-1.38v-.18a.54.54,0,0,0,0-.18,4.62,4.62,0,0,0-.37-1.56,1.63,1.63,0,0,0-.77-.94,6.14,6.14,0,0,0-2.13-.26,4.54,4.54,0,0,0-.82.07Zm9.24-.46.12-1.32h1.1l6.52-.41a8.57,8.57,0,0,1,1.13-.07c.93,0,1.4.28,1.44.81a1.6,1.6,0,0,1-.07.57.85.85,0,0,1-.3.4c-.14.09-.29.17-.44.25a3.1,3.1,0,0,1-.6.15l-.64.07H127v1.65a13.42,13.42,0,0,0,0,3.23c0,.49.09,1.21.17,2.16s.13,1.62.16,2a6.51,6.51,0,0,1-.07,2.2.74.74,0,0,1-.71.53,1.72,1.72,0,0,1-1-.36,1.38,1.38,0,0,1-.61-.9,16.59,16.59,0,0,1-.7-4.31,9.75,9.75,0,0,0-.08-1.36,10.34,10.34,0,0,1-.07-1.31,3.93,3.93,0,0,1,0-.84c0-.57.07-1.15.11-1.73a8.27,8.27,0,0,1,.08-.87h-2.4l-.58-.08a2.34,2.34,0,0,1-.64-.18A2.31,2.31,0,0,1,120.14,159.11ZM83.45,187.25c-.26-4-.26-6.39,0-7.07l.17-.43c.21-.46.87-.73,2-.81a2.84,2.84,0,0,1,1.47.18,5.8,5.8,0,0,1,2,1.47,18.12,18.12,0,0,1,1.77,2.31,16.3,16.3,0,0,0,1.53,2c.13,0,.26-.08.4-.3l3.32-6a3.26,3.26,0,0,1,1.63-.64,2,2,0,0,1,1.58.55,2.53,2.53,0,0,1,.7,1.71,4.18,4.18,0,0,1,0,1,9.46,9.46,0,0,0-.07,2.32,27.87,27.87,0,0,0,.36,3.09c.2,1.41.32,2.42.36,3.06a6.86,6.86,0,0,1-.44,3.44,1.64,1.64,0,0,1-1,.64A1.11,1.11,0,0,1,98,193a20.93,20.93,0,0,1-.38-2.48c-.19-1.52-.37-3-.53-4.47l-.24-2.16-.09.29a2.44,2.44,0,0,1-.16.57,1.16,1.16,0,0,0-.08.32l-.22.23c-.54.63-1,1.11-1.25,1.43a7.78,7.78,0,0,1-1.14,1,2.85,2.85,0,0,1-1.3.56q-1.5.18-3-1.95a11.47,11.47,0,0,1-.8-1.4,9,9,0,0,0-1.11-1.8,1.35,1.35,0,0,0-1.18-.62v1.82q.09,1.41.48,4.56c.25,2.09.41,3.5.45,4.24v1.26c0,.19-.19.35-.5.51a3.42,3.42,0,0,1-1,.31c-.5.07-.79,0-.86-.25C84.29,194.32,83.76,191.75,83.45,187.25Zm18.88-9v-.43a74.05,74.05,0,0,0,7.82-1.41,3.74,3.74,0,0,1,.67-.1c.89-.06,1.35.17,1.38.68a1,1,0,0,1-.29.72,1.82,1.82,0,0,1-.87.53,6.39,6.39,0,0,0-1.24.52,5.24,5.24,0,0,1-1,.44,9.82,9.82,0,0,1-1.7.25,3.77,3.77,0,0,0-1.52.29.36.36,0,0,0-.08.3,2,2,0,0,0,.08.54,4.41,4.41,0,0,1,.11.85c0,.27,0,.64,0,1.08l.14,2.13,2.62-.34,1-.11a7.65,7.65,0,0,1,2.7,0,.36.36,0,0,1,.24.32c0,.26-.24.57-.76.92a4.63,4.63,0,0,1-1.56.68,9.54,9.54,0,0,1-1.17.2c-.42,0-1,.09-1.67.12s-1.14,0-1.33.07l.11,3.38.1.48,2.66-.42c.59-.09,1.11-.17,1.54-.22a8.44,8.44,0,0,1,1.5-.13c.61,0,.93.26,1,.63s-.25.85-.86,1.08c-.06,0-.69.19-1.91.49q-1.49.39-3,.63c-2.42.34-3.69,0-3.76-1.2V191a48.18,48.18,0,0,0-.08-5.24c-.09-1.38-.24-2.93-.46-4.67S102.35,178.45,102.33,178.28Z" fill="#fff"/><path d="M160.57,123.15l-2.29,36.37-3.57,56.6a5,5,0,0,1-5,4.66H40.53a5.37,5.37,0,0,1-5.35-5H113a36.18,36.18,0,0,0,36.11-33.9l.81-13a8.81,8.81,0,0,0-8.8-9.37H31.64l-2.3-36.37Z" fill="#371a45" opacity="0.35" style="isolation:isolate"/><path d="M101.48,132.41h1q-.33,1.8-.57,3.6A34,34,0,0,1,101.48,132.41Z" fill="#f9a528"/><path d="M150.51,222H39.4a5.41,5.41,0,0,1-5.4-5l-6.84-105.2a1.23,1.23,0,0,1,.33-.92,1.19,1.19,0,0,1,.9-.38H161.53a1.23,1.23,0,0,1,.89.38,1.25,1.25,0,0,1,.33.92L155.89,217A5.39,5.39,0,0,1,150.51,222ZM29.7,113l6.77,103.8a3,3,0,0,0,2.93,2.75H150.51a3,3,0,0,0,2.93-2.75L160.22,113Z" fill="#371a45"/><path d="M167.21,144.43H22.67a2,2,0,0,1-1.6-.74,2,2,0,0,1-.4-1.7l7-31.31A3.34,3.34,0,0,1,31,108.06H158.84a3.37,3.37,0,0,1,3.28,2.62l7,31.31a2,2,0,0,1-.38,1.67A2,2,0,0,1,167.21,144.43Z" fill="#ef962b"/><path d="M161.34,109.18a3.29,3.29,0,0,0-2.5-1.12H31.05a3.34,3.34,0,0,0-3.28,2.62l-.24,1H156.16a3.8,3.8,0,0,1,3.71,3L163,128.87a9.78,9.78,0,0,1-9.55,11.9H21L20.72,142a2,2,0,0,0,.56,1.87H168.6a2.33,2.33,0,0,0,.42-.57Z" fill="#fff" opacity="0.3" style="isolation:isolate"/><path d="M167.21,145.65H22.67a3.23,3.23,0,0,1-3.15-3.93l7.05-31.31a4.54,4.54,0,0,1,4.48-3.58H158.84a4.54,4.54,0,0,1,4.47,3.58l7.05,31.31a3.23,3.23,0,0,1-3.15,3.93ZM31.05,109.29A2.11,2.11,0,0,0,29,111l-7,31.31a.77.77,0,0,0,.75.94H167.21a.76.76,0,0,0,.6-.29.73.73,0,0,0,.15-.65L161,111a2.11,2.11,0,0,0-2.08-1.66Z" fill="#371a45"/><path d="M55.55,125.9c-16.61-.78-16.64-14.69-16.43-17.84H76.33C77.07,121.7,70.55,126.59,55.55,125.9Zm79.17,0c16.61-.78,16.64-14.69,16.43-17.84H113.94C113.2,121.7,119.72,126.59,134.72,125.9Z" fill="#371a45" opacity="0.35" style="isolation:isolate"/><path d="M39.86,108.06s-2.09,14.73,14.46,15.45c13.47.6,19.2-3.63,18.33-15.45-.56-7.63-15.85-7-15.85-7S40.9,101.29,39.86,108.06Z" fill="#fff"/><path d="M56.67,124.79h-2.4c-5.55-.24-9.74-2-12.45-5.28-4.07-4.9-3.21-11.3-3.17-11.57,1.16-7.57,16.39-8.07,18.13-8.1.65,0,16.46-.51,17.1,8.2.42,5.73-.68,9.85-3.34,12.6S63.32,124.79,56.67,124.79ZM41.08,108.23c0,.21-.68,5.68,2.65,9.68,2.24,2.69,5.83,4.17,10.65,4.38,7.24.32,11.82-.77,14.4-3.43,2.15-2.22,3-5.72,2.65-10.71-.46-6.26-14.44-5.93-14.59-5.92C53,102.3,41.81,103.56,41.08,108.23Z" fill="#371a45"/><path d="M54.33,123.51c13.46.6,19.19-3.63,18.32-15.45a5.21,5.21,0,0,0-.27-1.36c-1.46,7.12-7.28,9.74-18,9.26-9.33-.41-12.74-5.26-13.94-9.42a4.51,4.51,0,0,0-.53,1.52S37.77,122.79,54.33,123.51Z" fill="#371a45" opacity="0.35" style="isolation:isolate"/><path d="M150.67,108.06s2.09,14.73-14.47,15.45c-13.46.6-19.19-3.63-18.32-15.45.55-7.63,15.85-7.06,15.85-7.06S149.63,101.29,150.67,108.06Z" fill="#fff"/><path d="M133.85,124.79c-6.64,0-11.08-1.36-13.86-4.22s-3.76-6.87-3.34-12.6c.64-8.7,16.45-8.22,17.13-8.2,1.71,0,16.94.53,18.1,8.1,0,.27.89,6.67-3.18,11.57-2.7,3.26-6.89,5-12.44,5.28C135.43,124.78,134.62,124.79,133.85,124.79Zm-.6-22.57c-2.42,0-13.74.31-14.15,5.93-.37,5,.5,8.49,2.65,10.71,2.58,2.66,7.16,3.75,14.4,3.43,4.82-.21,8.4-1.69,10.65-4.38,3.33-4,2.68-9.47,2.65-9.68-.73-4.67-11.89-5.93-15.74-6Z" fill="#371a45"/><path d="M136.2,123.51c-13.46.6-19.19-3.63-18.33-15.45a5.67,5.67,0,0,1,.28-1.36c1.46,7.12,7.28,9.74,18,9.26,9.33-.41,12.74-5.26,13.94-9.42a4.74,4.74,0,0,1,.53,1.52S152.76,122.79,136.2,123.51Z" fill="#371a45" opacity="0.35" style="isolation:isolate"/><path d="M68.93,134.82s-4.18-1.39-1-3.95,31.41-3.56,35.18-1.38c5,2.92-1.44,4.42-9,5.07S75.81,136.24,68.93,134.82Zm51.88,0s-11.24,0-10-3.43c1.7-4.69,8.63-3.64,11.77-2.49C126.63,130.4,126.38,135.21,120.81,134.83Z" fill="#fff" opacity="0.3" style="isolation:isolate"/><path d="M137,42.84a.93.93,0,0,1-1.22-.49l-10.5-24.69a.9.9,0,0,1,0-.72.88.88,0,0,1,.5-.5,9.75,9.75,0,0,1,12.8,5.17l3.58,8.4A9.78,9.78,0,0,1,137,42.84Z" fill="#fff"/><path d="M136.62,43.13a1.26,1.26,0,0,1-.43-.08,1.16,1.16,0,0,1-.63-.62L125.08,17.75a1.19,1.19,0,0,1,0-.89,1.17,1.17,0,0,1,.62-.62,10,10,0,0,1,13.1,5.29l3.57,8.41A10,10,0,0,1,137.07,43,1.16,1.16,0,0,1,136.62,43.13Zm-7-27.24a9.51,9.51,0,0,0-3.72.75.72.72,0,0,0-.38.94L136,42.26a.69.69,0,0,0,.39.38.72.72,0,0,0,.54,0A9.57,9.57,0,0,0,142,30.12l-3.58-8.42a9.55,9.55,0,0,0-8.84-5.81Z" fill="#371a45"/><path d="M140.48,26.08,142.16,30A9.78,9.78,0,0,1,137,42.84a.94.94,0,0,1-1.23-.49L133,35.79a.92.92,0,0,0,1,.17l.59-.25A9.77,9.77,0,0,0,140.48,26.08Z" fill="#371a45" opacity="0.35" style="isolation:isolate"/><path d="M136.62,44.14a2.25,2.25,0,0,1-.81-.16,2.13,2.13,0,0,1-1.17-1.15L124.15,18.14a2.17,2.17,0,0,1,1.15-2.83,11,11,0,0,1,14.41,5.82l3.58,8.42A11,11,0,0,1,137.47,44,2.44,2.44,0,0,1,136.62,44.14ZM126.53,17.46l10.25,24.13A8.55,8.55,0,0,0,141,30.51l-3.58-8.42A8.54,8.54,0,0,0,126.53,17.46Z" fill="#371a45"/><path d="M44.3,51A.88.88,0,0,1,45,51a.93.93,0,0,1,.51.5L56,76.22a.94.94,0,0,1-.49,1.22A9.76,9.76,0,0,1,42.7,72.27l-3.57-8.42A9.74,9.74,0,0,1,44.3,51Z" fill="#fff"/><path d="M51.69,78.45A10.32,10.32,0,0,1,48,77.72a10,10,0,0,1-5.45-5.36L39,63.94a10,10,0,0,1,5.29-13.1,1.15,1.15,0,0,1,1.51.61L56.21,76.14a1.12,1.12,0,0,1,0,.88,1.14,1.14,0,0,1-.61.63A10.31,10.31,0,0,1,51.69,78.45Zm-7.31-27.2a9.54,9.54,0,0,0-5.05,12.52l3.57,8.42a9.55,9.55,0,0,0,12.52,5,.74.74,0,0,0,.39-.39.72.72,0,0,0,0-.54L45.32,51.63A.71.71,0,0,0,44.38,51.25Z" fill="#371a45"/><path d="M53.1,69.37,56,76.22a.93.93,0,0,1-.49,1.22A9.78,9.78,0,0,1,42.7,72.27l-1.5-3.54a9.79,9.79,0,0,0,10.43,1.8l.9-.38A1,1,0,0,0,53.1,69.37Z" fill="#371a45" opacity="0.35" style="isolation:isolate"/><path d="M51.69,79.45a11,11,0,0,1-10.12-6.7L38,64.33a11,11,0,0,1,5.82-14.41,2.1,2.1,0,0,1,1.65,0,2.13,2.13,0,0,1,1.18,1.16L57.13,75.74A2.16,2.16,0,0,1,56,78.57,11,11,0,0,1,51.69,79.45ZM44.51,52.3a8.53,8.53,0,0,0-4.25,11.07l3.57,8.42a8.56,8.56,0,0,0,10.93,4.64Z" fill="#371a45"/><path d="M130.82,78.51c-.83,1.25-1.73,2.45-2.68,3.62a45.74,45.74,0,0,1-59,10,45.18,45.18,0,0,1-6.26-4.57A11.2,11.2,0,0,1,68.74,85l12.73-1.47c2-1.11,4.17-2.19,6.48-3.22,13-5.82,24.43-6.34,34.57-1.54l4.48-.52A11.16,11.16,0,0,1,130.82,78.51Z" fill="#371a45" opacity="0.35" style="isolation:isolate"/><path d="M45,46.94a45.7,45.7,0,1,1,45.7,45.7A45.7,45.7,0,0,1,45,46.94Z" fill="#fff"/><path d="M90.61,92.89a46,46,0,1,1,15-2.52A46,46,0,0,1,90.61,92.89Zm0-91.43a45.48,45.48,0,1,0,43.05,30.72A45.48,45.48,0,0,0,90.61,1.46Z" fill="#371a45"/><path d="M131.4,26.26a43.5,43.5,0,0,1,2.47,5.84A45.7,45.7,0,0,1,47.42,61.78c-.23-.69-.45-1.38-.65-2.07A45.7,45.7,0,0,0,131.4,26.26Z" fill="#371a45" opacity="0.35" style="isolation:isolate"/><path d="M90.69,93.87a46.92,46.92,0,1,1,38.14-19.69A46.94,46.94,0,0,1,90.69,93.87ZM90.61,2.46A44.47,44.47,0,1,0,134.86,42,44.5,44.5,0,0,0,90.61,2.46Z" fill="#371a45"/><path d="M134.12,33.26a41,41,0,0,1,.77,25.36c-1.76,6.1-13.1,19.77-30.82,26.33-16.43,6.09-34.59,2.7-39.84-.88A41.06,41.06,0,0,1,48.66,64c-8-22.26,7.78-38.38,31.38-46.88S126.1,11,134.12,33.26Z" fill="#371a45"/><path d="M84.48,89.55c-9.59,0-17.61-2.2-20.94-4.47a42.19,42.19,0,0,1-16-20.62c-3.94-10.93-2.59-21,4-29.76C57.26,27,67,20.56,79.63,16s24.25-5.77,33.58-3.52c10.7,2.58,18.12,9.43,22.06,20.37a42.22,42.22,0,0,1,.8,26.11c-1.74,6-12.78,20.18-31.57,27.14A58.38,58.38,0,0,1,84.48,89.55Zm18.9-75.72a68.61,68.61,0,0,0-22.92,4.48C68,22.82,40,36.24,49.81,63.63A39.74,39.74,0,0,0,64.93,83c5,3.42,22.7,6.68,38.71.75,17.76-6.57,28.5-20.08,30.07-25.52a39.71,39.71,0,0,0-.75-24.6c-3.64-10.11-10.48-16.44-20.33-18.81A38.91,38.91,0,0,0,103.38,13.83Z" fill="#371a45"/><path d="M113.36,36.2c-.74-4.4,1.25-8.41,4.44-8.94s6.38,2.6,7.12,7-1.25,8.42-4.44,9S114.1,40.61,113.36,36.2Z" fill="#fff" opacity="0.7" style="isolation:isolate"/><path d="M114.63,52.83a3.22,3.22,0,1,1,3.29,3.62A3.48,3.48,0,0,1,114.63,52.83Z" fill="#fff" opacity="0.7" style="isolation:isolate"/><path d="M118.32,15.48c7,3.11,12.57,8.84,15.79,17.78a41,41,0,0,1,.78,25.36c-1.76,6.1-13.1,19.77-30.82,26.33a56.56,56.56,0,0,1-18.71,3.34C107,79.76,120.75,63,122.93,55.46a52,52,0,0,0-1-32.17A46.47,46.47,0,0,0,118.32,15.48Z" fill="#111a28" opacity="0.35" style="isolation:isolate"/><path d="M45,45.13a1.45,1.45,0,0,1-.5-.11,1.24,1.24,0,0,1-.68-1.47C47.38,29.74,59.74,18.1,77.73,11.62S112.49,6.06,124,14a1.23,1.23,0,0,1-1,2.19,1.4,1.4,0,0,1-.3-.15c-10.88-7.54-26.95-8.32-44.09-2.15s-29,17.25-32.38,30.28l-.06.16A1.24,1.24,0,0,1,45,45.13Z" fill="#371a45"/><path d="M63,73.83S48.22,54.35,56.9,41.34,82.63,22.22,82.63,23.46c0,0-17.21,11.35-19.22,28.91C61.86,65.92,63,73.83,63,73.83Z" fill="#fff" opacity="0.7" style="isolation:isolate"/><path d="M66.73,196.22l-1.56.24a.71.71,0,0,0-.6.6l-.24,1.56-.24-1.56a.71.71,0,0,0-.61-.6l-1.55-.24,1.55-.24a.73.73,0,0,0,.61-.61l.24-1.55.24,1.55a.72.72,0,0,0,.6.61Zm-9.58,12.19-1.46.22a.68.68,0,0,0-.56.57l-.23,1.46-.22-1.46a.7.7,0,0,0-.57-.57l-1.46-.22,1.46-.23a.69.69,0,0,0,.57-.56l.22-1.46.23,1.46a.66.66,0,0,0,.56.56Zm-5.72-17.87-1.09.17a.49.49,0,0,0-.42.42l-.17,1.09-.17-1.09a.49.49,0,0,0-.42-.42l-1.09-.17,1.09-.17a.49.49,0,0,0,.42-.42l.17-1.09.17,1.09a.49.49,0,0,0,.42.42Zm88.08,8.86,1.56.24a.72.72,0,0,1,.6.61l.24,1.55.24-1.55a.72.72,0,0,1,.6-.61l1.56-.24-1.56-.24a.72.72,0,0,1-.6-.6l-.24-1.55-.24,1.55a.71.71,0,0,1-.6.6ZM122.6,209l1.46.23a.66.66,0,0,1,.56.57l.23,1.45.22-1.45a.68.68,0,0,1,.57-.57l1.46-.23-1.46-.22a.7.7,0,0,1-.57-.57l-.22-1.45-.23,1.45a.68.68,0,0,1-.56.57Zm7.71-21.66,1.09.17a.5.5,0,0,1,.42.42L132,189l.17-1.09a.51.51,0,0,1,.42-.42l1.09-.17-1.09-.16a.51.51,0,0,1-.42-.43l-.17-1.08-.17,1.08a.51.51,0,0,1-.42.43ZM52.44,155.23l-1.1.17a.49.49,0,0,0-.42.42l-.17,1.1-.17-1.1a.51.51,0,0,0-.43-.42l-1.1-.17,1.1-.17a.53.53,0,0,0,.43-.43l.17-1.1.17,1.1a.51.51,0,0,0,.42.43Zm-6.63,10.23-1.14.17a.54.54,0,0,0-.44.44l-.17,1.14-.18-1.14a.53.53,0,0,0-.44-.44l-1.14-.17,1.14-.18a.53.53,0,0,0,.44-.44l.18-1.14.17,1.14a.54.54,0,0,0,.44.44ZM137.3,153l1.1.17a.53.53,0,0,1,.43.43l.17,1.1.17-1.1a.5.5,0,0,1,.42-.43l1.1-.17-1.1-.17a.49.49,0,0,1-.42-.42l-.17-1.1-.17,1.1a.52.52,0,0,1-.43.42Zm6.63,10.25,1.14.18a.51.51,0,0,1,.44.44l.18,1.14.17-1.14a.53.53,0,0,1,.45-.44l1.14-.18-1.14-.17a.55.55,0,0,1-.45-.45l-.17-1.14-.18,1.14a.53.53,0,0,1-.44.45ZM88,210.56l1.35.21a.6.6,0,0,1,.53.52l.21,1.36.21-1.36a.64.64,0,0,1,.53-.52l1.35-.21-1.35-.21a.65.65,0,0,1-.53-.53l-.21-1.36-.21,1.36a.64.64,0,0,1-.53.53ZM99.91,203l1.36.21a.63.63,0,0,1,.52.53l.21,1.36.21-1.36a.65.65,0,0,1,.53-.53l1.36-.21-1.36-.21a.65.65,0,0,1-.53-.52l-.21-1.36-.21,1.36a.62.62,0,0,1-.52.52Z" fill="#fff2bd"/><path d="M13.82,220.39A58,58,0,0,1,24,219.48c3.38-.1,6.76,0,10.14,0s6.76.05,10.14.05H160.85c1.69,0,3.38-.06,5.07-.09a37.18,37.18,0,0,1,10.14.95.44.44,0,0,1,.32.43.46.46,0,0,1-.32.43,37.18,37.18,0,0,1-10.14.95c-1.69,0-3.38-.08-5.07-.08H34.1c-3.38,0-6.76.1-10.14,0a59.47,59.47,0,0,1-10.14-.92.49.49,0,0,1-.28-.19.44.44,0,0,1-.06-.32A.42.42,0,0,1,13.82,220.39Z" fill="#371a45"/></svg>