<svg xmlns="http://www.w3.org/2000/svg" viewBox="0 0 192.3 115.2"><path d="M192.3,77.5v37.42H159.21l-1.52-2-.23-.31a12.34,12.34,0,0,1-.51-1.18,11.74,11.74,0,0,1-.55-2,11.21,11.21,0,0,1,.16-4.83c1.28-5.09,6.06-9.23,12.39-10.1a17.47,17.47,0,0,1,6.14.24,14.53,14.53,0,0,1,10.35-8.07A17.06,17.06,0,0,1,192.3,77.5Z" fill="#fff"/><path d="M128.76,111.41a4.82,4.82,0,0,1-.19,1.42l-2.15,2.09H91.78v-.12a6.44,6.44,0,0,1,4.93-5.18,6,6,0,0,1-.25-1.65,6.86,6.86,0,0,1,1.82-4.62,10.18,10.18,0,0,1,7.08-3.25c3.73-.2,6.94,1.48,8.34,4.06a6.79,6.79,0,0,1,5.37,2.57,8.19,8.19,0,0,1,2.74-.62,7.7,7.7,0,0,1,4.21,1,5.74,5.74,0,0,1,2,2,4.68,4.68,0,0,1,.61,1.54A4.12,4.12,0,0,1,128.76,111.41Z" fill="#dae9f0"/><path d="M163.71,114.53l0,.39H109.15a12.81,12.81,0,0,1,6.53-3.31,13.85,13.85,0,0,1,3.3-.22,13.6,13.6,0,0,1,4.79,1.1,11.05,11.05,0,0,1,1.87-1.94,11.84,11.84,0,0,1,2.42-1.54,13.61,13.61,0,0,1,5.48-1.34c2.71-4.72,8.45-7.85,14.92-7.63h.26a17.68,17.68,0,0,1,7.84,2.23C161.15,104.88,164.05,109.46,163.71,114.53Z" fill="#dae9f0"/><path d="M18,114.92H0V75.09c5.94,2.23,9.93,7.47,9.54,13.36a12,12,0,0,1-.6,3,11.37,11.37,0,0,1,7.71,6.93,9.08,9.08,0,0,1,.5,2.6l.14,2.32.37,6.62Z" fill="#dae9f0"/><path d="M61.54,114.92h-35l-4-2.22-2.36-1.31L17.66,110h0l-9.24-5.18a9.13,9.13,0,0,1,1.23-2.18,10.43,10.43,0,0,1,3.13-2.75h0a12.12,12.12,0,0,1,3.86-1.43,12.71,12.71,0,0,1,8.56,1.34,10.37,10.37,0,0,1,3.24,2.77,12.85,12.85,0,0,1,10.38,0,16.66,16.66,0,0,1,16.2-.11c.24.13.47.27.7.42C60.23,105.7,62.33,110.4,61.54,114.92Z" fill="#fff"/><path d="M91,114.92H33.12c0-.14,0-.27,0-.41h0c.65-5.09,5.82-8.9,11.82-8.61a12.61,12.61,0,0,1,4.41,1,11.23,11.23,0,0,1,6.34-4.07,12.28,12.28,0,0,1,2.67-.38c2.53-4.41,7.94-7.32,14-7a15.27,15.27,0,0,1,11.22,5.42,11.09,11.09,0,0,1,2,10.72A11.43,11.43,0,0,1,91,114.92Z" fill="#dae9f0"/><path d="M32.07,114.92H0V97.39c.46,0,.91,0,1.38,0a25.31,25.31,0,0,1,11.4,3.25h0a20.21,20.21,0,0,1,4.5,3.5,16.25,16.25,0,0,1,3,4.32A17,17,0,0,1,32.07,114.92Z" fill="#fff"/><path d="M121.6,114.92H69.86a11.4,11.4,0,0,1,5.32-2.34,8.35,8.35,0,0,1-.18-2.4c.28-4.31,3.8-7.86,8.62-9.31a17.06,17.06,0,0,1,5.73-.68,15.67,15.67,0,0,1,8.92,3.16,10.86,10.86,0,0,1,3.22,3.94,10.77,10.77,0,0,1,7.83,4.51,13.1,13.1,0,0,1,4.2-.47,13.56,13.56,0,0,1,2.16.28A10.94,10.94,0,0,1,121.6,114.92Z" fill="#fff"/><path d="M15,36.9H12a.31.31,0,1,1,0-.62H15a.31.31,0,1,1,0,.62Z" fill="#fff"/><path d="M16.28,37.93H14.12a.31.31,0,0,1,0-.62h2.16a.31.31,0,0,1,0,.62Z" fill="#fff"/><path d="M13,37.93H9.28a.31.31,0,0,1,0-.62H13a.31.31,0,1,1,0,.62Z" fill="#fff"/><path d="M93.78,26.11H85.29a.31.31,0,1,1,0-.62h8.49a.31.31,0,0,1,0,.62Z" fill="#fff"/><path d="M87.19,25.08H86.3a.31.31,0,1,1,0-.62h.89a.31.31,0,0,1,0,.62Z" fill="#fff"/><path d="M92,25.08H88.32a.31.31,0,1,1,0-.62H92a.31.31,0,0,1,0,.62Z" fill="#fff"/><path d="M119.67,49.88H117a.31.31,0,0,1,0-.62h2.66a.31.31,0,0,1,0,.62Z" fill="#fff"/><path d="M118.91,48.85H118a.31.31,0,0,1,0-.62h.89a.31.31,0,0,1,0,.62Z" fill="#fff"/><path d="M123.74,48.85H120a.31.31,0,0,1,0-.62h3.71a.31.31,0,0,1,0,.62Z" fill="#fff"/><path d="M167.6,37.1h-5.33a.31.31,0,0,1,0-.62h5.33a.31.31,0,0,1,0,.62Z" fill="#fff"/><path d="M165.13,36.07h-1.85a.31.31,0,1,1,0-.62h1.85a.31.31,0,0,1,0,.62Z" fill="#fff"/><path d="M167,36.07h-.88a.31.31,0,1,1,0-.62H167a.31.31,0,0,1,0,.62Z" fill="#fff"/><path d="M181,64H184a.31.31,0,0,1,0,.62H181a.31.31,0,1,1,0-.62Z" fill="#fff"/><path d="M179.71,62.93h2.16a.31.31,0,0,1,0,.62h-2.16a.31.31,0,1,1,0-.62Z" fill="#fff"/><path d="M183,62.93h3.7a.31.31,0,0,1,0,.62H183a.31.31,0,1,1,0-.62Z" fill="#fff"/><path d="M152,92h8.48a.31.31,0,1,1,0,.62H152a.31.31,0,1,1,0-.62Z" fill="#fff"/><path d="M158.56,93h.88a.31.31,0,1,1,0,.62h-.88a.31.31,0,1,1,0-.62Z" fill="#fff"/><path d="M153.72,93h3.71a.31.31,0,1,1,0,.62h-3.71a.31.31,0,1,1,0-.62Z" fill="#fff"/><path d="M100,80.63h2.67a.31.31,0,0,1,0,.62H100a.31.31,0,0,1,0-.62Z" fill="#fff"/><path d="M100.74,81.66h.89a.31.31,0,0,1,0,.62h-.89a.31.31,0,0,1,0-.62Z" fill="#fff"/><path d="M95.91,81.66h3.71a.31.31,0,0,1,0,.62H95.91a.31.31,0,0,1,0-.62Z" fill="#fff"/><path d="M40.64,94.6H46a.31.31,0,1,1,0,.62H40.64a.31.31,0,0,1,0-.62Z" fill="#fff"/><path d="M43.1,95.63H45a.31.31,0,0,1,0,.62H43.1a.31.31,0,1,1,0-.62Z" fill="#fff"/><path d="M41.27,95.63h.87a.31.31,0,0,1,0,.62h-.87a.31.31,0,0,1,0-.62Z" fill="#fff"/><rect x="0.16" width="192.14" height="114.92" fill="none"/><path d="M135.94,43.84h8.6c2.34,60.21,7.66,67.1,14.63,71.36H121.31C128.28,110.94,133.6,104.05,135.94,43.84Z" fill="#fff"/></svg>