<svg xmlns="http://www.w3.org/2000/svg" viewBox="0 0 189.02 185.45"><path d="M63.09,83.16c-1,0-23.43-6-37.26-3.27C14.33,82.15-.66,125.25,5.07,134.83,10.38,143.7,32,148.73,32,148.73Z" fill="#fff"/><path d="M63.09,83.16,58,93.82,32,148.73s-10.45-2.43-18.6-6.91c-3.58-1.95-6.67-4.29-8.28-7-5.74-9.58,9.26-52.68,20.75-55C39.65,77.18,62.08,83.17,63.09,83.16Z" fill="#fff"/><path d="M58,93.82,32,148.73h0l-.45-.11h-.16l-.17-.05-.48-.12h-.26l-.16,0-2-.57-.29-.08-.9-.28-.31-.1-.38-.11-.47-.16-.15,0-.34-.11-1-.34h0l-.73-.26h0l-.54-.19-.34-.12-1.32-.49-.89-.33-.79-.32-.81-.32-.79-.34-.81-.36c-.26-.12-.53-.23-.8-.37h0l-.79-.37-.79-.39-.13-.06-.65-.34-.77-.41c-3.59-2-6.67-4.3-8.28-7-3-5-.35-19.13,4.48-31.81C7.85,111,7.51,117.78,9.41,121a14,14,0,0,0,2.68,3.15,20.15,20.15,0,0,0,4,2.75C21.41,111.5,32.92,92.66,40.81,92a57.49,57.49,0,0,1,15.08,1.32Z" fill="#371a45" opacity="0.35" style="isolation:isolate"/><path d="M63.09,83.16,58,93.82l-2.16-.46,5.05-10.63C62.15,83,62.92,83.16,63.09,83.16Z" fill="#371a45" opacity="0.35" style="isolation:isolate"/><path d="M32.63,150.14l-1-.22c-.9-.21-22.14-5.25-27.65-14.47-3.72-6.21.38-24.19,6.49-37.91C13.4,91,19.2,79.94,25.59,78.73c11.78-2.34,29.73,1.54,35.62,2.81.9.19,1.7.37,1.93.39H65Zm1.5-69.74a42.73,42.73,0,0,0-8.06.68c-3.83.75-8.82,7.27-13.33,17.44-6.47,14.55-9.5,30.9-6.63,35.69,4.37,7.3,21,12,25.17,13.11L61.33,84.06l-.63-.14C56.19,83,44.43,80.4,34.13,80.4Z" fill="#371a45"/><path d="M24.73,79.63c1.21.9,2.38,1.79,3.53,2.75s2.32,1.88,3.44,2.87,2.24,2,3.32,3a37.12,37.12,0,0,1,3.08,3.31.69.69,0,0,1-.11,1,.7.7,0,0,1-.94-.07h0a35.68,35.68,0,0,0-3.1-3c-1.08-1-2.22-1.91-3.37-2.82s-2.31-1.79-3.49-2.69-2.38-1.74-3.58-2.56h0a1.08,1.08,0,1,1,1.22-1.79h0Z" fill="#371a45"/><path d="M8.49,104.68l11.16,5.88a2.47,2.47,0,0,1,1.25,2.76c-.9,4-3.58,13.2-8.47,14.49a9.7,9.7,0,0,1-10.59-5c-2-4.1,1.36-12.77,3.24-17a2.48,2.48,0,0,1,1.45-1.32A2.44,2.44,0,0,1,8.49,104.68Z" fill="#fff"/><path d="M20.9,113.32c-.9,4-3.58,13.2-8.47,14.49-4,1.07-8.79-1.34-10.6-5-1.24-2.53-.43-6.77.8-10.64a10.55,10.55,0,0,0,.47,5.37C6.45,125.73,13.69,121,13.69,121s.05,2,.61,2.31c2.35,1.48,5.24-6.62,6.65-10.85A2.54,2.54,0,0,1,20.9,113.32Z" fill="#371a45" opacity="0.35" style="isolation:isolate"/><path d="M10.42,129.28a11.12,11.12,0,0,1-9.68-5.93c-2.08-4.26.61-12.14,3.24-18a3.67,3.67,0,0,1,4.83-1.91l.25.12,11.16,5.88a3.7,3.7,0,0,1,1.86,4.12c-1.2,5.13-4,14-9.33,15.38A9.64,9.64,0,0,1,10.42,129.28ZM7.34,105.6a1.4,1.4,0,0,0-.41.06,1.3,1.3,0,0,0-.74.68c-3.32,7.39-4.54,13.35-3.27,15.93a8.49,8.49,0,0,0,9.2,4.36c3-.78,5.79-5.86,7.61-13.59a1.28,1.28,0,0,0-.65-1.4L7.93,105.73A1.21,1.21,0,0,0,7.34,105.6Z" fill="#371a45"/><path d="M6,125.87a2.33,2.33,0,0,0,.38,0,3.12,3.12,0,0,0,.44-.09,5.53,5.53,0,0,0,.9-.28,8.57,8.57,0,0,0,1.73-.89,12,12,0,0,0,2.93-2.79,19.8,19.8,0,0,0,1.15-1.72c.37-.59.68-1.24,1-1.87a20.13,20.13,0,0,0,.89-2c.12-.33.24-.66.34-1a6.52,6.52,0,0,0,.25-1h0a.32.32,0,0,1,.63.07,11.28,11.28,0,0,1-.46,2.15c-.2.71-.45,1.4-.71,2.08a21.6,21.6,0,0,1-.9,2,18.82,18.82,0,0,1-1.06,2,13.55,13.55,0,0,1-3,3.42,10.88,10.88,0,0,1-2,1.24,8.89,8.89,0,0,1-1.11.45q-.3.1-.6.18a5.79,5.79,0,0,1-.68.13h0a1.08,1.08,0,0,1-1.19-1,1.06,1.06,0,0,1,1-1.18Z" fill="#371a45"/><path d="M40.31,161.2s44.21-11.18,84.21-2.62V138.17L48.73,115.45Z" fill="#fff"/><path d="M124.52,148.32v10.26c-40-8.56-84.21,2.62-84.21,2.62l2-10.75C51.28,148.45,89.52,140.83,124.52,148.32Z" fill="#371a45" opacity="0.35" style="isolation:isolate"/><path d="M38.93,162.64l9-48.56,77.71,23.3v22.53l-1.29-.28C85,151.22,41,162.12,40.54,162.23Zm10.64-45.81-7.93,43c8.24-1.86,46.65-9.65,81.83-2.51V139Z" fill="#371a45"/><path d="M137.83,152.31c-2,7.79-11.25,10.05-16.12,8.39s-8.52-9.49-8.52-9.49-11.42-.55-22-13.88c-.31-.4-.63-.81-.9-1.23C82.22,125,79.47,109.94,78.7,104.75c-.17-1.19-.23-1.86-.23-1.86L94,98.83l4.4-1.15a31.84,31.84,0,0,0,1,6.8c5,18.81,25.91,24.79,31.87,26.11C138,132,139.94,144.07,137.83,152.31Z" fill="#fff"/><path d="M137.83,152.31c-2,7.79-11.25,10.05-16.12,8.39s-8.52-9.49-8.52-9.49-11.42-.55-22-13.88c-.31-.4-.63-.81-.9-1.23C82.22,125,79.47,109.94,78.7,104.75c-.17-1.19-.23-1.86-.23-1.86l2.26-.59c1.73,6.54,4.68,14.69,9.58,21.41.3.41.62.82.89,1.21,10.53,13.34,21.94,13.88,21.94,13.88s3.68,7.86,8.53,9.5,14.15-.6,16.13-8.39a2.88,2.88,0,0,1,.11-.49A28.63,28.63,0,0,1,137.83,152.31Z" fill="#371a45" opacity="0.35" style="isolation:isolate"/><path d="M125.08,162.4a11.83,11.83,0,0,1-3.78-.57c-4.48-1.51-7.89-7.51-9-9.5-2.76-.35-12.76-2.42-22.11-14.26-10.9-13.8-13-34.24-13-35.1a1.23,1.23,0,0,1,1.1-1.32,1.2,1.2,0,0,1,1.31,1.08c0,.21,2.09,20.61,12.54,33.83,10,12.69,21,13.44,21.06,13.44h.73l.31.65c0,.08,3.52,7.41,7.82,8.86a12.87,12.87,0,0,0,9.46-1.18,10.05,10.05,0,0,0,5.12-6.35c1.49-5.83.76-13-1.74-17.1a6.29,6.29,0,0,0-3.91-3.15,56.63,56.63,0,0,1-18.92-8.09c-9.39-6.54-14.43-15.23-14.91-26a1.22,1.22,0,0,1,2.43-.1c1.07,23.13,24.72,30.18,31.94,31.78A8.76,8.76,0,0,1,137,133.6c2.8,4.57,3.65,12.54,2,19a12.34,12.34,0,0,1-6.27,7.89A16.23,16.23,0,0,1,125.08,162.4Z" fill="#371a45"/><path d="M95.12,89.6c-.43,3-.82,6.05-1.14,9.17-.23,2.21-.44,4.47-.62,6.64C92.05,121.29,91.92,136,91.92,136l-1.63.06L49,137.64a24.56,24.56,0,0,1,3.52,12.14l-5.26,32.44s-4.19,3.69-10.91-1.64c-2.92-2.32-2.64-8.22-9.85-11.46-14.47-6.46-11.24-30.73-7.87-39.66a86.2,86.2,0,0,1,4.54-10.21,107.54,107.54,0,0,1,5.71-9.64,145.86,145.86,0,0,1,20-23.74c4.76-4.6,8.06-7.17,8.06-7.17S96.46,80.48,95.12,89.6Z" fill="#fff"/><path d="M52.52,149.78l-5.26,32.44s-4.19,3.69-10.91-1.64c-2.92-2.32-2.64-8.22-9.85-11.46-9.65-4.27-11.44-16.51-10.56-26.82C16.7,149.88,19.57,157,26.48,160c5.12,2.24,5.9,11.1,11.79,3.65,5.32-6.74,9,9.45,9,9.45l4.61-28.42A23.8,23.8,0,0,1,52.52,149.78Z" fill="#371a45" opacity="0.35" style="isolation:isolate"/><path d="M24.51,137.27a21.29,21.29,0,0,1,1.68-2.11,24.59,24.59,0,0,1,1.91-1.91,23,23,0,0,1,2.13-1.7l.57-.38.55-.36a6.47,6.47,0,0,1,.63-.34,4.85,4.85,0,0,1,.65-.31,12.27,12.27,0,0,1,11.15.67,18.75,18.75,0,0,1,7.45,8.24A24.77,24.77,0,0,1,53,144.29c.21.9.37,1.79.49,2.69.06.46.11.89.14,1.37s.06.89.06,1.43V150L51,166.18,48.39,182.4l-.07.45-.32.27a5,5,0,0,1-.6.43,5.12,5.12,0,0,1-.57.3,3.68,3.68,0,0,1-.57.26l-.6.21c-.4.11-.8.2-1.21.27a10.14,10.14,0,0,1-1.23.07,10.72,10.72,0,0,1-4.58-1.17l-.52-.25-.49-.29c-.33-.21-.68-.39-1-.61l-.9-.67c-.07-.06-.15-.1-.23-.17l-.24-.22c-.16-.16-.34-.31-.47-.47a10.68,10.68,0,0,1-1.34-2c-.34-.66-.66-1.31-1-1.92a17.31,17.31,0,0,0-2-3.34,11.3,11.3,0,0,0-2.89-2.44l-.41-.26-.44-.21-.89-.45-1-.51c-.34-.18-.67-.38-1-.59l-.48-.31a5,5,0,0,1-.46-.34c-.3-.23-.61-.46-.9-.71l-.84-.77c-.28-.26-.52-.55-.78-.83a18.56,18.56,0,0,1-2.56-3.71,23.07,23.07,0,0,1-1.7-4.12,29.9,29.9,0,0,1-1-4.28c-.14-.73-.21-1.45-.31-2.18s-.14-1.44-.17-2.17a53.3,53.3,0,0,1,.23-8.66,56.23,56.23,0,0,1,1.56-8.52,37.9,37.9,0,0,1,1.35-4.15l.78-2,.85-2c1.15-2.63,2.41-5.21,3.8-7.7a119.19,119.19,0,0,1,9.37-14.33,149.5,149.5,0,0,1,11.12-13q3-3.09,6.07-6c2.09-2,4.2-3.83,6.45-5.65l.35-.28H57c3.71.2,7.37.51,11.06.9s7.33.9,11,1.57c1.79.34,3.64.72,5.45,1.18a43.73,43.73,0,0,1,5.38,1.72,18.14,18.14,0,0,1,2.63,1.26A9.86,9.86,0,0,1,95,86a5.13,5.13,0,0,1,1,1.46,4.31,4.31,0,0,1,.37,1.87v.48l0,.34-.09.69L96,92.21c-.26,1.79-.45,3.58-.67,5.44s-.38,3.64-.54,5.47c-.34,3.65-.58,7.3-.78,11s-.32,7.33-.56,11-.54,7.32-1.12,11a.41.41,0,0,1-.81,0q-.36-2.76-.45-5.55C91,128.67,91,126.82,91,125c0-3.69.23-7.38.51-11.06.54-7.35,1.09-14.72,2.09-22.05l.19-1.37.09-.69,0-.34v-.22a1.89,1.89,0,0,0-.16-.81,3.41,3.41,0,0,0-.55-.81,7.5,7.5,0,0,0-1.89-1.42A18.46,18.46,0,0,0,89,85.1a43.12,43.12,0,0,0-5.1-1.61c-1.79-.45-3.51-.81-5.3-1.14C75,81.69,71.45,81.2,67.81,80.8s-7.28-.69-10.9-.89l.8-.26c-2.14,1.72-4.25,3.58-6.27,5.51s-4,3.89-6,5.9a145.81,145.81,0,0,0-10.92,12.76,114.92,114.92,0,0,0-9.19,14c-1.36,2.44-2.58,5-3.7,7.5l-.87,1.9-.75,2a35.55,35.55,0,0,0-1.28,3.9,55.2,55.2,0,0,0-1.48,8.16A50.65,50.65,0,0,0,17,149.5c0,.69.1,1.38.16,2.06a17.4,17.4,0,0,0,.29,2,28.32,28.32,0,0,0,.89,4,20.6,20.6,0,0,0,1.53,3.7,15.3,15.3,0,0,0,2.23,3.24c.22.23.43.49.67.71l.72.66a8.84,8.84,0,0,0,.77.6l.38.29.41.26a8.85,8.85,0,0,0,.84.5l.89.44,1,.5.51.25.48.31a13.41,13.41,0,0,1,3.53,3,19.32,19.32,0,0,1,2.37,3.82c.34.65.63,1.27.9,1.87a7.57,7.57,0,0,0,1,1.47,1.85,1.85,0,0,0,.28.28l.15.14.19.15.8.58c.26.2.56.34.83.52l.42.25.43.21a8.35,8.35,0,0,0,3.54.89,6.61,6.61,0,0,0,.89,0A8,8,0,0,0,45,182l.41-.14.39-.17.37-.2.26-.18-.4.71,2.64-16.22,2.59-16.19v.18a10,10,0,0,0,0-1.2c0-.4-.08-.82-.14-1.24-.12-.82-.27-1.64-.47-2.46A23.36,23.36,0,0,0,49,140.24c-.37-.73-.78-1.45-1.22-2.14a21.13,21.13,0,0,0-1.49-1.93,16.77,16.77,0,0,0-1.79-1.68c-.31-.27-.64-.51-1-.75a10.14,10.14,0,0,0-1-.66,12.73,12.73,0,0,0-2.12-1,11.42,11.42,0,0,0-4.64-.48,12.06,12.06,0,0,0-2.3.56,5,5,0,0,0-.54.21c-.19.09-.37.16-.55.26-.38.18-.74.37-1.11.58-.73.41-1.44.89-2.14,1.35a41.61,41.61,0,0,0-4,3.24h0a.4.4,0,0,1-.57,0,.41.41,0,0,1,0-.57Zm88.69,15a1.06,1.06,0,0,1-1-.68c-.57-1.49-2-4-3.36-4.59a1.08,1.08,0,0,1,.79-2c2.69,1.06,4.39,5.38,4.57,5.82a1.07,1.07,0,0,1-.61,1.38A.83.83,0,0,1,113.2,152.25Z" fill="#371a45"/><path d="M77.54,152.25a1,1,0,0,1-1-.68c-.57-1.49-2-4-3.36-4.59a1.08,1.08,0,0,1,.78-2c2.69,1.06,4.39,5.38,4.58,5.82a1.09,1.09,0,0,1-.12,1,1,1,0,0,1-.9.46Z" fill="#371a45"/><path d="M89.58,121.94a4.94,4.94,0,1,1,4.94,4.94h0A5,5,0,0,1,89.58,121.94Z" fill="#fff"/><path d="M99.48,121.94a4.94,4.94,0,1,1-9-2.91A4.93,4.93,0,0,0,99.33,121,4.09,4.09,0,0,1,99.48,121.94Z" fill="#371a45" opacity="0.35" style="isolation:isolate"/><path d="M94.55,128a6,6,0,1,1,6-6h0a6,6,0,0,1-6,6Zm0-9.85A3.87,3.87,0,1,0,98.41,122h0a3.86,3.86,0,0,0-3.83-3.9h0Z" fill="#371a45"/><path d="M95,111.67l-.52,8.75-.4,6.81a3.52,3.52,0,0,1-3.47,3.32H86.21a130.57,130.57,0,0,1-23.5-2.43,3.53,3.53,0,0,1-2.76-4l2.9-17.72a3.52,3.52,0,0,1,4-2.92l.21,0c6,1.3,17.87,3.78,24.64,4.48A3.51,3.51,0,0,1,95,111.67Z" fill="#fff"/><path d="M66.86,103.47l-7.17-.58a3,3,0,0,0-3.22,2.52L53.75,123A3,3,0,0,0,56,126.39L62.36,128" fill="#fff"/><path d="M88.73,131.63a135.47,135.47,0,0,1-26.2-2.42A4.6,4.6,0,0,1,59,124l2.86-17.72a4.6,4.6,0,0,1,5.27-3.81l.23,0c6.27,1.37,17.92,3.77,24.53,4.41A4.59,4.59,0,0,1,96,111.74l-.9,15.56a4.6,4.6,0,0,1-4.47,4.32ZM66.34,104.51a2.45,2.45,0,0,0-2.41,2.06L61,124.3a2.45,2.45,0,0,0,1.92,2.8,134.17,134.17,0,0,0,27.57,2.38,2.46,2.46,0,0,0,2.41-2.32l.9-15.56a2.45,2.45,0,0,0-2.2-2.59c-6.75-.65-18.41-3.07-24.77-4.48a2.68,2.68,0,0,0-.49,0Z" fill="#371a45"/><path d="M62.32,129.11h-.27l-6.38-1.64a4.06,4.06,0,0,1-3-4.6l2.79-17.59a4.09,4.09,0,0,1,4.36-3.43l7.16.58a1.07,1.07,0,0,1-.18,2.14L59.63,104a2,2,0,0,0-2.07,1.63L54.77,123.2a1.94,1.94,0,0,0,1.43,2.19L62.59,127a1.07,1.07,0,0,1-.27,2.11Z" fill="#371a45"/><path d="M60,124.91c-.3,4.2-2.69,6.78-14.44,5.38-11-1.35-20.5-4.86-22.43-11a110.14,110.14,0,0,1,5.71-9.65,4.18,4.18,0,0,1,1.58.5c3.1,1.79,8.44,7.81,26.48,8.66A6.78,6.78,0,0,1,60,124.91Z" fill="#371a45" opacity="0.35" style="isolation:isolate"/><path d="M56.92,114.87A6.79,6.79,0,0,1,60.06,121c-.31,4.18-2.69,6.76-14.44,5.37S23.85,121,22.85,114.12s4.48-9.63,7.59-7.87S38.88,114,56.92,114.87Z" fill="#fff"/><path d="M60,121.64c-.51,3.82-3.24,6.08-14.33,4.73C34,125,23.92,121,22.92,114.08c-.57-4,1-6.63,3.11-7.75a10,10,0,0,0-.08,3.58c.93,6.88,11,10.81,22.69,12.24C54.37,122.85,57.87,122.59,60,121.64Z" fill="#371a45" opacity="0.35" style="isolation:isolate"/><path d="M51.32,128a49.84,49.84,0,0,1-5.85-.4C31.3,125.86,22.62,121,21.65,114.26c-.53-3.75.61-6.9,3.14-8.64a6,6,0,0,1,6.27-.47,20,20,0,0,1,1.79,1.21c3.27,2.3,9.34,6.6,24.13,7.29h.29l.25.15a8,8,0,0,1,3.75,7.3A6.71,6.71,0,0,1,59,126C57.44,127.34,55,128,51.32,128ZM28.39,106.9a4,4,0,0,0-2.23.73c-1.74,1.19-2.51,3.48-2.11,6.27.79,5.49,8.91,9.7,21.71,11.25,6.16.74,10,.41,11.73-1A4.21,4.21,0,0,0,58.85,121a5.51,5.51,0,0,0-2.32-4.87c-15.23-.78-21.63-5.29-25.09-7.72-.61-.44-1.16-.82-1.61-1.08A3,3,0,0,0,28.39,106.9Z" fill="#371a45"/><path d="M94.42,120.42l-.36,6.81a3.51,3.51,0,0,1-3.47,3.32H86.22a8.68,8.68,0,0,1-1.64-6.06c.24-3.69,2.18-6.48,4.34-6.27l3,.34h.13A3.4,3.4,0,0,1,94.42,120.42Z" fill="#371a45" opacity="0.35" style="isolation:isolate"/><path d="M77.19,131.32H77a1,1,0,0,1-.89-1.2h0L77.33,121l-4-4A1.09,1.09,0,0,1,73,116l1.31-10.9a1.07,1.07,0,0,1,2.13.25h0l-1.25,10.35,4,4a1.08,1.08,0,0,1,.31.9l-1.27,9.72A1.07,1.07,0,0,1,77.19,131.32Z" fill="#371a45"/><path d="M99.44,104.45a46.8,46.8,0,0,1-4.84.89l-1.22.14A48.87,48.87,0,0,1,80.15,105c-.48-.08-1-.17-1.44-.27l-1.36-.3A49.54,49.54,0,0,1,48.87,85.87c4.76-4.61,8.06-7.17,8.06-7.17s39.52,1.79,38.18,11c-.43,3-.82,6-1.14,9.16l4.4-1.15A33.14,33.14,0,0,0,99.44,104.45Z" fill="#371a45" opacity="0.35" style="isolation:isolate"/><path d="M130.79,79.48a49.24,49.24,0,0,1-19,16.06,51.57,51.57,0,0,1-4.93,2c-.82.28-1.66.55-2.51.8a49.34,49.34,0,0,1-22.17,1.29c-.9-.16-1.86-.35-2.79-.56A49.57,49.57,0,0,1,91.76,1.26a15.56,15.56,0,0,1,1.79.07c1.57.1,3.11.27,4.65.51a49.54,49.54,0,0,1,19.71,7.71c.94.62,1.85,1.28,2.75,2A49.62,49.62,0,0,1,130.79,79.48Z" fill="#fff"/><path d="M90.42,100.49H90a50.57,50.57,0,0,1-7.86-.7c-.89-.16-1.86-.36-2.78-.57A49.69,49.69,0,0,1,91.77,1.13a16,16,0,0,1,1.79.07c1.56.1,3.12.27,4.65.51A49.89,49.89,0,0,1,118,9.44c1,.63,1.88,1.3,2.76,2a49.77,49.77,0,0,1,10.21,68.14l-.14-.07.1.07a49.35,49.35,0,0,1-24,18.15c-.77.27-1.58.54-2.51.81a50.2,50.2,0,0,1-7.74,1.61A51.12,51.12,0,0,1,90.42,100.49Zm.06-99.14A49.46,49.46,0,0,0,79.42,99c.89.2,1.85.39,2.77.55a49.25,49.25,0,0,0,22.12-1.28c.9-.27,1.75-.54,2.51-.8a51.22,51.22,0,0,0,4.91-2,49.49,49.49,0,0,0,8.85-83.81c-.9-.67-1.79-1.34-2.74-2A49.66,49.66,0,0,0,98.18,2c-1.53-.24-3.08-.41-4.63-.5-.61,0-1.19-.07-1.79-.07H90.44Z" fill="#371a45"/><path d="M43,64.66A49.48,49.48,0,0,0,79.35,99.1c.9.21,1.86.39,2.79.56a49.34,49.34,0,0,0,22.17-1.29c.9-.25,1.68-.52,2.51-.8a52.48,52.48,0,0,0,4.92-2,49.24,49.24,0,0,0,19-16.06,50,50,0,0,0,6.27-12.07,49.36,49.36,0,0,1-23.29,17.16c-.82.29-1.66.55-2.51.81a49.6,49.6,0,0,1-14.33,2,50.08,50.08,0,0,1-7.83-.7c-.9-.17-1.86-.36-2.79-.56A49.61,49.61,0,0,1,49.23,26.56a52.65,52.65,0,0,1,1.58-5.38A49.54,49.54,0,0,0,43,64.66Z" fill="#371a45" opacity="0.35" style="isolation:isolate"/><path d="M90.42,101.31H90a50.69,50.69,0,0,1-8-.72c-.95-.17-1.9-.36-2.84-.57A50.51,50.51,0,0,1,91.8.31a13.94,13.94,0,0,1,1.79.08c1.57.1,3.17.27,4.72.52a50.51,50.51,0,0,1,20.08,7.85c1,.65,1.91,1.32,2.8,2A50.56,50.56,0,0,1,131.57,80l-.78-.54.77.54a50.29,50.29,0,0,1-19.42,16.36,47.65,47.65,0,0,1-5,2.06c-.77.28-1.61.55-2.55.83a51,51,0,0,1-14.16,2Zm.06-99.14a48.63,48.63,0,0,0-10.91,96c.89.22,1.79.4,2.73.56a47.18,47.18,0,0,0,7.69.69,48.87,48.87,0,0,0,14.06-2c.9-.27,1.71-.53,2.45-.8A48.65,48.65,0,0,0,120,12.27c-.85-.66-1.79-1.3-2.69-1.92A48.87,48.87,0,0,0,98,2.78c-1.51-.23-3-.4-4.56-.49-.59,0-1.17-.08-1.71-.08S90.88,2.17,90.48,2.17Z" fill="#371a45"/><path d="M90.42,101.58H90a51.82,51.82,0,0,1-8.06-.72c-1-.17-1.91-.36-2.85-.58A50.78,50.78,0,0,1,91.8,0,13.93,13.93,0,0,1,93.6.1c1.58.1,3.19.27,4.74.52a51.12,51.12,0,0,1,20.2,7.9c1,.65,1.91,1.33,2.81,2a50.72,50.72,0,0,1-14.14,88.14c-.78.28-1.61.55-2.56.84a52,52,0,0,1-7.92,1.64A53.2,53.2,0,0,1,90.42,101.58Zm.06-99.13A47.58,47.58,0,0,0,77,4.39a48.37,48.37,0,0,0,2.69,93.52c.89.21,1.79.4,2.69.56a47.53,47.53,0,0,0,14.09.3A48.4,48.4,0,0,0,104,97.21c.9-.27,1.7-.53,2.45-.79a48.36,48.36,0,0,0,13.46-83.91c-.85-.67-1.79-1.31-2.69-1.93A48.42,48.42,0,0,0,98,3.06c-1.49-.24-3-.4-4.54-.5-.59,0-1.16-.06-1.7-.07h-1.3Z" fill="#371a45"/><path d="M122.21,88.81C91,105.48,53.62,86.39,55.74,51.38c1.44-23.82,25.83-40.8,48.58-37.92,16.55,2.07,31.81,11.36,35.62,38,0,0-.14,12-4.3,19.57a113.68,113.68,0,0,1-9.5,14.1Z" fill="#371a45"/><path d="M55.74,51.38c-2.12,35,35.28,54.1,66.47,37.43l.8-.74c-32.33,1.79-61.59-21-60.1-56.44A37.35,37.35,0,0,0,55.74,51.38Z" fill="#220f2d"/><path d="M96.65,101.19h-.1c-13.89-.46-26.87-6.27-35.64-15.9C52.54,76.07,48.53,64.2,49.33,51,50.07,38.83,56,27.5,66.14,19.11,77.13,10,91.77,5.51,105.3,7.19a49.31,49.31,0,0,1,19.82,6.58l.11.07.1.08a50.82,50.82,0,0,1-13.06,82.7,54,54,0,0,1-5,2.07c-.77.27-1.61.54-2.56.83a51.9,51.9,0,0,1-7.91,1.64ZM99.54,9.28A50.63,50.63,0,0,0,67.68,21C58.1,29,52.45,39.65,51.75,51.13c-.76,12.55,3,23.8,11,32.52C71,92.79,83.3,98.29,96.54,98.76A49.26,49.26,0,0,0,104,97.21c.9-.27,1.71-.53,2.45-.79,1.63-.58,3.24-1.24,4.81-2a48.39,48.39,0,0,0,12.54-78.65A47.13,47.13,0,0,0,105,9.62,43.54,43.54,0,0,0,99.54,9.28Z" fill="#371a45"/><path d="M98.25,96.13a46.3,46.3,0,0,1-25.08-7.21C60.39,80.69,53.6,67,54.55,51.3c.65-10.86,6-21,15-28.47,9.86-8.16,22.87-12.12,34.94-10.61,21,2.63,33.34,15.76,36.67,39v.19c0,.5-.19,12.44-4.48,20.15a112.32,112.32,0,0,1-9.61,14.33l-.12.13-4,3.8-.13.07A52.3,52.3,0,0,1,98.25,96.13Zm1.07-81.78A44.85,44.85,0,0,0,71.08,24.71c-8.5,7.07-13.52,16.56-14.14,26.74-.89,14.77,5.5,27.69,17.53,35.46,13.62,8.76,31.62,9.12,47,1l3.75-3.51a113.87,113.87,0,0,0,9.32-13.9c3.79-6.84,4.12-17.81,4.15-18.91-3.17-22-14.8-34.38-34.55-36.86A39.38,39.38,0,0,0,99.32,14.35Z" fill="#371a45"/><path d="M44.5,67.07c-7-.89-11.73-9.52-10.48-19.23S42,31,49,31.92s11.73,9.52,10.47,19.23S51.54,68,44.5,67.07Z" fill="#fff"/><path d="M59.42,51.8a2.61,2.61,0,0,1-.11.61C57.52,62,50.52,68.53,43.58,66.9,38,65.6,34.16,59.39,33.84,52a23.66,23.66,0,0,1,.38-5.38C36,37,43,30.48,50,32.11,56.73,33.66,60.92,42.41,59.42,51.8Z" fill="#fff"/><path d="M59.42,51.8a2.61,2.61,0,0,1-.11.61C57.52,62,50.52,68.53,43.58,66.9,38,65.6,34.16,59.39,33.84,52l13.38-6.65s1.63,8,6.15,8.71A6.53,6.53,0,0,0,59.42,51.8Z" fill="#371a45" opacity="0.35" style="isolation:isolate"/><path d="M45.73,68.37a11.1,11.1,0,0,1-2.43-.27C35.77,66.31,31.16,56.61,33,46.38c1.08-6,4.1-10.94,8.26-13.67a11.31,11.31,0,0,1,9-1.79c7.54,1.79,12.15,11.49,10.28,21.72-1.11,5.94-4.09,10.92-8.28,13.67A11.85,11.85,0,0,1,45.73,68.37ZM35.41,46.8c-1.64,9,2.15,17.46,8.45,18.92a9,9,0,0,0,7.06-1.44c3.58-2.35,6.27-6.87,7.17-12.09,1.64-9-2.15-17.46-8.44-18.92a9,9,0,0,0-7.06,1.45C39,37.06,36.32,41.58,35.42,46.8Z" fill="#371a45"/><path d="M41.1,64.2c-5.75-.54-9.85-7.25-9.09-15s6-13.56,11.74-13,9.86,7.26,9.1,15S46.86,64.75,41.1,64.2Z" fill="#fff"/><path d="M41.82,64.37A8,8,0,0,1,37.42,63c-2.89-1.85-4.88-5.37-5.47-9.59-1-7.59,2.84-15.23,8.6-17a8.06,8.06,0,0,1,6.89.89c2.9,1.85,4.89,5.38,5.46,9.6,1,7.58-2.82,15.22-8.58,17A8.2,8.2,0,0,1,41.82,64.37ZM43,36.28a8.54,8.54,0,0,0-2.41.38c-5.65,1.76-9.39,9.28-8.34,16.76.56,4.17,2.51,7.6,5.38,9.41a7.76,7.76,0,0,0,6.69.89C50,61.93,53.73,54.44,52.72,47c-.56-4.18-2.51-7.61-5.38-9.42A7.86,7.86,0,0,0,43,36.28Z" fill="#371a45"/><path d="M51.06,57.84A16.71,16.71,0,0,0,52.46,50c-3,5.32-8.56,6.69-12.86,3a14.8,14.8,0,0,1-4.66-10.52,11.7,11.7,0,0,0-.54,1.06c-2.8,6.18-1.34,14.4,3.23,18.31S48.29,64,51.06,57.84Z" fill="#371a45" opacity="0.35" style="isolation:isolate"/><path d="M41.45,65.41a8.18,8.18,0,0,1-1.84-.21c-5.82-1.41-9.33-9.42-7.83-17.92.9-5,3.45-9.37,6.81-11.57a8.43,8.43,0,0,1,6.68-1.32c5.79,1.46,9.38,9.52,7.83,17.93-.9,5-3.45,9.38-6.81,11.58A8.79,8.79,0,0,1,41.45,65.41Zm2-28.75a6.47,6.47,0,0,0-3.53,1.14c-2.81,1.79-5,5.57-5.74,10-1.29,7.21,1.4,14,6,15.08a6,6,0,0,0,4.77-1c2.81-1.84,5-5.57,5.74-10,1.26-7.18-1.43-14-6-15.06A5.27,5.27,0,0,0,43.45,36.66Z" fill="#371a45"/><path d="M92.14,21.3s21,4,31.16,17.71h0a20.22,20.22,0,0,1,3.83,9.86,41.4,41.4,0,0,1-.25,11c-1.26,8.87-3.5,12.79-3.5,12.79,5.7-4,9.29-8.88,10.41-16.25.11-.73.19-1.48.25-2.26v-.54h0a48.12,48.12,0,0,0-.29-6c-.78-7.06-3.38-16.49-11.32-21.83C107.64,15.78,91.54,20.27,92.14,21.3Z" fill="#fff" opacity="0.7" style="isolation:isolate"/><path d="M70,47.34C66.89,46,65.56,42,67.17,38.24s5.39-5.56,8.53-4.18,4.48,5.38,2.87,9.09S73.19,48.68,70,47.34Z" fill="#fff" opacity="0.7" style="isolation:isolate"/><path d="M66,56.55a3,3,0,0,1,2.8-5.27A3,3,0,0,1,66,56.55Z" fill="#fff" opacity="0.7" style="isolation:isolate"/><path d="M187.67,120.79l-13.62,49-76.14,8.78,1.45-5.24,66.91-7.71a6.75,6.75,0,0,0,5.76-4.93l12.4-44.58a4.25,4.25,0,0,0,.14-.71,4.37,4.37,0,0,1,3.11,5.34Zm-89.76,58-2.53,4.23,4.12,1.21,68.08-7.59,3.83-2.5,1.11-4.13Z" fill="#371a45" opacity="0.2" style="isolation:isolate"/><path d="M50.44,161.59v1a6.27,6.27,0,0,0,4,5.87l36.78,14.11A36.56,36.56,0,0,0,106.6,184l58.49-6.75c5.43-.62,9.35-5.09,8.71-9.91L127,152.77Z" fill="#f92323"/><path d="M165.06,177.28,106.6,184a36.25,36.25,0,0,1-15.31-1.47L54.48,168.43a6.27,6.27,0,0,1-4-5.86v-1h.25a6.3,6.3,0,0,0,3.78,4.08l36.78,14.11a36.45,36.45,0,0,0,15.32,1.47l58.48-6.74a9.73,9.73,0,0,0,8.58-7.17h.12C174.41,172.19,170.48,176.66,165.06,177.28Z" fill="#371a45" opacity="0.35" style="isolation:isolate"/><path d="M174.22,169.83l-76.49,8.82-47.29-17,5.1-.63,71.4-8.23,23.1,8.34Z" fill="#33aef1"/><path d="M174.22,169.83l-76.49,8.82-47.29-17,5.1-.63,71.4-8.23,23.1,8.34Z" fill="#fff" opacity="0.6" style="isolation:isolate"/><path d="M174.22,169.83l-76.49,8.82-47.29-17,5.1-.63c16.78,3.81,58.59,11.14,94.5.11Z" fill="#371a45" opacity="0.2" style="isolation:isolate"/><path d="M97.73,179.86a1.14,1.14,0,0,1-.41-.07L50,162.73a1.22,1.22,0,0,1,.28-2.35l76.49-8.81a1,1,0,0,1,.54.06l47.28,17a1.21,1.21,0,0,1-.27,2.35l-76.48,8.81Zm-42-17.7,42.15,15.23,71.07-8.19L126.79,154Z" fill="#371a45"/><path d="M102.35,185.45a37.25,37.25,0,0,1-11.47-1.79h-.06L54,169.57a7.53,7.53,0,0,1-4.77-7v-1a1.21,1.21,0,0,1,1-1.22l76.5-8.81a1.17,1.17,0,0,1,.49,0l46.83,14.6a1.21,1.21,0,0,1,.84,1,9.3,9.3,0,0,1-2,7,11.59,11.59,0,0,1-7.81,4.28l-58.48,6.74A37.35,37.35,0,0,1,102.35,185.45Zm-10.69-4.07a35.34,35.34,0,0,0,14.77,1.41l58.48-6.73a9.08,9.08,0,0,0,6.17-3.36,7,7,0,0,0,1.54-4.48L126.81,154l-75.16,8.66a5.09,5.09,0,0,0,3.25,4.63Z" fill="#371a45"/><path d="M187.68,120.87l-13.63,49-31.17,3.58-10.66,1.27-5.81.68-11,1.27-17.44,2,14.58-52.41a4.34,4.34,0,0,1,3.7-3.17l59.12-6.81,5.62-.68,2-.23a4.38,4.38,0,0,1,4.84,3.85,4.5,4.5,0,0,1-.14,1.67Z" fill="#33aef1"/><path d="M187.78,119l-44.9,54.43-10.66,1.25c16.12-17.8,42.7-47.19,53.2-58.9A4.37,4.37,0,0,1,187.78,119ZM181,115.58l-54.53,59.75-11,1.28c17.21-17.3,47.66-47.93,59.91-60.38Z" fill="#fff" opacity="0.25" style="isolation:isolate"/><path d="M159.73,141.93a8.59,8.59,0,0,0,.05-2.63l-.22-.29a6.86,6.86,0,0,0-.76-.27,16.15,16.15,0,0,0-5.58-.5,11.9,11.9,0,0,0-6.66,2.54c-.71.56-1.36,1.21-2,1.79a.44.44,0,0,1-.55.13,4.94,4.94,0,0,0-1.85-.42,8,8,0,0,0-4.66,1.37,16.88,16.88,0,0,0-3.93,3.66.9.9,0,0,0,0,1.27,1,1,0,0,0,.4.22l1.39.45,3.31,1.07v.13a1.18,1.18,0,0,0,.11,1.65l0,0,.14.19c.25.34.51.67.79,1-.37.28-.74.52-1.06.81a1.35,1.35,0,0,0-.36.58.76.76,0,0,0,.38.89.8.8,0,0,0,.95,0c.38-.27.74-.56,1.14-.89.35.48.7.94,1.05,1.39a1,1,0,0,0,1.29.43l.36-.09v.34c.07,1.59.14,3.2.23,4.79a.9.9,0,0,0,.9.9.92.92,0,0,0,.43-.11c.61-.29,1.23-.59,1.79-.9a12.09,12.09,0,0,0,3.67-2.92,6.54,6.54,0,0,0,1.64-5.37.32.32,0,0,1,.12-.26c.63-.4,1.26-.77,1.88-1.18a11.11,11.11,0,0,0,3.41-3.58A14.67,14.67,0,0,0,159.73,141.93Zm-20.12,6.92-4-1.3a10.61,10.61,0,0,1,4.9-3.35,4.26,4.26,0,0,1,2.45,0Q141.31,146.56,139.61,148.85Zm10.75,6.59a6.61,6.61,0,0,1-1.72,2.64,14.07,14.07,0,0,1-3.25,2.25c-.07-1.48-.14-2.92-.21-4.33l5.37-2.09a3.46,3.46,0,0,1-.19,1.53Zm6.67-9.86a10.68,10.68,0,0,1-2.44,3.67,13.79,13.79,0,0,1-2.79,2,42.38,42.38,0,0,1-8.61,3.5.29.29,0,0,1-.33-.1c-.22-.31-.45-.59-.67-.9a.3.3,0,0,1,0-.1l.24-.18c1.7-1.3,3.41-2.6,5.12-3.92a.9.9,0,1,0-1-1.37l-3.06,2.34-2.31,1.79c-.27-.35-.53-.68-.77-1a.37.37,0,0,1,.06-.29c.89-1.36,1.79-2.69,2.75-4.05a25.09,25.09,0,0,1,3.16-3.67,11.48,11.48,0,0,1,3.72-2.55,10.74,10.74,0,0,1,2.84-.7.41.41,0,0,1,.28.15l3,3.88c.29.38.58.78.89,1.15a.32.32,0,0,1,0,.37Zm.59-1.79L154.71,140a.14.14,0,0,1,0-.09l3.38.41a15.79,15.79,0,0,1-.42,3.49Z" fill="#371a45"/><path d="M157,145.23c-.3-.38-.59-.78-.89-1.16-1-1.29-2-2.59-3-3.88-.06-.08-.18-.17-.27-.15a10.72,10.72,0,0,0-2.85.7,11.25,11.25,0,0,0-3.72,2.56,24.5,24.5,0,0,0-3.16,3.66c-.94,1.34-1.84,2.69-2.75,4a.37.37,0,0,0-.06.29c.25.35.5.67.77,1l2.31-1.79,3.07-2.36a.9.9,0,1,1,1,1.37l-5.07,4-.25.19.05.09c.22.29.46.58.66.89.09.14.18.15.33.1a41.78,41.78,0,0,0,8.61-3.49,14.25,14.25,0,0,0,2.81-2,10.58,10.58,0,0,0,2.42-3.66A.29.29,0,0,0,157,145.23Zm-3,2a2.94,2.94,0,1,1,.51-4.12l0,0A2.94,2.94,0,0,1,154,147.2Z" fill="#fff"/><path d="M157.67,143.77,154.75,140v-.09l3.38.41A15.76,15.76,0,0,1,157.67,143.77Zm-14.63.45-3.4,4.63-4-1.29a10.63,10.63,0,0,1,4.9-3.36,4.16,4.16,0,0,1,2.42.05Zm5.65,13.86a14,14,0,0,1-3.25,2.25c-.07-1.47-.15-2.92-.22-4.33l5.38-2.09a3.74,3.74,0,0,1-.17,1.52,6.38,6.38,0,0,1-1.78,2.65Z" fill="#db2c2c"/><path d="M154.54,143.1a2.93,2.93,0,1,0-.54,4.11h0a2.91,2.91,0,0,0,.53-4.09Zm-1.41,3a1.56,1.56,0,1,1,.61-1,1.5,1.5,0,0,1-.61,1Z" fill="#371a45"/><path d="M153.13,146.12a1.56,1.56,0,1,1,.61-1A1.5,1.5,0,0,1,153.13,146.12Z" fill="#22a7f0"/><path d="M187.41,119.1a4.2,4.2,0,0,0-1.12,0l-66.75,7.7a4.35,4.35,0,0,0-3.7,3.16l-13.27,47.66-5,.59,14.57-52.42a4.36,4.36,0,0,1,3.7-3.16l66.76-7.7a4.35,4.35,0,0,1,4.83,3.83Z" fill="#fff" opacity="0.6" style="isolation:isolate"/><path d="M97.94,179.84a1.2,1.2,0,0,1-1.24-1.16,1,1,0,0,1,0-.39l14.57-52.41a5.57,5.57,0,0,1,4.73-4l66.76-7.69A5.57,5.57,0,0,1,189,119a5.35,5.35,0,0,1-.17,2.14l-13.6,49a1.2,1.2,0,0,1-1,.89L98,179.89Zm85.54-63.3h-.37l-66.76,7.69a3.14,3.14,0,0,0-2.69,2.3L99.59,177.21l73.51-8.47,13.44-48.2a3.15,3.15,0,0,0-2.19-3.88,2.92,2.92,0,0,0-.83-.12Z" fill="#371a45"/><path d="M42.82,102.85s2,20.79,12.78,34.46c10.53,13.33,21.94,13.88,21.94,13.88s3.68,7.86,8.53,9.49,14.15-.6,16.13-8.39c2.1-8.22.07-20.25-6.56-21.73s-31.76-8.71-32.88-32.9" fill="#fff"/><path d="M102.21,152.31c-2,7.79-11.25,10.05-16.12,8.39s-8.52-9.49-8.52-9.49-11.42-.55-21.95-13.88c-7-8.89-10.33-20.77-11.72-28,1.9,6.55,5,14.28,9.91,20.51,10.49,13.35,21.91,13.89,21.91,13.89s3.69,7.86,8.49,9.49,14.15-.6,16.12-8.39a28.25,28.25,0,0,0,.7-9.16C103.22,140.26,103.55,147.05,102.21,152.31Z" fill="#371a45" opacity="0.35" style="isolation:isolate"/><path d="M43.22,102.81c1.52,5.11,2.61,10.23,4.21,15.23l.59,1.88.64,1.85c.4,1.25.9,2.44,1.42,3.66.25.6.53,1.18.8,1.79l.42.89.2.45.23.43c.63,1.14,1.2,2.31,1.92,3.39l1,1.61,1.13,1.57c.73,1.06,1.62,2,2.44,3a8.83,8.83,0,0,0,.65.71l.67.71a17.71,17.71,0,0,0,1.38,1.36l1.42,1.31,1.51,1.21a34.16,34.16,0,0,0,6.54,4A27.29,27.29,0,0,0,74,149.23l.89.26.9.21c.3.06.62.13.9.17a6.73,6.73,0,0,0,.89.1l.73.05.31.65a28.8,28.8,0,0,0,1.58,2.81,26.65,26.65,0,0,0,1.88,2.62,16.33,16.33,0,0,0,2.2,2.2l.61.44c.21.14.41.25.63.38a3,3,0,0,0,.63.29l.33.14.34.1a12,12,0,0,0,6-.11,12.59,12.59,0,0,0,5.38-2.86,9.81,9.81,0,0,0,1.84-2.36,9.29,9.29,0,0,0,.62-1.36c.09-.23.17-.47.24-.71s.13-.51.19-.77a26.52,26.52,0,0,0,.63-6.41,25.44,25.44,0,0,0-.9-6.37A12.54,12.54,0,0,0,98,133.33a5.43,5.43,0,0,0-2.33-1.46l-.32-.09-.41-.1-.84-.2c-.56-.14-1.12-.29-1.67-.45A59.45,59.45,0,0,1,86,128.76a49.17,49.17,0,0,1-11.93-6.91,35.89,35.89,0,0,1-5-4.85,34.18,34.18,0,0,1-4-5.78,23.5,23.5,0,0,1-2.54-6.56,17.6,17.6,0,0,1-.2-7,.39.39,0,0,1,.38-.33.39.39,0,0,1,.42.29h0c.69,2.19,1.19,4.3,1.79,6.37.17.51.33,1,.48,1.54s.38,1,.56,1.53a30.82,30.82,0,0,0,1.29,3,26.94,26.94,0,0,0,3.58,5.38A34,34,0,0,0,75.54,120a46.58,46.58,0,0,0,11.36,6.55,57.32,57.32,0,0,0,6.27,2.17l1.59.43.8.19.41.09.48.14a8,8,0,0,1,3.35,2.07,15,15,0,0,1,3.43,6.44,28.4,28.4,0,0,1,1,7,28.93,28.93,0,0,1-.69,7c-.07.3-.12.57-.22.9s-.18.6-.29.89a11,11,0,0,1-.78,1.71,12.4,12.4,0,0,1-2.31,2.94,14.67,14.67,0,0,1-6.41,3.44,15.55,15.55,0,0,1-3.59.51,12.85,12.85,0,0,1-3.7-.4l-.46-.14-.46-.18a6.6,6.6,0,0,1-.89-.42c-.27-.17-.56-.32-.83-.5l-.75-.54a19,19,0,0,1-2.59-2.56,30.47,30.47,0,0,1-2.06-2.86,34.57,34.57,0,0,1-1.73-3.08l1,.69a8.39,8.39,0,0,1-1.11-.13c-.37-.05-.7-.13-1.05-.19l-1-.24-1-.28a27.86,27.86,0,0,1-3.87-1.49,36,36,0,0,1-7-4.27l-1.6-1.29-1.51-1.39c-.51-.44-1-1-1.45-1.44l-.71-.73c-.24-.25-.48-.5-.69-.76A36.85,36.85,0,0,1,53.88,137l-1.2-1.65-1.09-1.74a68,68,0,0,1-6.65-14.79A61.22,61.22,0,0,1,43,111c-.13-.67-.22-1.34-.31-2s-.16-1.34-.21-2a26.21,26.21,0,0,1,0-4.06.4.4,0,0,1,.36-.38.39.39,0,0,1,.43.29Z" fill="#371a45"/><path d="M77.54,152.25a1,1,0,0,1-1-.68c-1.2-3.21-2.69-3.06-2.79-3.06h0l-.43-2.1c.14,0,3.31-.62,5.18,4.4a1.06,1.06,0,0,1-1,1.44Z" fill="#371a45"/><path d="M34.67,161.83s-.75-11.77,2.06-16.8c4.7-8.43,14.91-5.93,18.42-4.41,5,2.18-10.63,37-10.63,37" fill="#fff"/><path d="M30.9,157.19a39.06,39.06,0,0,1,.65-4.7,37.6,37.6,0,0,1,1.23-4.66c.26-.77.56-1.52.89-2.26.17-.37.33-.74.52-1.11a11.79,11.79,0,0,1,.59-1.1,11.3,11.3,0,0,1,3.58-3.7,12.69,12.69,0,0,1,4.75-1.79,19.61,19.61,0,0,1,5-.2,26.41,26.41,0,0,1,4.82.9,22.13,22.13,0,0,1,2.34.78l.29.11.15.07.25.12a2.36,2.36,0,0,1,.81.76,3.66,3.66,0,0,1,.59,1.59,11,11,0,0,1,0,2.69c-.08.81-.2,1.62-.36,2.42-.32,1.59-.73,3.13-1.17,4.65-.89,3.05-1.92,6-3,9s-2.25,5.87-3.46,8.76-2.45,5.77-3.78,8.63a1.07,1.07,0,1,1-1.95-.9h0q1.8-4.28,3.58-8.63t3.35-8.72c1.08-2.91,2.07-5.86,2.93-8.81.43-1.48.81-3,1.11-4.48.15-.75.27-1.48.35-2.21a8.53,8.53,0,0,0,0-2,1.65,1.65,0,0,0-.18-.61h0l-.39-.16a21.4,21.4,0,0,0-2.09-.71,25.2,25.2,0,0,0-4.39-.84,16.76,16.76,0,0,0-4.36.11,10.54,10.54,0,0,0-4,1.43,9.14,9.14,0,0,0-2.91,3c-.18.3-.36.62-.54.95s-.34.67-.51,1c-.31.68-.62,1.38-.9,2.08-1.14,2.83-2.07,5.79-3,8.77h0a.37.37,0,0,1-.41.25.36.36,0,0,1-.3-.39Z" fill="#371a45"/><path d="M41.76,183.4S37.82,183,36,177.08s1.27-13,2-19.71c1.16-11.39,5.55-17.73,15.3-17.09,9.47.61,7,14.45,5.3,21.38C56.11,172,52.4,184,41.76,183.4Z" fill="#afafb2"/><path d="M57.52,165.84C55,174.93,51,183.94,41.76,183.4c0,0-3.94-.43-5.71-6.32-1.47-4.87.34-10.53,1.4-16.13a17.13,17.13,0,0,0,.55,6.13c2,6.55,6.35,7,6.35,7C50.56,174.45,54.65,170.92,57.52,165.84Z" fill="#371a45" opacity="0.35" style="isolation:isolate"/><path d="M35.52,175a.95.95,0,0,1,0-1.9h0L54.65,173a1,1,0,0,1,.94,1,.94.94,0,0,1-.94.94L35.51,175Zm.9-8a1,1,0,0,1-1-1,.93.93,0,0,1,.93-.95h0l21.1-.14h0a.95.95,0,1,1,0,1.89L36.41,167ZM38,158.81a1,1,0,0,1,0-1.9l21.5-.14h0a.95.95,0,0,1,0,1.9Zm1.8-8.81a1,1,0,1,1,0-1.9L60.15,148a.95.95,0,0,1,0,1.9h0L39.78,150Z" fill="#371a45"/><path d="M58.61,161.6c1.26-7.17,1.5-16.48-6.28-17s-12,3.39-14.07,10.63c1.48-10,5.91-15.52,15-14.93C62.71,140.9,60.28,154.65,58.61,161.6Z" fill="#fff" opacity="0.7" style="isolation:isolate"/><path d="M38.26,155.22c-.11.69-.2,1.42-.27,2.16a80.33,80.33,0,0,1-1.52,8.28c.26-1.33.47-2.64.61-3.95A36.85,36.85,0,0,1,38.26,155.22Z" fill="#fff"/><path d="M39.35,150.29c-.4,1.91-.84,3.82-1.2,5.69A34.47,34.47,0,0,1,39.35,150.29ZM38.15,156c-.06.46-.12.93-.16,1.4-.12,1.18-.31,2.37-.54,3.58A42,42,0,0,1,38.15,156Z" fill="#371a45" opacity="0.35" style="isolation:isolate"/><path d="M42.54,184.64h-1c-.18,0-4.75-.58-6.74-7.17-1.28-4.23-.26-9,.72-13.52a62.1,62.1,0,0,0,1.18-6.65c1.31-12.87,6.74-18.81,16.59-18.18a7.55,7.55,0,0,1,5.91,3.06c2.69,3.63,2.83,10.11.49,19.82C57.84,169.94,54.29,184.64,42.54,184.64Zm-.67-2.45c9.57.53,13-10.46,15.54-20.8,2.69-11,1.43-15.76-.08-17.82a5.19,5.19,0,0,0-4.12-2.07c-8.51-.55-12.83,4.39-14,16A64.8,64.8,0,0,1,38,164.43c-1,4.48-1.86,8.67-.77,12.3,1.46,4.8,4.43,5.42,4.68,5.46Z" fill="#371a45"/><path d="M42.54,184.37h-.87c-.19,0-4.59-.56-6.54-7-1.25-4.16-.25-8.85.73-13.38a60.85,60.85,0,0,0,1.19-6.69c1.29-12.71,6.62-18.57,16.31-17.92a7.29,7.29,0,0,1,5.71,3c2.59,3.52,2.69,10.11.44,19.6C57.59,169.8,54.08,184.37,42.54,184.37Zm-.69-1.92c9.78.56,13.3-10.55,15.82-21,2.69-11.11,1.41-15.94-.12-18a5.45,5.45,0,0,0-4.32-2.18c-8.57-.56-13.11,4.6-14.33,16.24a62.31,62.31,0,0,1-1.23,6.9c-1,4.48-1.87,8.74-.76,12.43C38.46,181.81,41.55,182.41,41.85,182.45ZM26.62,165.69a11.9,11.9,0,0,1,1.91,1.3,15.87,15.87,0,0,1,1.66,1.62,11.62,11.62,0,0,1,1.4,1.88,8.2,8.2,0,0,1,.89,2.19,1,1,0,0,1-.56,1.12.94.94,0,0,1-1.18-.41v-.06c-.35-.6-.62-1.23-.94-1.85s-.63-1.25-1-1.87c-.7-1.26-1.5-2.48-2.35-3.71h0a.15.15,0,0,1,0-.2.16.16,0,0,1,.15,0Z" fill="#371a45"/><path d="M92.37,119.63c0,.55-1.2,4.94-1.2,4.94L88,124.31c-2.16-.18-3.71-2.58-3.48-5.37s2.17-4.86,4.33-4.68l3.14.27S92.44,118.73,92.37,119.63Z" fill="#22a7f0"/><path d="M92.37,119.63c0,.55-1.2,4.94-1.2,4.94h-.1c.32-1.27.69-2.77.72-3.08.07-.89-.35-5.07-.35-5.07l-3.14-.27a4,4,0,0,0-3.71,2.4c.39-2.55,2.23-4.42,4.29-4.24l3.14.27S92.44,118.73,92.37,119.63Z" fill="#fff"/><path d="M92.37,119.63c0,.55-1.2,4.94-1.2,4.94L88,124.31c-2.16-.18-3.71-2.57-3.49-5.37a5.8,5.8,0,0,1,.44-1.79,3.94,3.94,0,0,0,3.26,3.06l3.14.27.9-3.41A21.83,21.83,0,0,1,92.37,119.63Z" fill="#371a45" opacity="0.35" style="isolation:isolate"/><path d="M90.31,125.43h-.17L88,125.25a4.46,4.46,0,0,1-3.32-2.11,7,7,0,0,1,.69-8.2A4.49,4.49,0,0,1,89,113.42l2.19.19A2,2,0,0,1,93,115.46a36.06,36.06,0,0,1,.26,4.29,34.74,34.74,0,0,1-1,4.15A2,2,0,0,1,90.31,125.43Zm-1.69-10.21a2.72,2.72,0,0,0-2,1,5.2,5.2,0,0,0-.5,6,2.7,2.7,0,0,0,2,1.29l2.18.19a.24.24,0,0,0,.24-.18,39.1,39.1,0,0,0,.9-3.86,35,35,0,0,0-.26-4,.24.24,0,0,0-.22-.21l-2.18-.18Z" fill="#371a45"/><path d="M91.17,124.54c-2.16-.18-3.72-2.57-3.49-5.33s2.18-4.87,4.34-4.68,3.73,2.57,3.48,5.38S93.34,124.76,91.17,124.54Z" fill="#22a7f0"/><path d="M95.5,119.9a5.45,5.45,0,0,1-.16,1c-.16-2.32-1.59-4.18-3.49-4.35s-3.58,1.44-4.18,3.71a8.18,8.18,0,0,1,0-1c.24-2.77,2.18-4.86,4.34-4.68S95.74,117.14,95.5,119.9Z" fill="#fff"/><path d="M95.5,119.9c-.23,2.77-2.17,4.85-4.33,4.67s-3.72-2.57-3.49-5.37a6.6,6.6,0,0,1,.46-1.9,3.66,3.66,0,0,0,7.22.62A6,6,0,0,1,95.5,119.9Z" fill="#371a45" opacity="0.35" style="isolation:isolate"/><path d="M91.43,125.5H91.1a4.41,4.41,0,0,1-3.31-2.13,7,7,0,0,1,.7-8.19,4.25,4.25,0,0,1,7,.58,6.8,6.8,0,0,1,1,4.22C96.15,123.1,94,125.5,91.43,125.5Zm.32-10a2.7,2.7,0,0,0-2,1,5.16,5.16,0,0,0-.5,6,2.69,2.69,0,0,0,2,1.3c1.66.13,3.16-1.59,3.35-3.84a4.87,4.87,0,0,0-.71-3.07,2.62,2.62,0,0,0-2-1.29Z" fill="#371a45"/></svg>