<svg xmlns="http://www.w3.org/2000/svg" viewBox="0 0 147.02 230"><path d="M67.06,2.13C45.92,2.15,28.63,19.79,28.63,41V53.89a1.92,1.92,0,0,0,3.83,0v-13c0-19.21,15.7-35.11,34.88-35a34.63,34.63,0,0,1,34.37,34.65V53.89a1.92,1.92,0,0,0,3.83,0V40.62A38.52,38.52,0,0,0,67.06,2.13Z" fill="#b8c5d3"/><path d="M103.62,56a2.1,2.1,0,0,1-2.09-2.09V40.62A34.45,34.45,0,0,0,67.35,6.15h-.26a34,34,0,0,0-24.1,10A34.65,34.65,0,0,0,32.64,40.93v13a2.1,2.1,0,0,1-4.19,0V41A38.91,38.91,0,0,1,39.79,13.49,38.13,38.13,0,0,1,67.06,2h0a38.7,38.7,0,0,1,38.64,38.66V53.89A2.1,2.1,0,0,1,103.62,56ZM67.09,5.79h.26a34.83,34.83,0,0,1,34.54,34.83V53.89a1.74,1.74,0,0,0,3.47,0V40.62A38.34,38.34,0,0,0,67.08,2.31h0A38.51,38.51,0,0,0,28.81,41V53.89a1.74,1.74,0,0,0,3.47,0v-13a35,35,0,0,1,10.45-25A34.39,34.39,0,0,1,67.09,5.79Z" fill="#102770"/><path d="M32.05,36.69a1.84,1.84,0,0,1-1.83-1.84V30A38.2,38.2,0,0,0,28.63,41V53.89a1.92,1.92,0,0,0,3.83,0v-13a35.64,35.64,0,0,1,.27-4.38A1.76,1.76,0,0,1,32.05,36.69Zm71.9-7v5.19a1.82,1.82,0,0,1-.54,1.3,1.81,1.81,0,0,1-1.94.42,34.13,34.13,0,0,1,.24,4V53.89a1.91,1.91,0,0,0,3.82,0V40.62A38.38,38.38,0,0,0,104,29.66Z" fill="#293856"/><path d="M103.62,56a2.09,2.09,0,0,1-2.09-2.09V40.62a36.16,36.16,0,0,0-.23-4l0-.3.28.11a1.67,1.67,0,0,0,1.75-.38,1.65,1.65,0,0,0,.48-1.17V28.43l.35,1.18a38.33,38.33,0,0,1,1.59,11V53.89A2.08,2.08,0,0,1,103.62,56Zm-1.94-19.16a34.43,34.43,0,0,1,.21,3.8V53.89a1.74,1.74,0,0,0,3.47,0V40.62A38.28,38.28,0,0,0,104.13,31v3.88a2,2,0,0,1-.59,1.43A2.06,2.06,0,0,1,101.68,36.82ZM30.54,56a2.09,2.09,0,0,1-2.09-2.09V41A38.9,38.9,0,0,1,30,30l.35-1.18v6.07a1.67,1.67,0,0,0,1.66,1.66,1.58,1.58,0,0,0,.61-.12l.29-.12,0,.31a35,35,0,0,0-.27,4.35v13A2.1,2.1,0,0,1,30.54,56ZM30,31.32A38.13,38.13,0,0,0,28.81,41V53.89a1.74,1.74,0,0,0,3.47,0v-13a35.44,35.44,0,0,1,.24-4.12,1.48,1.48,0,0,1-.47,0,2,2,0,0,1-2-2Z" fill="#102770"/><path d="M103.62,56.77a2.88,2.88,0,0,1-2.87-2.88V40.62A33.68,33.68,0,0,0,67.34,6.93h-.25a33.2,33.2,0,0,0-23.55,9.8,33.85,33.85,0,0,0-10.12,24.2v13a2.88,2.88,0,1,1-5.75,0V41a39.65,39.65,0,0,1,11.57-28A38.88,38.88,0,0,1,67.06,1.17h0A39.49,39.49,0,0,1,106.5,40.62V53.89A2.89,2.89,0,0,1,103.62,56.77ZM67.09,5h.26a35.6,35.6,0,0,1,35.32,35.62V53.89a.95.95,0,1,0,1.9,0V40.62A37.54,37.54,0,0,0,67.08,3.1h0A37.72,37.72,0,0,0,29.59,41V53.89a.95.95,0,0,0,1.9,0v-13A35.8,35.8,0,0,1,42.18,15.36,35.14,35.14,0,0,1,67.09,5Z" fill="#102770"/><path d="M33.35,60.61H31.14V31.37h9.42V60.61H33.35Z" fill="#b8c5d3"/><path d="M38.35,60.79h-5A2.39,2.39,0,0,1,31,58.4V33.59a2.4,2.4,0,0,1,2.39-2.4h5a2.4,2.4,0,0,1,2.39,2.4V58.4A2.39,2.39,0,0,1,38.35,60.79Zm-5-29.24a2,2,0,0,0-2,2V58.4a2,2,0,0,0,2,2h5a2,2,0,0,0,2-2V33.59a2,2,0,0,0-2-2Z" fill="#102770"/><path d="M38.35,31.37h-5a2.21,2.21,0,0,0-2.21,2.22v2.5a2.2,2.2,0,0,1,2.21-2.21h5a2.21,2.21,0,0,1,2.21,2.21v-2.5A2.21,2.21,0,0,0,38.35,31.37Z" fill="#fff" opacity="0.6" style="isolation:isolate"/><path d="M31.14,56.84H28.77a3.42,3.42,0,0,1-2.42-1,3.46,3.46,0,0,1-1-2.42V38.57a3.42,3.42,0,0,1,3.42-3.42h2.37Z" fill="#ffb200"/><path d="M26.07,40.72a3.43,3.43,0,0,1,3.42-3.43h1.65V35.15H28.77a3.42,3.42,0,0,0-3.42,3.42V53.42a3.39,3.39,0,0,0,.72,2.09Z" fill="#fff" opacity="0.6" style="isolation:isolate"/><path d="M37.44,61.65H34.26a4.17,4.17,0,0,1-4.16-4.17v-23a4.17,4.17,0,0,1,4.16-4.17h3.18A4.17,4.17,0,0,1,41.6,34.5v23A4.17,4.17,0,0,1,37.44,61.65ZM34.26,32.41a2.09,2.09,0,0,0-2.08,2.09v23a2.08,2.08,0,0,0,2.08,2.09h3.18a2.09,2.09,0,0,0,2.08-2.09v-23a2.08,2.08,0,0,0-2.08-2.08Z" fill="#102770"/><path d="M32.18,57.88H28.77a4.47,4.47,0,0,1-4.46-4.46V38.57a4.47,4.47,0,0,1,4.46-4.46h3.41ZM28.77,36.19a2.39,2.39,0,0,0-2.38,2.38V53.42a2.39,2.39,0,0,0,2.38,2.38H30.1V36.19Z" fill="#102770"/><path d="M100.82,31.37H103V60.61H93.6V31.37h7.22Z" fill="#b8c5d3"/><path d="M100.82,60.79h-5a2.39,2.39,0,0,1-2.39-2.39V33.59a2.4,2.4,0,0,1,2.39-2.4h5a2.4,2.4,0,0,1,2.39,2.4V58.4A2.39,2.39,0,0,1,100.82,60.79Zm-5-29.24a2,2,0,0,0-2,2V58.4a2,2,0,0,0,2,2h5a2,2,0,0,0,2-2V33.59a2,2,0,0,0-2-2Z" fill="#102770"/><path d="M95.88,31.37h5a2.22,2.22,0,0,1,2.21,2.22v2.5a2.21,2.21,0,0,0-2.21-2.21h-5a2.21,2.21,0,0,0-2.21,2.21v-2.5A2.21,2.21,0,0,1,95.88,31.37Z" fill="#fff" opacity="0.6" style="isolation:isolate"/><path d="M103,35.15h2.37a3.42,3.42,0,0,1,3.41,3.42V53.42a3.41,3.41,0,0,1-3.41,3.42H103Z" fill="#ffb200"/><path d="M108.16,40.72a3.43,3.43,0,0,0-3.42-3.43h-1.65V35.15h2.37a3.42,3.42,0,0,1,3.42,3.42V53.42a3.39,3.39,0,0,1-.72,2.09Z" fill="#fff" opacity="0.6" style="isolation:isolate"/><path d="M40.56,47.16V58.4a2.21,2.21,0,0,1-2.21,2.21h-5a2.21,2.21,0,0,1-2.21-2.21V46.19c0,1.21.38,3.18,1.68,3.18,2,0,2.84-3.62,2.84-3.62s.56,3.36,2.16,3.62C40,49.72,40.56,48.38,40.56,47.16Zm53,0V58.4a2.21,2.21,0,0,0,2.21,2.21h5A2.21,2.21,0,0,0,103,58.4V46.19c0,1.21-.38,3.18-1.68,3.18-2,0-2.84-3.62-2.84-3.62s-.56,3.36-2.16,3.62C94.18,49.72,93.6,48.38,93.6,47.16Z" fill="#102770" opacity="0.3" style="isolation:isolate"/><path d="M31.14,47.37v9.47H28.77a3.42,3.42,0,0,1-3.42-3.42V46.27a1.93,1.93,0,0,0,0,.24,2.85,2.85,0,0,0,4.86,1.75Zm77.67-1.1v7.15a3.42,3.42,0,0,1-3.41,3.42H103V46.27l1,1.46a2.62,2.62,0,0,0,4.77-1.4Z" fill="#102770" opacity="0.3" style="isolation:isolate"/><path d="M99.9,61.65H96.73a4.17,4.17,0,0,1-4.17-4.17v-23a4.17,4.17,0,0,1,4.17-4.16H99.9a4.17,4.17,0,0,1,4.17,4.16v23A4.17,4.17,0,0,1,99.9,61.65ZM96.73,32.41a2.1,2.1,0,0,0-2.09,2.09v23a2.1,2.1,0,0,0,2.09,2.09H99.9A2.09,2.09,0,0,0,102,57.48v-23a2.08,2.08,0,0,0-2.09-2.08Z" fill="#102770"/><path d="M105.4,57.88H102V34.11h3.41a4.46,4.46,0,0,1,4.45,4.46V53.42A4.46,4.46,0,0,1,105.4,57.88Zm-1.33-2.08h1.33a2.39,2.39,0,0,0,2.38-2.38V38.57a2.39,2.39,0,0,0-2.38-2.38h-1.33Z" fill="#102770"/><path d="M117.71,149.79a49,49,0,0,1-3.35,13.8,48.43,48.43,0,0,1-73.47,21,241.63,241.63,0,0,0,39.83-14.24A242.72,242.72,0,0,0,117.71,149.79Z" fill="#ffb200"/><path d="M80.72,170.31a242.72,242.72,0,0,0,37-20.52,48.2,48.2,0,0,1-.9,5.86c-7.77,5.65-20.18,12.62-34.63,19.16-13.83,6.26-26.73,10.86-36,13.09a48.21,48.21,0,0,1-5.26-3.35A241.63,241.63,0,0,0,80.72,170.31Z" fill="#d66b09"/><path d="M115.75,131.07c-7.89,6.37-23.45,15.3-42,23.72S38.13,169,28.14,170.71a48.63,48.63,0,0,1-2.83-5.34,2.18,2.18,0,0,1-.11-.27c-.37-.81-.71-1.64-1-2.47a50.78,50.78,0,0,1-1.83-5.89c0-.09,0-.17-.05-.25a48.29,48.29,0,0,1,.85-25.33,49.18,49.18,0,0,1,5.08-11.23,48.25,48.25,0,0,1,21.27-18.71c.91-.41,1.82-.79,2.74-1.15a48.26,48.26,0,0,1,36.83,1l.22.09a48,48,0,0,1,18.84,15c.18.23.36.47.53.71l.43.6a46.3,46.3,0,0,1,3.21,5.27c.37.68.71,1.37,1,2.08l.27.58A49.52,49.52,0,0,1,115.75,131.07Z" fill="#ffb200"/><path d="M113.33,124.83l.27.58a49.52,49.52,0,0,1,2.15,5.66c-7.88,6.38-23.45,15.3-42,23.72S38.13,169,28.14,170.72a49.7,49.7,0,0,1-2.83-5.35c0-.09-.08-.17-.11-.26,9.47-1.05,26.75-6.66,45.71-15.24C90.62,141,106.73,131.27,113.33,124.83ZM21.7,148.73l-.71,0,.11-2.15c6.69.35,24.06-5.16,42.26-13.4,19.17-8.67,35.35-18.6,38.46-23.59l1.82,1.13c-3.36,5.4-19.56,15.44-39.39,24.42C46.07,143.35,29.2,148.73,21.7,148.73Zm1.6-16.51L23,130.1c7.47-1.11,20.4-5.55,33.75-11.6,14-6.33,26.1-13.32,31.61-18.25l1.43,1.6c-5.66,5.07-18,12.19-32.16,18.61C44.11,126.58,31,131.08,23.3,132.22Zm-.94,25.35h-.08v-2.15h.07c7.7,0,25.58-5.76,44.57-14.35,20-9,36.79-19.26,40.85-24.82l1.74,1.26c-4.33,5.93-21.09,16.18-41.71,25.51C48.58,151.73,30.33,157.57,22.36,157.57Zm31.07,34.09,0-.53-.28-.46.11-.07h.13c6.58-.47,19.11-4.52,31.92-10.32S109.15,167.9,114,163.21l.75.77c-4.91,4.77-16,11.39-29,17.27S60.23,191.17,53.43,191.66Z" fill="#d66b09"/><path d="M69.48,194.93a49.58,49.58,0,0,1-29.22-9.51l-1.85-1.35,2.22-.56a240.72,240.72,0,0,0,39.65-14.18A241.8,241.8,0,0,0,117.1,148.9l1.89-1.3-.21,2.28a49.5,49.5,0,0,1-49.3,45.05ZM43.43,185a47.38,47.38,0,0,0,72.95-33,247.63,247.63,0,0,1-35.22,19.3A247.82,247.82,0,0,1,43.43,185Z" fill="#293856"/><path d="M116.41,119.09a1.6,1.6,0,0,1,.1.31Z" fill="#d66b09"/><path d="M141.47,120.33c2.93,6.47-6.71,17.71-23.76,29.45a241.86,241.86,0,0,1-37,20.52,241.74,241.74,0,0,1-39.83,14.25C20.82,189.6,6,189.43,3.1,183c-2.66-5.88,5.05-15.68,19.25-26.23a48.31,48.31,0,0,0,1.82,5.89c-3.92,3.21-5.85,5.76-5.18,7.25s4,1.72,9.15.84c10-1.71,27-7.52,45.57-15.93s34.16-17.34,42-23.72c4.07-3.3,6.09-5.92,5.41-7.43s-3.87-1.72-8.86-.89a48.2,48.2,0,0,0-3.22-5.27C126.37,113.78,138.82,114.46,141.47,120.33Z" fill="#ffd766"/><path d="M21.25,175.78c-3.66,0-6.45-.76-7.37-2.78-1.31-2.9,1.74-7.32,9-13.12l1,1.27c-6.29,5-9.49,9.16-8.58,11.18,1.09,2.42,9.07,3.2,28-2.52A265.34,265.34,0,0,0,75,157.69a265,265,0,0,0,30-15.81c16.78-10.43,21.46-16.94,20.37-19.35-.92-2-6.17-2.38-14.06-1l-.29-1.59c9.18-1.66,14.5-1,15.81,1.87,2.56,5.67-12,15.83-21,21.39a268.37,268.37,0,0,1-30.21,15.91,267.42,267.42,0,0,1-31.89,12.19C37.31,173.32,27.86,175.78,21.25,175.78Z" fill="#ffec90"/><path d="M18.72,182.31c-6,0-9.79-1.37-11-4.11-2.58-5.69,6.53-14.21,14.62-20.35l1,1.28c-10.46,8-15.75,14.83-14.13,18.41,2,4.5,14.53,4.22,32.59-.75a250.3,250.3,0,0,0,35.91-13.26,248.87,248.87,0,0,0,33.65-18.23c15.66-10.29,24.12-19.49,22.09-24-1.62-3.58-10.27-4.16-23.15-1.54l-.32-1.57c9.95-2,22.36-3.25,24.93,2.44,2.46,5.45-5.8,14.93-22.67,26A252.13,252.13,0,0,1,78.32,165a251.81,251.81,0,0,1-36.14,13.34C32.54,181,24.59,182.31,18.72,182.31Z" fill="#ffec90"/><path d="M17.18,189.19c-8.09,0-13.32-1.94-15.06-5.79-2.83-6.26,4.13-16,19.59-27.53l1.3-1,.38,1.57a46.25,46.25,0,0,0,1.79,5.76l.27.72-.6.5c-5.47,4.48-4.91,5.91-4.88,6s.75,1.46,8,.22c10.2-1.74,27.56-7.81,45.3-15.84s33.76-17.07,41.81-23.58c5.71-4.63,5.13-6.1,5.11-6.16s-.73-1.42-7.71-.27l-.76.13-.36-.69a49.15,49.15,0,0,0-3.14-5.15l-.93-1.32,1.58-.34c18.83-4,30.76-2.81,33.59,3.46,3.1,6.86-5.69,18.07-24.13,30.78a242.73,242.73,0,0,1-37.16,20.61,243.2,243.2,0,0,1-40,14.31C31.62,188,23.52,189.19,17.18,189.19Zm4.53-30.63c-13.29,10.11-19.87,19-17.63,24,2.55,5.64,16.55,6,36.55,1a240.07,240.07,0,0,0,39.65-14.18,241.93,241.93,0,0,0,36.83-20.43c17-11.7,25.94-22.47,23.39-28.12-2.24-4.94-13.26-5.89-29.63-2.58.72,1.09,1.39,2.22,2,3.37,5.44-.82,8.39-.3,9.25,1.62s-.89,4.81-5.71,8.71c-8.3,6.72-24.11,15.64-42.27,23.86s-35.3,14.21-45.83,16c-6.11,1-9.39.58-10.31-1.45s.69-4.48,4.89-8C22.46,161.06,22.06,159.81,21.71,158.56Z" fill="#102770"/><path d="M117.71,149.79a49,49,0,0,1-3.35,13.8,48.43,48.43,0,0,1-73.47,21,241.63,241.63,0,0,0,39.83-14.24A242.72,242.72,0,0,0,117.71,149.79Zm-2-18.73c-7.88,6.38-23.45,15.31-42,23.73S38.13,169,28.14,170.71a48.63,48.63,0,0,1-2.83-5.34c0-.09-.08-.17-.11-.26-.37-.83-.71-1.65-1-2.48a50.78,50.78,0,0,1-1.83-5.89c0-.09,0-.17-.05-.25a48.19,48.19,0,0,1,.85-25.33,48.76,48.76,0,0,1,5.08-11.23c.35-.56.7-1.12,1.07-1.67l.52-.75.07-.1.5-.69a.76.76,0,0,1,.08-.11c.18-.25.37-.5.56-.74l0-.06c.21-.27.41-.53.62-.78.42-.54.87-1.07,1.32-1.58.22-.26.45-.51.68-.77l.61-.65.17-.18c.45-.47.92-.94,1.39-1.39l.75-.71h0c.5-.47,1-.94,1.56-1.39s1.07-.88,1.63-1.31c.4-.31.81-.62,1.23-.92l.22-.16,1-.72.08-.06h0a48.67,48.67,0,0,1,7.12-4c.91-.41,1.82-.79,2.74-1.15l37.05,1.08a48,48,0,0,1,18.84,15c-1.39,4.27-4.16,6.15-9,5.53-3.86-.5-6-2.5-8.1-3.47a9.06,9.06,0,0,0-4.38-1c-2.15.14-4.3.26-6.45.26H54c-2.15,0-4.31-.12-6.45-.26a9,9,0,0,0-4.38,1c-2,.92-4,2.79-7.57,3.39a48.11,48.11,0,0,0,.24,21.09c0,.08,0,.17.05.24s.07.24.11.4c2.43,8.34,11.38,11.86,20,11.11,16.49-1.42,52.27-20.58,59.88-25C116.42,130.75,115.34,129.76,115.75,131.06Z" fill="#102770" opacity="0.3" style="isolation:isolate"/><path d="M115.74,131.07c-.91.74-1.93,1.51-3,2.32-.45-1.28-1-2.54-1.53-3.79l-.27-.59c-.33-.7-.67-1.4-1-2.08a48.2,48.2,0,0,0-3.22-5.27l-.42-.59a48.18,48.18,0,0,0-5.93-6.75,48.44,48.44,0,0,0-73.83,8.73,48.46,48.46,0,0,1,82.2-6.17l.43.6a48.6,48.6,0,0,1,3.21,5.26c.36.69.71,1.38,1,2.09.09.19.18.39.26.58A47.66,47.66,0,0,1,115.74,131.07Z" fill="#fff" opacity="0.41" style="isolation:isolate"/><path d="M27.6,171.89l-.38-.62a50.74,50.74,0,0,1-2.88-5.46c-.42-.92-.81-1.86-1.17-2.8a51.09,51.09,0,0,1-1.87-6A49.54,49.54,0,0,1,110,116.86a48.4,48.4,0,0,1,3.28,5.39c.48.89.92,1.8,1.34,2.72a49.73,49.73,0,0,1,2.19,5.78l.21.69-.56.46c-8.31,6.72-24.11,15.64-42.28,23.86s-35.29,14.21-45.82,16ZM69.44,98a47.4,47.4,0,0,0-46,58.5,46.25,46.25,0,0,0,1.79,5.76c.34.9.71,1.8,1.11,2.69a50.11,50.11,0,0,0,2.39,4.6c10.29-1.9,27.26-7.88,44.58-15.72s33-16.65,41.24-23.12a46.57,46.57,0,0,0-1.88-4.84c-.39-.88-.82-1.75-1.27-2.6a48.14,48.14,0,0,0-3.14-5.15A47.37,47.37,0,0,0,69.44,98Z" fill="#102770"/><path d="M79.85,170.7a241.25,241.25,0,0,1-39,13.85C20.82,189.61,6,189.43,3.1,183c-2.66-5.88,5.05-15.68,19.24-26.22a49,49,0,0,0,1.84,5.89c-3.93,3.21-5.86,5.75-5.19,7.24s4,1.73,9.15.84c6.63-1.13,16.33-4.07,27.55-8.37a6.51,6.51,0,0,0,.38,4C58.25,171.16,67.11,172.47,79.85,170.7Z" fill="#102770" opacity="0.3" style="isolation:isolate"/><path d="M33.33,117.78a8,8,0,0,1-5.51-1.89c-2.74-2.41-4-7-4-15a8.64,8.64,0,0,1,2.2-6.16,6.9,6.9,0,0,1,5-2.1c3.81,0,7.66,2.92,7.66,8.51a1,1,0,0,1-1,1,1,1,0,0,1-1-1c0-4.22-2.81-6.43-5.58-6.43a4.87,4.87,0,0,0-3.51,1.46,6.64,6.64,0,0,0-1.62,4.72c0,7.24,1,11.53,3.26,13.48,1.33,1.18,3.21,1.59,5.73,1.27a14.47,14.47,0,0,0,5.88-2.32,19.66,19.66,0,0,1,1.93-1.07c3.89-1.8,6.27-.82,6.53-.7a1,1,0,0,1-.84,1.9c-.1,0-1.82-.7-4.82.69-.54.25-1.12.6-1.74,1a16.35,16.35,0,0,1-6.67,2.6A14.52,14.52,0,0,1,33.33,117.78Z" fill="#102770"/><path d="M37.24,99.29a1,1,0,0,1-.93-.58,1,1,0,0,1,.1-1.09,10.14,10.14,0,0,1,4.17-3.05,1,1,0,0,1,1.32.63,1,1,0,0,1-.63,1.33,8.18,8.18,0,0,0-3.21,2.35A1,1,0,0,1,37.24,99.29Zm63.63,18.49a14.29,14.29,0,0,1-1.86-.12,16.46,16.46,0,0,1-6.68-2.6,18.36,18.36,0,0,0-1.73-1c-3-1.4-4.75-.72-4.82-.69l-.21.09H48.83a1,1,0,0,1,0-2.07H85.18c.73-.25,3-.75,6.29.79a19.66,19.66,0,0,1,1.93,1.07,14.47,14.47,0,0,0,5.88,2.32c2.52.32,4.39-.09,5.73-1.26,2.22-2,3.26-6.24,3.26-13.49a6.6,6.6,0,0,0-1.63-4.72,4.83,4.83,0,0,0-3.5-1.46c-2.77,0-5.58,2.21-5.58,6.43a1,1,0,0,1-2.07,0c0-5.58,3.85-8.51,7.65-8.51a6.88,6.88,0,0,1,5,2.1,8.66,8.66,0,0,1,2.21,6.16c0,8-1.23,12.64-4,15.05A8,8,0,0,1,100.87,117.78Z" fill="#102770"/><path d="M97,99.29a1,1,0,0,1-.77-.34,9.8,9.8,0,0,0-3.36-2.32,1,1,0,0,1,.77-1.94,11.89,11.89,0,0,1,4.14,2.87,1,1,0,0,1,.16,1.12,1,1,0,0,1-.94.6Z" fill="#102770"/><path d="M30.46,116.61c.18-.25.37-.5.56-.74C30.83,116.11,30.64,116.36,30.46,116.61Z" fill="#293856"/><path d="M30.6,116.72l-.28-.21c.08-.12.17-.24.26-.35l.3-.4.28.22-.3.39Z" fill="#102770"/><path d="M31.68,115c.42-.54.86-1.06,1.32-1.58C32.55,114,32.11,114.49,31.68,115Z" fill="#293856"/><path d="M31.82,115.14l-.28-.23c.43-.53.87-1.06,1.32-1.58l.27.24C32.68,114.08,32.24,114.6,31.82,115.14Z" fill="#102770"/><path d="M35.85,110.45c-.47.46-.94.93-1.39,1.4C34.91,111.37,35.38,110.91,35.85,110.45Z" fill="#293856"/><path d="M34.59,112l-.26-.25c.44-.46.91-.93,1.4-1.4l.24.26c-.48.47-.95.94-1.38,1.39Z" fill="#102770"/><path d="M36.61,109.74q.77-.7,1.56-1.38Q37.38,109,36.61,109.74Z" fill="#293856"/><path d="M36.73,109.87l-.25-.26c.52-.48,1-.94,1.57-1.39l.23.28C37.76,108.94,37.24,109.4,36.73,109.87Z" fill="#102770"/><path d="M39.8,107c-.55.43-1.1.87-1.63,1.32C38.7,107.91,39.25,107.47,39.8,107Z" fill="#293856"/><path d="M38.28,108.5l-.23-.28c.55-.46,1.11-.91,1.64-1.32l.22.29c-.56.43-1.11.87-1.63,1.31Z" fill="#102770"/><path d="M47.05,94.85c-5.72-1.56-9.64,3.4-9.64,3.4-1.61-5.81-12.52-7.39-12.52,2.6,0,11.36,2.45,16.77,10.16,15.77,3.87-.5,6-2.5,8.11-3.47,3.57-1.65,5.67-.7,5.67-.7H85.37s2.1-1,5.67.7c2.09,1,4.24,3,8.1,3.47,7.72,1,10.17-4.41,10.17-15.77,0-10-11.34-9.57-12.47-1.75a4,4,0,0,0-1.42-2.2c-1.41-.77-1.52-1.45-2.49-.71" fill="#fff"/><path d="M104.42,116a9,9,0,0,1-5.28.64c-3.86-.5-6-2.5-8.1-3.47-3.58-1.65-5.67-.7-5.67-.7H48.83s-2.1-1-5.67.7c-2.09,1-4.25,3-8.11,3.47a9,9,0,0,1-5.27-.64c3.73,0,5.76-.68,6.18-3.23.1-.62-.13-7.15-.12-8,2.82,6,5.43,3.33,7.32,2.45,3.57-1.66,5.67-.7,5.67-.7H85.37s2.09-1,5.67.7c1.91.89,5.16,3.12,7.44-2.37,0,.83-.21,7.29-.11,7.91C98.79,115.27,100.77,116,104.42,116Z" fill="#102770" opacity="0.3" style="isolation:isolate"/><path d="M95.91,101.1a7.52,7.52,0,0,1,.42-4,7.34,7.34,0,0,1,2.6-3.27,8.34,8.34,0,0,1,1.91-1,7.9,7.9,0,0,1,2.11-.35,7,7,0,0,1,2.13.27,6.49,6.49,0,0,1,2,.91,7.16,7.16,0,0,1,1.58,1.48,8.47,8.47,0,0,1,.58.89,6.92,6.92,0,0,1,.46,1,10,10,0,0,1,.68,4,46,46,0,0,1-.53,7.47,18.83,18.83,0,0,1-1,3.74,9.49,9.49,0,0,1-2.2,3.44,7.06,7.06,0,0,1-1.73,1.23,7.44,7.44,0,0,1-2,.68,9.81,9.81,0,0,1-2,.19,14,14,0,0,1-5.76-1.21,32.33,32.33,0,0,1-3.31-1.82,13.45,13.45,0,0,0-1.51-.78,9.56,9.56,0,0,0-1.56-.53,7.06,7.06,0,0,0-1.58-.21,4.84,4.84,0,0,0-.76,0l-.35.06-.16,0s-.11,0-.09,0l-.43.1H48.83l-.43-.1s0,0-.09,0l-.16,0-.35-.06c-.25,0-.5,0-.76,0a8.29,8.29,0,0,0-1.56.24,10.53,10.53,0,0,0-1.55.54,11.13,11.13,0,0,0-1.49.79,32.19,32.19,0,0,1-3.31,1.85,13.74,13.74,0,0,1-3.82,1.11,14.69,14.69,0,0,1-2,.15,10.18,10.18,0,0,1-2.05-.2,7.33,7.33,0,0,1-3.8-1.94,9.52,9.52,0,0,1-2.24-3.49,18.5,18.5,0,0,1-1-3.77,45.39,45.39,0,0,1-.51-7.5,10.27,10.27,0,0,1,.71-4,7.81,7.81,0,0,1,.48-1,6.78,6.78,0,0,1,.61-.9,6.89,6.89,0,0,1,3.6-2.38,7.37,7.37,0,0,1,6.19,1.08,7,7,0,0,1,2.58,3.29,7.5,7.5,0,0,1,.36,4,.57.57,0,0,1-.55.46.56.56,0,0,1-.55-.45h0A11.59,11.59,0,0,0,36,98a6.48,6.48,0,0,0-2-2.28,5.32,5.32,0,0,0-2.84-.89,5.25,5.25,0,0,0-1.47.19,5,5,0,0,0-1.32.62,4.79,4.79,0,0,0-1.06,1,4.38,4.38,0,0,0-.4.62,4.27,4.27,0,0,0-.33.68,8,8,0,0,0-.52,3.13,45,45,0,0,0,.52,7.1,17.46,17.46,0,0,0,.86,3.29,7.3,7.3,0,0,0,1.66,2.64,5,5,0,0,0,2.62,1.34,7.63,7.63,0,0,0,1.58.16,11.48,11.48,0,0,0,1.66-.12,11.88,11.88,0,0,0,3.2-.88,30.79,30.79,0,0,0,3.11-1.67,14.38,14.38,0,0,1,1.75-.89,12.94,12.94,0,0,1,1.91-.63,9.59,9.59,0,0,1,2.06-.25,7.71,7.71,0,0,1,1.07.08c.18,0,.36.06.55.11l.28.08.34.13-.43-.1H85.37l-.43.1.34-.13.29-.07c.19,0,.37-.07.55-.1a6.34,6.34,0,0,1,1.07-.06,8.78,8.78,0,0,1,2,.27,11.36,11.36,0,0,1,1.89.64,14.32,14.32,0,0,1,1.74.9,27.5,27.5,0,0,0,3.11,1.7,12,12,0,0,0,3.22.93,13.54,13.54,0,0,0,1.68.11,7.29,7.29,0,0,0,1.62-.15,5.29,5.29,0,0,0,2.7-1.37,7.68,7.68,0,0,0,1.7-2.7,17.15,17.15,0,0,0,.88-3.33,43,43,0,0,0,.5-7.12,8.15,8.15,0,0,0-.55-3.19,5,5,0,0,0-.35-.69,3.81,3.81,0,0,0-.43-.62,4.75,4.75,0,0,0-1.1-1,5,5,0,0,0-1.35-.61,5.27,5.27,0,0,0-1.48-.18,6.29,6.29,0,0,0-1.49.26,6.08,6.08,0,0,0-1.36.65,5.94,5.94,0,0,0-2,2.31,11.21,11.21,0,0,0-1,3.15h0a.6.6,0,0,1-.61.5.62.62,0,0,1-.61-.51Z" fill="#102770"/><path d="M49.55,101.38H40.9V59.63H93.29v41.75H49.55Z" fill="#fff"/><path d="M84.65,101.56H49.55a8.85,8.85,0,0,1-8.83-8.83V68.29a8.84,8.84,0,0,1,8.83-8.83h35.1a8.82,8.82,0,0,1,8.82,8.83V92.73A8.84,8.84,0,0,1,84.65,101.56ZM49.55,59.81a8.49,8.49,0,0,0-8.47,8.48V92.73a8.49,8.49,0,0,0,8.47,8.47h35.1a8.49,8.49,0,0,0,8.47-8.47V68.29a8.5,8.5,0,0,0-8.47-8.48Z" fill="#102770"/><path d="M84.65,102.42H49.55a9.7,9.7,0,0,1-9.69-9.69V68.29a9.7,9.7,0,0,1,9.69-9.69h35.1a9.69,9.69,0,0,1,9.68,9.69V92.73A9.7,9.7,0,0,1,84.65,102.42ZM49.55,60.67a7.63,7.63,0,0,0-7.61,7.62V92.73a7.63,7.63,0,0,0,7.61,7.61h35.1a7.63,7.63,0,0,0,7.61-7.61V68.29a7.63,7.63,0,0,0-7.61-7.62Z" fill="#102770"/><path d="M83.06,66.53H51.14s-7.39,1.36-10.89,11.55" fill="#fff"/><path d="M40.42,78.14,40.08,78c3.49-10.18,11-11.66,11-11.68h32v.36H51.14S43.84,68.18,40.42,78.14Z" fill="#102770"/><path d="M87.47,102.2H46.73C43.07,100,35.61,91.61,40.25,78.09a20.72,20.72,0,0,1,4-7.15,13.48,13.48,0,0,1,6.86-4.41H83.06a13.45,13.45,0,0,1,6.85,4.4,20.87,20.87,0,0,1,4,7.16C98.58,91.61,91.13,100,87.47,102.2Z" fill="#fff"/><path d="M87.52,102.38H46.68l0,0C43.21,100.27,35.35,91.82,40.08,78a20.87,20.87,0,0,1,4.07-7.21,13.54,13.54,0,0,1,7-4.47h32a13.43,13.43,0,0,1,7,4.47A20.78,20.78,0,0,1,94.11,78c4.73,13.79-3.12,22.24-6.55,24.33ZM46.78,102H87.42c3.38-2.1,11-10.38,6.36-23.89a20.85,20.85,0,0,0-4-7.09A13.34,13.34,0,0,0,83,66.71H51.14a13.45,13.45,0,0,0-6.72,4.34,21,21,0,0,0-4,7.09C35.79,91.65,43.4,99.93,46.78,102Z" fill="#102770"/><path d="M87.47,102.2H46.72c-3.17-1.93-9.18-8.46-7.72-19,0,.17,0,.33.08.5A14.85,14.85,0,0,0,53.76,95.92H80.44A14.85,14.85,0,0,0,95.11,83.74c0-.17.06-.34.08-.51C96.66,93.74,90.64,100.27,87.47,102.2Z" fill="#102770" opacity="0.3" style="isolation:isolate"/><path d="M40.25,79.13a1,1,0,0,1-.34-.06,1,1,0,0,1-.64-1.32C42.92,67.1,50.62,65.57,51,65.51l.19,0H83.06a1,1,0,1,1,0,2.08H51.25c-.81.18-6.93,1.86-10,10.85A1,1,0,0,1,40.25,79.13Z" fill="#102770"/><path d="M87.47,103.24a1,1,0,0,1-1-.76,1,1,0,0,1,.46-1.16c3.19-1.95,10.5-9.86,6-22.9-3.07-9-9.18-10.66-10-10.85H51.25c-.81.18-6.93,1.86-10,10.85-4.47,13,2.84,21,6,22.9a1,1,0,1,1-1.08,1.77c-3.59-2.19-11.83-11-6.91-25.34C42.92,67.1,50.62,65.57,51,65.51l.19,0h32l.1,0c.32.06,8,1.59,11.68,12.24C99.84,92.08,91.6,100.9,88,103.09A1,1,0,0,1,87.47,103.24Z" fill="#102770"/><path d="M37.38,99.18a1,1,0,0,1-.84-1.65,9.2,9.2,0,0,1,4-3,1,1,0,0,1,1.32.63,1,1,0,0,1-.63,1.33,7.19,7.19,0,0,0-3.05,2.23A1.07,1.07,0,0,1,37.38,99.18Zm58.73-.31-.19-.19a8.37,8.37,0,0,0-3.09-2.05,1,1,0,0,1,.77-1.94,10.77,10.77,0,0,1,3.87,2.6l.1.1Zm-29-24.53h0A32.68,32.68,0,0,1,48.87,69,23.36,23.36,0,0,1,38.56,51.77C37.83,44.94,38.35,35,45,26.59,53.16,16.2,66.14,16.38,67.1,16.41S81,16.2,89.21,26.59c6.63,8.44,7.16,18.35,6.43,25.17A23.37,23.37,0,0,1,85.32,69,32.73,32.73,0,0,1,67.1,74.34Zm-.23-55.86c-1.62,0-13.12.33-20.25,9.4-6.2,7.88-6.69,17.22-6,23.67A21.31,21.31,0,0,0,50,67.25a31.64,31.64,0,0,0,34.17,0,21.32,21.32,0,0,0,9.4-15.71c.68-6.44.2-15.78-6-23.66-7.65-9.72-20.32-9.4-20.44-9.4h-.27Z" fill="#102770"/><path d="M89.91,70.93a20.23,20.23,0,0,1-5.16,3.35A42,42,0,0,1,67.1,77.92h0a41.92,41.92,0,0,1-17.65-3.64,20.94,20.94,0,0,1-5.16-3.34,13.48,13.48,0,0,1,6.86-4.41H83.06A13.45,13.45,0,0,1,89.91,70.93Z" fill="#102770" opacity="0.3" style="isolation:isolate"/><path d="M67.09,73.3a31.79,31.79,0,0,0,17.66-5.18,22.47,22.47,0,0,0,9.86-16.47c.73-6.8.15-16.32-6.21-24.41C80.31,17,67.1,17.45,67.1,17.45S53.89,17,45.8,27.24c-6.37,8.09-6.94,17.61-6.21,24.42a22.43,22.43,0,0,0,9.85,16.46A31.79,31.79,0,0,0,67.1,73.3" fill="#fff"/><path d="M67.09,73.3a31.79,31.79,0,0,0,17.66-5.18,22.47,22.47,0,0,0,9.86-16.47c.73-6.8.15-16.32-6.21-24.41C80.31,17,67.1,17.45,67.1,17.45S53.89,17,45.8,27.24c-6.37,8.09-6.94,17.61-6.21,24.42a22.43,22.43,0,0,0,9.85,16.46A31.79,31.79,0,0,0,67.1,73.3"/><path d="M94.61,51.66a22.47,22.47,0,0,1-9.86,16.46A31.81,31.81,0,0,1,67.1,73.3h0a31.81,31.81,0,0,1-17.65-5.18,22.46,22.46,0,0,1-9.85-16.46,39.77,39.77,0,0,1,0-8.61l0,.25a22.46,22.46,0,0,0,9.85,16.46,31.81,31.81,0,0,0,17.65,5.18h0a31.76,31.76,0,0,0,17.65-5.18,22.47,22.47,0,0,0,9.86-16.47l0-.26A41.27,41.27,0,0,1,94.61,51.66Z" fill="#293856"/><path d="M67.1,73.48a31.82,31.82,0,0,1-17.75-5.21,22.49,22.49,0,0,1-9.94-16.59,40.35,40.35,0,0,1,0-8.65h.36a1.94,1.94,0,0,1,0,.24,22.22,22.22,0,0,0,9.78,16.34,32.5,32.5,0,0,0,35.11,0,22.17,22.17,0,0,0,9.79-16.33c0-.09,0-.18,0-.26h.36a40.44,40.44,0,0,1,0,8.66,22.51,22.51,0,0,1-9.94,16.59A31.87,31.87,0,0,1,67.1,73.48ZM39.6,44.71a41.13,41.13,0,0,0,.16,6.93A22.19,22.19,0,0,0,49.54,68a32.5,32.5,0,0,0,35.11,0,22.16,22.16,0,0,0,9.78-16.33,41.16,41.16,0,0,0,.17-6.93,22.43,22.43,0,0,1-9.75,15.2,32.84,32.84,0,0,1-35.5,0A22.37,22.37,0,0,1,39.6,44.71Z" fill="#102770"/><path d="M67.1,74.34h0A32.68,32.68,0,0,1,48.87,69,23.36,23.36,0,0,1,38.56,51.77C37.83,44.94,38.35,35,45,26.59,53.16,16.2,66.14,16.38,67.1,16.41S81,16.2,89.21,26.59c6.63,8.44,7.16,18.35,6.43,25.17A23.37,23.37,0,0,1,85.32,69,32.73,32.73,0,0,1,67.1,74.34Zm-.23-55.86c-1.62,0-13.12.33-20.25,9.4-6.2,7.88-6.69,17.22-6,23.67A21.31,21.31,0,0,0,50,67.25a31.64,31.64,0,0,0,34.17,0,21.32,21.32,0,0,0,9.4-15.71c.68-6.44.2-15.78-6-23.66-7.65-9.72-20.32-9.4-20.44-9.4h-.27Z" fill="#102770"/><path d="M67.09,69.06a33.44,33.44,0,0,0,16.29-4,17.2,17.2,0,0,0,9.1-12.74c.66-5.26.13-12.63-5.74-18.89-7.45-8-19.64-7.58-19.64-7.58s-12.19-.37-19.65,7.58c-5.87,6.26-6.4,13.63-5.73,18.9a17.16,17.16,0,0,0,9.09,12.73,33.44,33.44,0,0,0,16.29,4" fill="#102770"/><path d="M67.1,70.1h0A34.48,34.48,0,0,1,50.31,66a18.13,18.13,0,0,1-9.62-13.52c-.68-5.35-.19-13.13,6-19.73,7.57-8.08,19.54-7.93,20.4-7.91s12.83-.17,20.4,7.91c6.2,6.6,6.69,14.37,6,19.73A18.14,18.14,0,0,1,83.88,66,34.48,34.48,0,0,1,67.1,70.1Zm-.22-43.22c-1.5,0-12.11.26-18.67,7.25a21.71,21.71,0,0,0-5.46,18,16.07,16.07,0,0,0,8.57,12A32.39,32.39,0,0,0,67.1,68a32.47,32.47,0,0,0,15.78-3.88,16.09,16.09,0,0,0,8.57-12c.62-4.92.18-12-5.46-18-7.06-7.53-18.75-7.26-18.86-7.25h-.25ZM86.64,78.64a5.27,5.27,0,0,1,.79,2.06,6.92,6.92,0,0,1,0,2.27,6.51,6.51,0,0,1-.76,2.22A4.3,4.3,0,0,1,84.84,87a1,1,0,0,1-1.2-1.65l.13-.13a10.06,10.06,0,0,0,1-1.18,10.43,10.43,0,0,0,.87-1.53,8.41,8.41,0,0,0,.74-3.73.21.21,0,0,1,0-.11.16.16,0,0,1,.11-.05A.17.17,0,0,1,86.64,78.64Zm-38.81.09a8.56,8.56,0,0,0,.75,3.73A8.88,8.88,0,0,0,49.45,84a9.16,9.16,0,0,0,1,1.18l.12.13a1,1,0,0,1-1.19,1.64,4.25,4.25,0,0,1-1.82-1.76A6.19,6.19,0,0,1,46.78,83a6.92,6.92,0,0,1,0-2.27,5.41,5.41,0,0,1,.78-2.06.16.16,0,0,1,.18-.07.14.14,0,0,1,.1.15Z" fill="#102770"/><path d="M49.58,114.44H47.76V110.8H86.44v3.64H49.58Z" fill="#b8c5d3"/><path d="M84.62,114.62h-35a2,2,0,1,1,0-4h35a2,2,0,1,1,0,4Zm-35-3.65a1.65,1.65,0,1,0,0,3.29h35a1.65,1.65,0,0,0,1.51-.79,1.65,1.65,0,0,0-1.51-2.5Z" fill="#102770"/><path d="M49.58,114.44H47.76V110.8H86.44v3.64H49.58Z" fill="#102770" opacity="0.3" style="isolation:isolate"/><path d="M84.62,115.48h-35a2.87,2.87,0,0,1,0-5.73h35a2.87,2.87,0,0,1,0,5.73Zm-35-3.64a.77.77,0,0,0-.7.38.81.81,0,0,0,0,.8.79.79,0,0,0,.7.38h35a.78.78,0,0,0,.7-.38.78.78,0,0,0-.7-1.18Zm-17.94,5.45a5.6,5.6,0,0,1-3.35-1.19.89.89,0,1,1,1.06-1.44,3.33,3.33,0,0,0,4.78-.33c1.85-2.09.9-8.18.44-11.11-.08-.48-.15-.9-.19-1.24-.42-3.18-2.2-5.54-4.16-5.54h-.07c-2.62.08-4,1.48-4.24,2.83a.91.91,0,0,1-1,.74.9.9,0,0,1-.74-1c.34-2.07,2.31-4.21,5.94-4.33,2.94-.1,5.5,2.89,6.06,7.09l.18,1.2c.75,4.77,1.36,10.06-.86,12.57A5.16,5.16,0,0,1,31.64,117.29Zm70.91,0a5.16,5.16,0,0,1-3.83-1.78c-2.22-2.51-1.61-7.8-.86-12.57l.18-1.2c.55-4.14,3-7.09,5.93-7.09h.13c3.64.12,5.61,2.26,5.94,4.33a.88.88,0,0,1-.3.85.89.89,0,0,1-1.46-.56c-.22-1.35-1.62-2.75-4.23-2.83-2-.06-3.81,2.32-4.24,5.54,0,.34-.11.76-.19,1.24-.45,2.92-1.41,9,.44,11.1a3.32,3.32,0,0,0,4.78.34.89.89,0,0,1,1.25.18.91.91,0,0,1-.19,1.26A5.58,5.58,0,0,1,102.55,117.29Z" fill="#102770"/><path d="M47.2,46.29a1.58,1.58,0,0,1-2.41-1.61c.08-.45.19-.9.3-1.34a17.26,17.26,0,0,1,1.73-4.08,18.61,18.61,0,0,1,2.71-3.53,21.12,21.12,0,0,1,3.53-2.84,25.08,25.08,0,0,1,6.62-3.18A3,3,0,0,1,62,35.29a21,21,0,0,0-2.2,1.23,33,33,0,0,0-2.86,2c-.93.69-1.83,1.43-2.73,2.21S52.36,42.24,51.4,43s-1.95,1.6-3,2.42C48.09,45.69,47.66,46,47.2,46.29Z" fill="#fff"/><path d="M46.34,46.91a2,2,0,0,1-1.9-2.29c.08-.42.18-.87.3-1.37a17.64,17.64,0,0,1,1.78-4.17,18.82,18.82,0,0,1,2.76-3.6,20.11,20.11,0,0,1,3.59-2.88,25.29,25.29,0,0,1,6.7-3.23,3.38,3.38,0,0,1,2.56,6.24A20.74,20.74,0,0,0,60,36.82a34.17,34.17,0,0,0-2.85,2c-.82.62-1.68,1.32-2.71,2.2l-1,.83c-.58.5-1.18,1-1.79,1.51-1.14.95-2.09,1.72-3,2.44-.28.21-.69.5-1.22.84A2.05,2.05,0,0,1,46.34,46.91Zm14.27-17a2.51,2.51,0,0,0-.82.13,24.41,24.41,0,0,0-6.52,3.14A19.77,19.77,0,0,0,49.79,36a18.21,18.21,0,0,0-2.66,3.46,16.12,16.12,0,0,0-1.69,4c-.13.48-.22.91-.3,1.32A1.22,1.22,0,0,0,47,46c.52-.34.91-.61,1.18-.81.91-.71,1.87-1.48,3-2.42L53,41.26l1-.84c1-.89,1.91-1.59,2.74-2.22a33.7,33.7,0,0,1,2.9-2A18.79,18.79,0,0,1,61.81,35a2.67,2.67,0,0,0-1.2-5Z" fill="#102770"/><path d="M69.06,34.56a3.48,3.48,0,0,1-2.53-3.34c-.29-2.92,3.6-3.08,5.1-2.73s4.24.2,4.73,2.54S75.49,36.35,69.06,34.56Z" fill="#fff"/><path d="M72.5,35.46A13.55,13.55,0,0,1,69,34.91a3.87,3.87,0,0,1-2.79-3.65A2.52,2.52,0,0,1,67,29c1.32-1.16,3.73-1.06,4.69-.83.28.06.62.11,1,.17,1.51.22,3.58.52,4,2.63a3.57,3.57,0,0,1-.93,3.45A4.57,4.57,0,0,1,72.5,35.46Zm-2.19-6.74a4.44,4.44,0,0,0-2.82.8,1.8,1.8,0,0,0-.6,1.66,3.11,3.11,0,0,0,2.24,3h0c3.68,1,5.36.38,6.13-.34A3,3,0,0,0,76,31.1c-.34-1.63-2-1.87-3.42-2.08a9.13,9.13,0,0,1-1-.18A5.64,5.64,0,0,0,70.31,28.72Z" fill="#102770"/><path d="M65.32,91.32a67.68,67.68,0,0,1-11.71-1l-.74-.13V88.49c0-4.49,3-8.14,6.65-8.14H75.58c3.66,0,6.64,3.65,6.64,8.14v.7l-.68.17A68.18,68.18,0,0,1,65.32,91.32ZM54.66,88.66a65.82,65.82,0,0,0,25.74-.87c-.27-3.18-2.33-5.65-4.82-5.65H59.52c-2.68,0-4.86,2.85-4.86,6.35Z" fill="#102770"/><path d="M85.38,110.8H48.82a.84.84,0,0,1-.82-.7L44.27,87a.84.84,0,0,1,.18-.67.82.82,0,0,1,.64-.29h44a.8.8,0,0,1,.63.29.81.81,0,0,1,.19.67L86.2,110.1A.84.84,0,0,1,85.38,110.8Z" fill="#b8c5d3"/><path d="M46.77,89.17a.83.83,0,0,1,.82-1H89.74L89.93,87a.81.81,0,0,0-.19-.67.8.8,0,0,0-.63-.29h-44a.82.82,0,0,0-.64.29.84.84,0,0,0-.18.67L48,110.1a.84.84,0,0,0,.82.69h1.45Z" fill="#fff" opacity="0.6" style="isolation:isolate"/><path d="M89.93,87,86.2,110.1a.84.84,0,0,1-.82.7H48.82a.83.83,0,0,1-.81-.7l-.67-4.1H74.43a11.69,11.69,0,0,0,11.13-8.11l3.83-11.83h-.28a.83.83,0,0,1,.82,1Z" fill="#102770" opacity="0.3" style="isolation:isolate"/><path d="M85.37,111.84H48.82A1.86,1.86,0,0,1,47,110.26L43.24,87.18a1.85,1.85,0,0,1,.42-1.5A1.88,1.88,0,0,1,45.08,85h44a1.84,1.84,0,0,1,1.42.66,1.81,1.81,0,0,1,.42,1.5l-3.73,23.09A1.88,1.88,0,0,1,85.37,111.84ZM49,109.76H85.2L88.87,87.1H45.33Z" fill="#102770"/><path d="M109.31,100.85a52.45,52.45,0,0,1-.3,5.91h0c-.55,4.78-2,7.87-4.59,9.21-3.65,0-5.63-.71-6-3.23a14.33,14.33,0,0,1-.16-2.22c0-2.63.27-5.77.27-5.77s1.09,5,4.6,5.77h0c3.87-1,5.61-4.88,6.08-11.46A11.66,11.66,0,0,1,109.31,100.85Z" fill="#102770" opacity="0.3" style="isolation:isolate"/><path d="M109,106.76s-.72,9.19-4.46,9.22h-.14c2.65-1.34,4-4.43,4.59-9.21h0Z" fill="#293856"/><path d="M104.42,116.16h-.75l.67-.34c2.49-1.26,3.92-4.14,4.49-9.07v-.06l.4-.43,0,.52v0c-.06.73-.85,9.32-4.63,9.35Zm2.65-2.37a6.78,6.78,0,0,1-1.76,1.86A3.77,3.77,0,0,0,107.07,113.79Z" fill="#102770"/><path d="M36.12,110.5a16,16,0,0,1-.16,2.25c-.42,2.55-2.45,3.25-6.18,3.23a7.82,7.82,0,0,1-3.71-4.89h0a26.38,26.38,0,0,1-.75-4.32s1.29,4,5.17,3.86a3.83,3.83,0,0,0,.67-.08c3.58-.73,4.69-5.79,4.69-5.79S36.15,107.87,36.12,110.5Z" fill="#102770" opacity="0.3" style="isolation:isolate"/><path d="M29.78,116h0c-1.94,0-3.07-2.51-3.7-4.89A7.78,7.78,0,0,0,29.78,116Z" fill="#293856"/><path d="M30.53,116.16h-.76c-1.69,0-3-1.71-3.87-5l.34-.1a7.62,7.62,0,0,0,3.62,4.79Zm-2.47-1.22a3,3,0,0,0,.41.39Z" fill="#102770"/><path d="M70.53,99.79h.16a3.55,3.55,0,1,1,0-3.3h-.16a1.66,1.66,0,1,0,0,3.32Zm15.88,14.06a.9.9,0,0,1,0-1.79,7.94,7.94,0,0,0,7.51-5.34l4.27-12.37a114.28,114.28,0,0,0,6.31-37.51.9.9,0,1,1,1.79,0,115.92,115.92,0,0,1-6.41,38.09L95.6,107.31A9.72,9.72,0,0,1,86.41,113.85Z" fill="#102770"/><path d="M88.27,10.24a2.69,2.69,0,0,1-1.63,1.25,2.65,2.65,0,0,1-2-.27,35.44,35.44,0,0,0-36,0,2.68,2.68,0,0,1-3.66-1A2.68,2.68,0,0,1,45.9,6.6a40.86,40.86,0,0,1,41.43,0A2.69,2.69,0,0,1,88.27,10.24Z" fill="#ffb200"/><path d="M45.9,8.39a40.86,40.86,0,0,1,41.43,0,2.63,2.63,0,0,1,1.14,1.4A2.67,2.67,0,0,0,87.33,6.6a40.86,40.86,0,0,0-41.43,0,2.69,2.69,0,0,0-1.15,3.19A2.69,2.69,0,0,1,45.9,8.39Z" fill="#fff" opacity="0.6" style="isolation:isolate"/><path d="M88.27,10.24a2.68,2.68,0,0,1-3.67,1,35.4,35.4,0,0,0-36,0A2.69,2.69,0,0,1,45,7.48a2.66,2.66,0,0,0,3.62.91,35.44,35.44,0,0,1,36,0,2.68,2.68,0,0,0,3.63-.9A2.71,2.71,0,0,1,88.27,10.24Z" fill="#102770" opacity="0.3" style="isolation:isolate"/><path d="M47.29,12.55a3.65,3.65,0,0,1-1.88-6.77,41.79,41.79,0,0,1,42.41,0,3.65,3.65,0,0,1-1,6.65,3.58,3.58,0,0,1-2.75-.38,34.44,34.44,0,0,0-35,0A3.54,3.54,0,0,1,47.29,12.55ZM66.61,1.93a39.69,39.69,0,0,0-20.22,5.5,1.73,1.73,0,0,0-.81,1.72,1.7,1.7,0,0,0,1.27,1.41,1.67,1.67,0,0,0,1.29-.17,36.38,36.38,0,0,1,37,0,1.67,1.67,0,0,0,1.29.17,1.7,1.7,0,0,0,1.27-1.41,1.73,1.73,0,0,0-.81-1.72A39.72,39.72,0,0,0,66.61,1.93Z" fill="#102770"/><path d="M47.29,12.55a3.65,3.65,0,0,1-1.88-6.77,41.79,41.79,0,0,1,42.41,0,3.65,3.65,0,0,1-1,6.65,3.58,3.58,0,0,1-2.75-.38,34.44,34.44,0,0,0-35,0A3.54,3.54,0,0,1,47.29,12.55ZM66.61,1.93a39.69,39.69,0,0,0-20.22,5.5,1.73,1.73,0,0,0-.81,1.72,1.7,1.7,0,0,0,1.27,1.41,1.67,1.67,0,0,0,1.29-.17,36.38,36.38,0,0,1,37,0,1.67,1.67,0,0,0,1.29.17,1.7,1.7,0,0,0,1.27-1.41,1.73,1.73,0,0,0-.81-1.72A39.72,39.72,0,0,0,66.61,1.93Z" fill="#102770"/><path d="M136,32.56c-.07-.47-.13-.91-.19-1.35-.17-1.2-.33-2.4-.5-3.6s-.36-2.54-.53-3.82c0-.25-.08-.51-.11-.76a.52.52,0,0,1,.42-.61l5.45-1.79,4.21-1.37a.53.53,0,0,1,.77.49c.2,1.51.42,3,.63,4.52s.39,2.88.59,4.32c.1.7.19,1.4.3,2.11a2.23,2.23,0,0,1-.5,1.79,3.11,3.11,0,0,1-3.08,1.23A1.82,1.82,0,0,1,142.06,31a3.22,3.22,0,0,1,3.59-1.64l.09,0q-.48-3.48-1-7l-1.46.48-7.18,2.34c-.12,0-.15.09-.13.22.23,1.66.47,3.32.7,5,.17,1.23.34,2.46.5,3.69a2,2,0,0,1-.35,1.38,3.13,3.13,0,0,1-3.12,1.48,1.83,1.83,0,0,1-1.45-2.81,3.22,3.22,0,0,1,2.44-1.68A2.71,2.71,0,0,1,136,32.56ZM4.1,63.69l-.57-1.12L2,59.6.39,56.43.06,55.8a.49.49,0,0,1,.19-.66l4.2-3.21L7.7,49.46a.49.49,0,0,1,.81.19l1.92,3.75L12.26,57c.29.59.59,1.17.89,1.75a2,2,0,0,1,.11,1.71,2.85,2.85,0,0,1-2.3,2,1.68,1.68,0,0,1-2-2,3,3,0,0,1,2.62-2.52h.09l-3-5.77L7.58,53,2,57.22c-.1.07-.1.13-.05.23l2.12,4.13,1.56,3.06A1.85,1.85,0,0,1,5.77,66a2.88,2.88,0,0,1-2.26,2.23,1.68,1.68,0,0,1-2.11-2A2.92,2.92,0,0,1,3,64,2.46,2.46,0,0,1,4.1,63.69ZM126.74,49.61c-.09.84-.17,1.68-.26,2.52l-1,10a2,2,0,0,1-.52,1.11,3.85,3.85,0,0,1-4.45.83A1.9,1.9,0,0,1,119.44,62a2.23,2.23,0,0,1,1-1.44,3.71,3.71,0,0,1,3.92-.4c.24.11.18-.06.19-.16q.45-4.68.92-9.36l.39-4c0-.1,0-.2,0-.3a.57.57,0,0,1,.45-.41.54.54,0,0,1,.58.22,35.64,35.64,0,0,0,2.86,3.63A5.34,5.34,0,0,1,131,52.25,6.46,6.46,0,0,1,130.1,57a1.85,1.85,0,0,1-.41.47c-.09.07-.18.15-.29.07s-.07-.2,0-.3c.15-.37.31-.73.45-1.11a6.85,6.85,0,0,0,.4-2.29,3.68,3.68,0,0,0-1-2.46A5.6,5.6,0,0,0,126.74,49.61Z" fill="#9804b6"/><path d="M50.94,30.59a1,1,0,0,1-1-.81,7.38,7.38,0,0,0-2.23-4,1,1,0,0,1-.14-1.38A1,1,0,0,1,49,24.21a9.25,9.25,0,0,1,3,5.19,1,1,0,0,1-.22.83,1,1,0,0,1-.77.36Zm32.32,0a1,1,0,0,1-.78-.36,1,1,0,0,1-.21-.83,9.19,9.19,0,0,1,3-5.19,1,1,0,0,1,1.24,1.57,7.21,7.21,0,0,0-2.23,4A1,1,0,0,1,83.26,30.59Z" fill="#102770"/><path d="M12.68,223.93c0-3.35,26.19-6.07,58.5-6.07s58.51,2.72,58.51,6.07S103.49,230,71.18,230,12.68,227.28,12.68,223.93Z" fill="#102770" opacity="0.3" style="isolation:isolate"/></svg>