<svg xmlns="http://www.w3.org/2000/svg" viewBox="0 0 190 230"><path d="M82.7,69.75l-5,9.14L75.6,82.8a12.48,12.48,0,0,1-2,0c-6-.08-24.46-1.71-34-17.94C31.72,51.4,36.54,45,44.2,45.29c1.88,0,3.59.89,5.55,2.28,4.65,3.43,10.6,10.2,22,16.8A89.33,89.33,0,0,0,82.7,69.75Z" fill="#fff"/><path d="M50.4,77.09a.9.9,0,0,1-.9-.89,1,1,0,0,1,.57-.82c.41-.16,10.52-4.57,11.5-17.86a.92.92,0,0,1,.49-.82.89.89,0,0,1,1.23.41,1.08,1.08,0,0,1,.08.49C62.31,72,51.3,76.77,50.81,77A.77.77,0,0,1,50.4,77.09Z" fill="#371a45"/><path d="M82.7,69.75l-5,9.14L75.6,82.8a12.48,12.48,0,0,1-2,0c-6-.08-24.46-1.71-34-17.94C36,58.74,35.07,54,35.88,50.75A29.39,29.39,0,0,0,39.64,60c9.54,16.23,28.05,17.86,34,17.94h2L77.72,74l2.85-5.13Z" fill="#371a45" opacity="0.25" style="isolation:isolate"/><path d="M74.05,84a48.86,48.86,0,0,1-12.4-1.64C51.38,79.7,43.39,73.83,38.58,65.51c-5.47-9.21-4.65-14.51-3-17.29S40.29,44,44.2,44.06c3.75.09,6.93,2.86,11.34,6.77A95.69,95.69,0,0,0,83.18,68.61,1.24,1.24,0,0,1,82.45,71a.28.28,0,0,1-.16-.08C67.85,64.78,59.86,57.77,54,52.63c-4.24-3.67-7-6-9.87-6.12-3-.08-5.3,1-6.52,2.94-1.8,3.18-.74,8.48,3,14.84C45.18,72.12,52.44,77.42,62.14,80a46.1,46.1,0,0,0,13.38,1.55,1.25,1.25,0,0,1,1.3,1.14A1.27,1.27,0,0,1,75.68,84H74.05Z" fill="#371a45"/><path d="M124.78,114c-4.65,5.38-14,6.68-16.48,10.27-2.12,3.18-1.38,7.18-1.14,11.42a19.07,19.07,0,0,1-3.51,12.48c-4.64,6.2-13.37,6.85-18.1,2.93-5.38-4.48,1.3-15.9,2.28-17.29L85,130.43a10.51,10.51,0,0,1-2-4.81c-11-.57-19.74,8.23-25.53,9.78C51,137.12,44,132.55,39.31,123.5c-3.83-7.42-1.06-14,4.65-14.68,4.4-.49,11.9,5.46,11.9,5.46s3.43-14.92,16.48-13.21a105.4,105.4,0,0,0,1.3-18.27c0-1.71-.08-3.51-.16-5.3a101.5,101.5,0,0,0-1.63-13.13l-.33-1.55,41-2.77c.74.81,1.39,1.63,2.12,2.45s1.23,1.63,1.8,2.36a63,63,0,0,1,7,12C130.65,92.75,130,108.08,124.78,114Z" fill="#fff"/><path d="M90.12,127.41c-14.36-6.36-25.61,6.12-32.62,8.07-6.45,1.72-13.46-2.85-18.11-11.9a14.3,14.3,0,0,1-1.79-7.75c.4-3.83,2.85-6.52,6.36-7,4.4-.49,11.9,5.46,11.9,5.46s3.51-14.92,16.48-13.21a109.49,109.49,0,0,0-.82-38.25l13.3,46.24Z" fill="#fff"/><path d="M90.12,127.41c-14.36-6.36-25.61,6.12-32.62,8.07-6.45,1.72-13.46-2.85-18.11-11.9a14.3,14.3,0,0,1-1.79-7.75c6.28,10.68,27,1.71,31.56-2,4.24-3.42,16-6.93,24.14-6.69Z" fill="#371a45" opacity="0.25" style="isolation:isolate"/><path d="M72.26,128.72h-.17a.89.89,0,0,1-.73-1c2.28-15.82-10.19-22.27-10.36-22.35a.92.92,0,0,1-.41-1.22,1,1,0,0,1,.49-.49.64.64,0,0,1,.66.08,21.87,21.87,0,0,1,6.6,5.63A23.4,23.4,0,0,1,73.07,128,.81.81,0,0,1,72.26,128.72Z" fill="#371a45"/><path d="M54.72,137c-6.11,0-12.15-4.73-16.47-13-2.28-4.32-2.53-8.73-.74-12.07a8.24,8.24,0,0,1,6.37-4.41c3.67-.49,8.89,2.86,11.41,4.65,1.39-3.91,5.79-13.21,16.07-12.56A108.25,108.25,0,0,0,70.3,63.07a1.17,1.17,0,1,1,2.28-.49h0a112.19,112.19,0,0,1,.82,38.73l-.25,1.15L72,102.29C60.27,100.66,57,114,56.92,114.53l-.4,1.87-1.47-1.14c-2-1.55-7.83-5.55-11-5.22a5.84,5.84,0,0,0-4.49,3.1c-1.38,2.61-1.06,6.2.74,9.87,4.48,8.56,10.84,12.88,16.72,11.33a29.54,29.54,0,0,0,6.6-3.34c6.77-4,16-9.46,26.83-4.65a1.21,1.21,0,0,1,.49,1.63,1.1,1.1,0,0,1-1.47.57c-9.78-4.32-18,.57-24.62,4.49a31.05,31.05,0,0,1-7.18,3.59A11.85,11.85,0,0,1,54.72,137Z" fill="#371a45"/><path d="M31.32,127.66l-13.79,3a20.7,20.7,0,0,0,8.81,40.45h0l13.78-3Z" fill="#ff2c27"/><path d="M40.12,167.37l-.32.08-7.59-34.74-13.78,3A20.72,20.72,0,0,0,2.12,156.2a9.71,9.71,0,0,1-.41-1.63,20.7,20.7,0,0,1,15.82-24.63h0l13.79-3Z" fill="#fff" opacity="0.6" style="isolation:isolate"/><path d="M2.53,151.88c.08.24.08.49.16.73a20.69,20.69,0,0,0,24.63,15.82h0l12.23-2.69-1.87-8.64-13.78,3A20.78,20.78,0,0,1,2.53,151.88Z" fill="#371a45" opacity="0.3" style="isolation:isolate"/><path d="M21.86,172.92a21.94,21.94,0,0,1-4.57-43.39l13.78-3a1.12,1.12,0,0,1,.9.17.93.93,0,0,1,.49.73l8.81,40.53a1.11,1.11,0,0,1-.17.9.93.93,0,0,1-.73.49l-13.78,2.94A15.71,15.71,0,0,1,21.86,172.92Zm8.56-43.8L17.78,131.9A19.58,19.58,0,1,0,23,170.72c1.06-.17,2.12-.41,3.18-.66l12.64-2.77Z" fill="#371a45"/><path d="M34.66,127.33l117.6-25.2L161,142.74l-117.6,25.2Z" fill="#4089ff"/><path d="M153,105.39l8,36.46.89-.17L153,101.23,35.39,126.76l.9,4Z" fill="#fff" opacity="0.5" style="isolation:isolate"/><path d="M158.29,129.45,41,155.06l2.29,10.44-.25-1L159.93,139l-2-9.46.4-.08,2.7,12.31L43.71,167.37,161,141.76Z" fill="#371a45" opacity="0.3" style="isolation:isolate"/><path d="M43.71,168.6a1.14,1.14,0,0,1-1.14-1l-8.81-40.54a1.21,1.21,0,0,1,.9-1.46l117.27-25.53a.94.94,0,0,1,.66,0h0a1.19,1.19,0,0,1,.73,1.55,1.33,1.33,0,0,1-.41.57,6.48,6.48,0,0,0-1.47,9,7.59,7.59,0,0,0,.74.82,2.83,2.83,0,0,1,.81,2,2.43,2.43,0,0,1-.89,1.88,7.48,7.48,0,0,0-.57,10.6,7.59,7.59,0,0,0,3.34,2.2,2.78,2.78,0,0,1,1.55,1.31,2.68,2.68,0,0,1,.08,2.12,6.38,6.38,0,0,0,3.75,8.24c.33.08.65.24,1,.32a1,1,0,0,1,.9.9,1.33,1.33,0,0,1-.41,1.22.69.69,0,0,1-.49.25L44,168.51A.29.29,0,0,1,43.71,168.6Zm-7.42-40.78L44.61,166l112.62-24.55a8.83,8.83,0,0,1-3-10.2v-.16a.08.08,0,0,0-.08-.08,10,10,0,0,1-6.61-12.4,10.21,10.21,0,0,1,2.94-4.48.28.28,0,0,0,.08-.17c0-.08,0-.08-.08-.16A8.76,8.76,0,0,1,149,103.27Z" fill="#371a45"/><path d="M187.49,118l-5.71,5.14L170,133.69l-9,8.16a7.64,7.64,0,0,1-6-9,7,7,0,0,1,.33-1.23,1.59,1.59,0,0,0-.25-1.47,1.7,1.7,0,0,0-.65-.4,8.73,8.73,0,0,1-5.79-10.85,9.36,9.36,0,0,1,2.53-4,1.33,1.33,0,0,0,.08-2s0-.09-.08-.09a7.9,7.9,0,0,1-2.12-3.75,7.73,7.73,0,0,1,3-7.83l11.66,3.59,15,4.65,7.34,2.28a3.66,3.66,0,0,1,2.45,4.49,2.71,2.71,0,0,1-1.06,1.71Z" fill="#ffd39f"/><path d="M188.06,117.38a3.39,3.39,0,0,0-2.2-1.88l-7.34-2.28-15-4.65L151.85,105a7.53,7.53,0,0,0-2.77,3.76,7.6,7.6,0,0,1,3.1-7.34L163.84,105l15,4.65,7.34,2.29a3.55,3.55,0,0,1,2.36,4.48,1.79,1.79,0,0,1-.49,1Z" fill="#fff" opacity="0.7" style="isolation:isolate"/><path d="M156.17,138.5a6.92,6.92,0,0,0,2.78,1.14l9.05-8.15,12.48-10.28,5-5.38a4.59,4.59,0,0,0,.82-1l.08-.08-21.29,11.66a35.87,35.87,0,0,1-9.05,3.43l-.9.16a1.4,1.4,0,0,1,.25,1.47,7.57,7.57,0,0,0,1.14,7.42C156.42,138.91,156.26,138.75,156.17,138.5Z" fill="#371a45" opacity="0.3" style="isolation:isolate"/><path d="M187.49,118l-5.71,5.14a13,13,0,0,1-2.93-13.54l7.34,2.29a3.64,3.64,0,0,1,2.44,4.56,4.67,4.67,0,0,1-1.14,1.55Z" fill="#371a45"/><path d="M161,143h-.25a8.8,8.8,0,0,1-6.93-10.36,6.44,6.44,0,0,1,.41-1.39v-.16a.08.08,0,0,0-.08-.08,10,10,0,0,1-6.61-12.4,10.21,10.21,0,0,1,2.94-4.48.28.28,0,0,0,.08-.17c0-.08,0-.08-.08-.16a8.86,8.86,0,0,1-.09-12.48,14.62,14.62,0,0,1,1.15-1,1,1,0,0,1,1.06-.17l34,10.52a4.83,4.83,0,0,1,3.18,6,4.58,4.58,0,0,1-1.38,2.12l-26.51,23.73A1.11,1.11,0,0,1,161,143Zm-8.49-40.37a6.44,6.44,0,0,0-.65,9l.33.33a2.83,2.83,0,0,1,.81,2,2.43,2.43,0,0,1-.89,1.88,7.48,7.48,0,0,0-.57,10.6,7.59,7.59,0,0,0,3.34,2.2,2.78,2.78,0,0,1,1.55,1.31,2.68,2.68,0,0,1,.08,2.12,6.38,6.38,0,0,0,3.75,8.24c.17.08.25.08.41.16l26-23.32a2.45,2.45,0,0,0,.16-3.43,2.07,2.07,0,0,0-1.06-.65Z" fill="#371a45"/><path d="M40.94,171.29c-4.4,1-8.64-1.15-9.62-4.81-1.14-4.65-2.69-11-3.92-16.72S24.87,137.61,24,132.88c-.74-3.67,2.28-7.43,6.68-8.4s9,1.3,9.63,5.13c.89,4.65,2.12,10.93,3.34,16.56s2.69,11.82,3.83,16.39c1.06,3.83-2,7.75-6.52,8.73Z" fill="#ffc41d"/><path d="M40.78,131.57a8.24,8.24,0,0,0-6.85-3.18,11.14,11.14,0,0,0-2.29.24c-3.91.9-6.77,3.76-7.09,7-.17-1-.41-1.88-.49-2.77-.74-3.67,2.28-7.43,6.69-8.4a9,9,0,0,1,2.12-.25c3.75,0,6.93,2.12,7.5,5.38C40.53,130.27,40.61,130.92,40.78,131.57Z" fill="#fff" opacity="0.6" style="isolation:isolate"/><path d="M27.16,148a.3.3,0,0,0,.08.25A.3.3,0,0,1,27.16,148Zm-.57-2.28a.32.32,0,0,0,.08.25Zm1.14,4.57a.29.29,0,0,0,.08.24A.29.29,0,0,1,27.73,150.33Zm3.67,16.15a.49.49,0,0,0-.08-.33c0,.08.08.24.08.33a6,6,0,0,0,1.71,2.93,5.35,5.35,0,0,1-1.71-2.93Z" fill="#371a45" opacity="0.3" style="isolation:isolate"/><path d="M30.75,163.78c1,3.59,5.13,5.71,9.54,4.73,4.56-1,7.58-4.89,6.68-8.72-.4-1.71-.89-3.59-1.38-5.55-.16,3.18-2.94,6.12-6.77,6.93-4.49,1-8.73-1.22-9.62-4.81-.17-.81-.41-1.71-.66-2.69v-.08c-.57-2.12-1.14-4.73-1.79-7.42-.08-.49-.24-1-.33-1.47.33,1.71.74,3.43,1.06,5.06,1.06,4.73,2.29,9.86,3.27,14.11Zm6.52,7.59a9.86,9.86,0,0,0,3.75-.08,11.49,11.49,0,0,0,2.77-1.06A11.49,11.49,0,0,1,41,171.29a9.92,9.92,0,0,1-3.75.08ZM35.72,171a4,4,0,0,1-.9-.41,7.26,7.26,0,0,0,.9.41Zm-4.73-6-.08-.41Zm14.11,4.4a4.58,4.58,0,0,1-.65.49Zm-13.86-3.59-.09-.33Zm1.87,3.67c.25.25.49.41.73.65-.24-.24-.48-.4-.73-.65Z" fill="#371a45" opacity="0.3" style="isolation:isolate"/><path d="M40.37,129.45v.16C41,132.88,41.76,137,42.65,141c-.41-1.71-.73-3.42-1.14-5.06-.57-2.61-1.14-5.38-1.63-8A5.3,5.3,0,0,1,40.37,129.45Zm5.06,23a6.2,6.2,0,0,1,.16,1.71c-.65-2.61-1.22-5.38-1.8-8-.32-1.63-.73-3.35-1.06-5.06C43.63,145.19,44.61,149.19,45.43,152.45Z" fill="#371a45" opacity="0.25" style="isolation:isolate"/><path d="M38.82,172.59c-4.08,0-7.58-2.28-8.4-5.87-1.14-4.4-2.61-10.93-3.91-16.8S24,137.52,23.08,133c-.82-4.24,2.53-8.48,7.5-9.62a10.08,10.08,0,0,1,7.67,1.38,7.15,7.15,0,0,1,3.18,4.73c.81,4.32,2,10.77,3.26,16.48s2.77,12.07,3.83,16.39a7.56,7.56,0,0,1-1,5.62,10.25,10.25,0,0,1-6.45,4.41A21.84,21.84,0,0,1,38.82,172.59Zm-6-47.3a6.68,6.68,0,0,0-1.88.25c-3.83.81-6.52,4.07-5.95,7.17.81,4.49,2.12,11,3.34,16.8s2.86,12.32,3.92,16.72c.73,3.1,4.48,4.89,8.31,4.08a8,8,0,0,0,5.14-3.43,4.93,4.93,0,0,0,.74-4c-1.06-4.33-2.61-10.69-3.84-16.48s-2.53-12.15-3.34-16.55A5.18,5.18,0,0,0,37,126.51a7.2,7.2,0,0,0-4.16-1.22Z" fill="#371a45"/><path d="M135,61.27c5.55,4.16,10.6,23.9,9.3,35.64s-22.1,12.64-33.93,12.31S98.52,81.9,98.68,74.73C98.84,63.47,126.73,55.16,135,61.27Z" fill="#fff"/><path d="M110.34,109.22c11.91.41,32.7-.48,33.93-12.31a34.41,34.41,0,0,0,.16-5,5.35,5.35,0,0,1-8.4-2.86c-3.42-19.49-10.68-27-14.19-29.52C111.16,61,98.76,67.23,98.52,74.73,98.43,81.9,98.43,108.9,110.34,109.22Z" fill="#371a45" opacity="0.25" style="isolation:isolate"/><path d="M114.5,110.53c-1.39,0-2.77,0-4.16-.08C98.52,110,97.21,87.86,97.46,74.73c.08-4.49,4-8.89,10.92-12.32,8.81-4.24,21.7-6.28,27.32-2.12,6.37,4.73,11,25.37,9.79,36.78C144.27,107.92,128.77,110.53,114.5,110.53Zm12-50.16a41.5,41.5,0,0,0-17.13,4.16c-6,2.94-9.54,6.69-9.62,10.2-.16,7.75.08,33,10.52,33.27,11.74.41,31.56-.57,32.7-11.17,1.23-11.34-3.75-30.75-8.81-34.58-1.54-1.22-4.4-1.88-7.66-1.88Z" fill="#371a45"/><path d="M133.83,81.09,139.05,79a2.09,2.09,0,0,1,2.77,1.14.51.51,0,0,1,.08.33c1.14,4.24,2.86,13.13-1.47,14.92-5.21,2.2-7.09-3.83-8-12.07A2.14,2.14,0,0,1,133.83,81.09Z" fill="#fff"/><path d="M132.44,83.29c.9,8.24,2.69,14.27,7.91,12.07,2.12-.9,2.78-3.51,2.78-6.52a4,4,0,0,1-2,1.87c-4.65,2-6.61-2.69-7.67-9.62A2.44,2.44,0,0,0,132.44,83.29Z" fill="#371a45" opacity="0.25" style="isolation:isolate"/><path d="M138.4,97a4.88,4.88,0,0,1-2.37-.65c-2.53-1.47-4-5.38-4.81-13a3.35,3.35,0,0,1,2.12-3.42l5.3-2.12a3.29,3.29,0,0,1,2.77.16A3.45,3.45,0,0,1,143.13,80c1.63,6.36,2.52,14.35-2.29,16.39A4.88,4.88,0,0,1,138.4,97ZM140,80a.49.49,0,0,0-.33.08l-5.22,2.12a.88.88,0,0,0-.57,1c.24,2.36,1.06,9.62,3.59,11.17a2.85,2.85,0,0,0,2.69-.08c2.85-1.22,2.28-7.83.81-13.54a.85.85,0,0,0-.49-.57A.79.79,0,0,0,140,80Zm-3.27-16.39-3.91,1.22c-1.31.41-2.53.9-3.83,1.3a.58.58,0,0,1-.74-.4.52.52,0,0,1,.25-.66c1.22-.65,2.44-1.3,3.67-1.87s2.44-1.22,3.67-1.8a1.15,1.15,0,0,1,1.55.66,1.23,1.23,0,0,1-.58,1.55Z" fill="#371a45"/><path d="M73.15,72.36l-1.63-9.54A73.12,73.12,0,0,1,73.15,72.36ZM83.67,88.51c-5.38-1.63,13,17,8,19.33a16.39,16.39,0,0,0-4.9,3.26c-5.14,5.06-5.22,15.33-1.79,19.49,1.39,1.63,2.85,3.43,2.85,3.43-1,1.38-7.66,12.8-2.28,17.29,4.73,4,13.54,3.34,18.1-2.94a19.05,19.05,0,0,0,3.51-12.48c-.16-4.24-1-8.23,1.14-11.41,2.37-3.59,11.75-5,16.48-10.28,7.17-8.16,5.71-33.68-12.24-54" fill="#fff"/><path d="M107.89,106.78a23.14,23.14,0,0,0-16.22,1,16.39,16.39,0,0,0-4.9,3.26c-5.14,5.06-5.22,15.33-1.79,19.49,1.39,1.63,2.85,3.43,2.85,3.43-1,1.38-7.66,12.8-2.28,17.28,4.73,4,13.54,3.35,18.1-2.93a19.07,19.07,0,0,0,3.51-12.48c-.16-4.24-1-8.24,1.14-11.42,2.37-3.58,11.75-5,16.48-10.27,7.17-8.16,5.71-33.68-12.24-54Z" fill="#fff"/><path d="M124.78,114c-4.65,5.38-14,6.68-16.48,10.27-2.12,3.18-1.38,7.18-1.14,11.42a19.07,19.07,0,0,1-3.51,12.48c-4.64,6.2-13.37,6.85-18.1,2.93a5.17,5.17,0,0,1-1.71-2.61c5.22,2.86,14,3.35,18-2.12,3-4.07,1.63-9.46,1.47-13-.17-4.24-1.8-10.27,1.22-13.78,4.73-5.54,11.74-2.61,16.39-8C127.55,104,126.73,81.5,112.3,62l.24-2.12C130.49,80.36,132,105.88,124.78,114Z" fill="#371a45" opacity="0.25" style="isolation:isolate"/><path d="M107.81,107.19c-1-.09-2-.25-2.93-.33s-2-.08-2.86-.08a18,18,0,0,0-2.85.24,15.25,15.25,0,0,0-2.77.49c-.49.08-.9.25-1.39.33a5.82,5.82,0,0,0-1.31.49,22.2,22.2,0,0,0-2.52,1.14A15.08,15.08,0,0,0,88.81,111a10.37,10.37,0,0,0-1.06.9l-.49.49a2.5,2.5,0,0,0-.41.48,12.46,12.46,0,0,0-2.36,4.9,18.08,18.08,0,0,0-.57,5.54,11.91,11.91,0,0,0,1.38,5.22,4.78,4.78,0,0,0,.74,1.06l1,1.14L89,133l.58.73-.66.82c-.16.24-.32.57-.57.89s-.32.66-.49.9l-1,2a22.8,22.8,0,0,0-1.46,4,13.42,13.42,0,0,0-.57,4A4.91,4.91,0,0,0,86,149.68l.16.16.16.16.33.33a6.46,6.46,0,0,0,.82.57,6,6,0,0,1,.81.49l.9.41a10.85,10.85,0,0,0,3.91.65,13.5,13.5,0,0,0,4-.65,10,10,0,0,0,3.51-2,14.33,14.33,0,0,0,4.48-6.69,23,23,0,0,0,.9-4.08A18.69,18.69,0,0,0,106,137v-1.06l-.08-1.06c-.08-1.47-.25-2.93-.25-4.48a10.76,10.76,0,0,1,.17-2.37,8.84,8.84,0,0,1,.65-2.44c.08-.17.16-.41.24-.58a2.26,2.26,0,0,1,.33-.57l.33-.57c.16-.16.24-.4.4-.57a9.66,9.66,0,0,1,2-1.63,25.42,25.42,0,0,1,4.16-2.12,45.83,45.83,0,0,0,7.67-4,13.34,13.34,0,0,0,2.93-2.77,12.66,12.66,0,0,0,1.8-3.67,17.21,17.21,0,0,0,1-4.08,35.44,35.44,0,0,0,.33-4.24A50.68,50.68,0,0,0,127,92.1,59.81,59.81,0,0,0,117,68c-1.55-2.45-3.26-4.81-4.65-7.5a.43.43,0,0,1,.16-.57h0a.37.37,0,0,1,.41,0,27.76,27.76,0,0,1,6.2,6.6,58.08,58.08,0,0,1,4.48,7.91,64.5,64.5,0,0,1,5.71,17.21,56.7,56.7,0,0,1,.74,9.13,28.55,28.55,0,0,1-.41,4.57,28.2,28.2,0,0,1-1.06,4.49,15.89,15.89,0,0,1-2.12,4.24,13.78,13.78,0,0,1-3.51,3.34,42.52,42.52,0,0,1-8.07,4.24,33.67,33.67,0,0,0-3.83,2,6.77,6.77,0,0,0-1.47,1.22c-.08.08-.17.25-.25.33l-.24.41c-.08.16-.16.24-.25.4s-.16.25-.16.41a10.88,10.88,0,0,0-.57,3.92c0,1.38.16,2.85.24,4.4l.09,1.14V137a20.87,20.87,0,0,1-.09,2.37,24.07,24.07,0,0,1-1,4.65,20.7,20.7,0,0,1-2,4.24,8.69,8.69,0,0,1-.74,1l-.73.89c-.25.33-.57.58-.82.9a4.34,4.34,0,0,1-.89.82A15.37,15.37,0,0,1,98,154.24a15.57,15.57,0,0,1-4.73.82,13.92,13.92,0,0,1-4.82-.82l-1.14-.49a8.19,8.19,0,0,1-1.06-.65c-.32-.24-.73-.49-1.06-.73-.16-.17-.32-.25-.49-.41l-.24-.25-.25-.24a7.23,7.23,0,0,1-1.3-2.37,8.85,8.85,0,0,1-.41-2.52,15.78,15.78,0,0,1,.73-4.73,27.31,27.31,0,0,1,1.64-4.33,15.73,15.73,0,0,1,1.06-2c.16-.32.4-.65.57-1a5.74,5.74,0,0,1,.65-1l.08,1.47-1.88-2.29-1-1.06c-.33-.49-.66-.9-1-1.47a15.16,15.16,0,0,1-1.63-6.28,20.87,20.87,0,0,1,.65-6.36,15.17,15.17,0,0,1,7.75-10,22.86,22.86,0,0,1,5.95-2.12,19.8,19.8,0,0,1,12.23,1.31.46.46,0,0,1,.17.57h0c-.25-.25-.41-.16-.66-.16Z" fill="#371a45"/><path d="M107.08,128.55H107a.89.89,0,0,1-.74-1c1.31-9.62-4.32-14.1-6.76-15.57-3.92-2.37-8.81-2.69-11.5-.74a.94.94,0,0,1-1.31-.24,1,1,0,0,1,.25-1.31c3.34-2.36,8.89-2.12,13.53.66,2.78,1.71,9.06,6.68,7.67,17.37A1,1,0,0,1,107.08,128.55ZM87.83,131.9l.49.32.57.33a8.9,8.9,0,0,0,1.14.65,11.72,11.72,0,0,0,2.37,1,3.35,3.35,0,0,0,1.22.24,6.42,6.42,0,0,0,1.31.09,10.51,10.51,0,0,0,2.77-.33,5.17,5.17,0,0,1-2.61,1.71,7,7,0,0,1-3.18.25,10.6,10.6,0,0,1-3.1-.9c-.49-.24-1-.49-1.38-.73s-.41-.33-.66-.49a5.41,5.41,0,0,1-.65-.57,1.24,1.24,0,0,1-.16-1.63,2.13,2.13,0,0,1,1.87.08Z" fill="#371a45"/><path d="M111.16,64c25-10.6,27.81-21.53,35.39-21.69s11.17,7,6.77,16.88C146,75.38,118.25,77.09,118.25,77.09" fill="#fff"/><path d="M153.32,59.23C146,75.38,118.25,77.09,118.25,77.09a2,2,0,0,1,.82-2.77,3.62,3.62,0,0,1,.57-.24c8.24-1.72,22.91-6.2,29-16.89a23.26,23.26,0,0,0,3.1-13.37C155.6,46.35,156.58,52.14,153.32,59.23Z" fill="#371a45" opacity="0.25" style="isolation:isolate"/><path d="M111,63.72a32.73,32.73,0,0,1,5.63-3.51c1.88-1.06,3.83-2,5.71-3.1a61.3,61.3,0,0,0,5.46-3.42c1.72-1.23,3.51-2.53,5.14-3.92l5-4.24a23.29,23.29,0,0,1,2.69-2.12,12.22,12.22,0,0,1,3.18-1.71,6.81,6.81,0,0,1,1.79-.41,4.06,4.06,0,0,1,1-.08h.9A11,11,0,0,1,151,42a8.06,8.06,0,0,1,3,2.28,9.82,9.82,0,0,1,1.8,3.26,10.82,10.82,0,0,1,.49,3.59,16.75,16.75,0,0,1-.33,3.51A21.79,21.79,0,0,1,155,58l-.32.82-.33.73a12.89,12.89,0,0,1-.82,1.55,23,23,0,0,1-4.24,5.54,29.54,29.54,0,0,1-5.46,4.08,49.33,49.33,0,0,1-12.4,5.14c-1.06.33-2.12.57-3.26.82s-2.2.48-3.26.73a22.42,22.42,0,0,1-3.34.41,9.82,9.82,0,0,1-3.43-.41.42.42,0,0,1-.24-.57h0c.08-.08.16-.16.24-.16a14.46,14.46,0,0,1,3.1-1.15c1.06-.24,2.12-.49,3.18-.65s2.12-.33,3.18-.57l3.1-.73a50.38,50.38,0,0,0,11.82-4.9,32,32,0,0,0,5.06-3.75,20.26,20.26,0,0,0,3.83-4.89c.25-.49.49-.9.74-1.39l.32-.73.33-.74a18.4,18.4,0,0,0,.9-3,12.93,12.93,0,0,0,.32-3,11.22,11.22,0,0,0-.4-2.86,7.22,7.22,0,0,0-1.31-2.44,6.2,6.2,0,0,0-2.2-1.63,8.26,8.26,0,0,0-2.77-.66h-.74l-.73.09a8.71,8.71,0,0,0-1.39.32,16.46,16.46,0,0,0-5,3.43c-1.64,1.47-3.27,2.85-5,4.32s-3.51,2.77-5.3,4-3.75,2.44-5.63,3.58a64.57,64.57,0,0,1-5.87,3.19,13.46,13.46,0,0,1-1.47.65c-.49.16-1.06.41-1.55.57s-1.06.32-1.63.49a12.84,12.84,0,0,1-1.71.32.52.52,0,0,1-.33-.08c-.08-.08-.16-.16-.16-.24A.69.69,0,0,1,111,63.72Z" fill="#371a45"/><path d="M54.31,58.17c28,41.51,86.94,4.65,64.43-37.92C91.1-23,30.26,15.11,54.31,58.17Z" fill="#fff"/><path d="M54.31,58.17c28,41.51,86.94,4.65,64.43-37.92C91.1-23,30.26,15.11,54.31,58.17Z" fill="#fff"/><path d="M119.72,60a38.85,38.85,0,0,1-6.2,8.32c-9.13,9.21-22.75,13.86-35.8,10.6A45.1,45.1,0,0,1,73.4,77.5c-6.85-2.69-13.3-7.83-18.68-15.74a42,42,0,0,1-5-14.19C54.4,51,60.35,57.68,71.77,64.37l-.25-1.55,41-2.77c.74.81,1.39,1.63,2.12,2.45C116.46,61.68,118.17,60.86,119.72,60Z" fill="#371a45" opacity="0.25" style="isolation:isolate"/><path d="M54.31,58.17c28,41.51,86.94,4.65,64.43-37.92C91.1-23,30.26,15.11,54.31,58.17Z" fill="#fff"/><path d="M85.88,77.17a37.77,37.77,0,0,1-6.77-.65c-10-2-18.84-8.15-25.45-17.94V58.5c-5.71-10.28-7.09-21-4-30.91A38.67,38.67,0,0,1,66.87,6,38,38,0,0,1,94,1C104.14,3,113,9.49,119.56,19.68v.08c5.38,10.2,6.52,20.72,3.34,30.5a39.64,39.64,0,0,1-37,26.91ZM55.05,57.68c14,20.8,35.15,21.21,49.83,12.4,14.35-8.65,24.54-27.73,13.13-49.42C104.23-.87,82.29-1.28,67.77,7.53,53,16.34,42.82,35.83,55.05,57.68Z" fill="#371a45"/><path d="M54.31,58.17C77.88,94.46,131,71.47,122.82,30.69c-1.71,13.46-6.28,14.27-12.89,21.37-20.3,23.48-55,9-60.75-17.62A37.24,37.24,0,0,0,54.31,58.17Z" fill="#371a45" opacity="0.25" style="isolation:isolate"/><path d="M85.88,77.5A38.65,38.65,0,0,1,79,76.85c-10.2-2-19.09-8.16-25.69-18l-.09-.09c-5.79-10.35-7.17-21.12-4.07-31.15A39.18,39.18,0,0,1,66.71,5.73,38.21,38.21,0,0,1,94,.68c10.36,2,19.25,8.56,25.77,18.76l.08.08c5.39,10.27,6.61,20.87,3.43,30.74A40,40,0,0,1,85.88,77.5Zm-30.51-20c13.87,20.55,34.83,21,49.34,12.23,14.19-8.48,24.39-27.48,13.05-49C104.06-.46,82.37-.87,67.93,7.77,53.34,16.5,43.22,35.83,55.37,57.52Z" fill="#293856"/><path d="M85.88,77.5A38.65,38.65,0,0,1,79,76.85c-10.2-2-19.09-8.16-25.69-18l-.09-.09c-5.79-10.35-7.17-21.12-4.07-31.15A39.18,39.18,0,0,1,66.71,5.73,38.21,38.21,0,0,1,94,.68c10.36,2,19.25,8.56,25.77,18.76l.08.08c5.39,10.27,6.61,20.87,3.43,30.74A40,40,0,0,1,85.88,77.5Zm-30.51-20c13.87,20.55,34.83,21,49.34,12.23,14.19-8.48,24.39-27.48,13.05-49C104.06-.46,82.37-.87,67.93,7.77,53.34,16.5,43.22,35.83,55.37,57.52Z" fill="#371a45"/><path d="M60.27,65.68c37.84,22.34,70-21.78,41.26-47.47C67.69-8.54,29.6,33.14,60.27,65.68Z" fill="#371a45"/><path d="M50.16,39.58c-.17,39.71,56.59,43.06,62.71,6.77C94.68,67.71,60.84,58.83,50.16,39.58Z" fill="#21102b"/><path d="M82.7,76.36a32.48,32.48,0,0,1-7.92-1c-8.4-2.2-15.82-8-21.36-16.64-9.05-14.43-7.51-38.08,9.29-50.07l.17-.08a38.14,38.14,0,0,1,30.25-.82A38.15,38.15,0,0,1,115,28.57a34.67,34.67,0,0,1-.41,26.67,35.61,35.61,0,0,1-16.8,17.61A34.34,34.34,0,0,1,82.7,76.36ZM55.21,57.6c12.15,19.09,30,19.09,41.59,13.3C110.1,64.21,120,47.82,113,29.22c-3.5-8.81-11.09-15.9-20.63-19.57s-20-3.43-28.54.73C48,21.8,46.65,44,55.21,57.6Z" fill="#371a45"/><path d="M81,72.93A41.81,41.81,0,0,1,59.7,66.65l-.17-.08-.16-.16C52,58.58,48,49.61,47.79,40.48A31.41,31.41,0,0,1,56,18.54a30.61,30.61,0,0,1,20.55-10c8.72-.66,17.61,2.36,25.69,8.72l.08.08c6.77,6,10.68,13.46,11.34,21.45a30.8,30.8,0,0,1-6,20.8,32.69,32.69,0,0,1-20,12.8A44.72,44.72,0,0,1,81,72.93ZM61,64.7C80.25,76,97.29,69.51,105.69,58.09c7.59-10.36,9.06-26.42-5-39-16.8-13.29-33.6-9-42.82,1.06C48.36,30.53,45.67,48.3,61,64.7Z" fill="#371a45"/><path d="M128.69,46.43c-2.36,17.45-20.06,16.55-19.57-.33C111,27.67,129.91,28.65,128.69,46.43Z" fill="#fff"/><path d="M117.6,59.23c-5.3-.24-9.22-6.68-8.4-14,3.43,7.66,11.34-5.14,11.91-8.73C134.81,39.74,127.39,59.89,117.6,59.23Z" fill="#371a45" opacity="0.35" style="isolation:isolate"/><path d="M118.09,60.37h-.73c-4.9-.4-9.71-5-9.38-14.27V46c1-10.11,7.09-14.92,12.56-14.43,5,.4,10,5.3,9.29,15h0C128.53,56.22,123,60.37,118.09,60.37Zm-7.67-14.19c-.24,7.67,3.43,11.5,7.18,11.75,4,.32,8.81-3.18,10-11.66.57-8.08-3.26-12.07-7.1-12.4-4.4-.33-9.21,3.75-10,12.31Z" fill="#371a45"/><path d="M129.34,47.41c-2,14.19-15.25,13.7-14.76,0C116.05,32.32,130.49,32.81,129.34,47.41Z" fill="#fff"/><path d="M121.19,58.91h-.49c-3.67-.33-7.34-4-7-11.5v-.08c.81-8.4,5.54-12.4,9.78-12.07,3.83.32,7.59,4.32,7,12.23v.08C129.34,55.48,124.94,58.91,121.19,58.91Zm-5.55-11.42c-.16,6.12,2.45,9,5.14,9.3,2.94.24,6.61-2.61,7.5-9.55.49-6.52-2.28-9.7-5.13-9.94C120,37.05,116.38,40.48,115.64,47.49Z" fill="#371a45"/><path d="M105.69,38.52c-2,7.18-10.11,5-9.46-1.39C97.46,29,107.16,31.26,105.69,38.52Zm-4.24,11.25c-.89,2.69-4.48,1.88-3.75-1.14C98.6,45.94,102.19,46.76,101.45,49.77ZM54.07,42.35C48.77,14.46,77.72,10.3,86.61,16,68.1,17.72,60.1,29.38,54.07,42.35Z" fill="#fff" opacity="0.7" style="isolation:isolate"/><path d="M114,50.67a12.83,12.83,0,0,1,.65-6c2.7,9.55,12.24,5.14,14.36-1.79C131.3,57,117.11,63.88,114,50.67Z" fill="#371a45" opacity="0.25" style="isolation:isolate"/><path d="M109.93,35.75a2.93,2.93,0,0,1-.89-.17c-1.55-.73-1.72-3.18-1.8-3.91a1.19,1.19,0,1,1,2.37-.08,5.9,5.9,0,0,0,.32,1.71c.17-.08.25-.16.41-.25a1.22,1.22,0,0,1,1.55,1.88h0A3.32,3.32,0,0,1,109.93,35.75Z" fill="#371a45"/><path d="M70.3,92.42a4.08,4.08,0,1,1,4.08,4.08A4,4,0,0,1,70.3,92.42Z" fill="#fff"/><path d="M70.3,92.75a4.09,4.09,0,0,0,8.15-.65A6,6,0,0,0,78,90.39a4.1,4.1,0,0,1-5.31,2.36,3.7,3.7,0,0,1-2-1.79A4.54,4.54,0,0,0,70.3,92.75Z" fill="#371a45" opacity="0.35" style="isolation:isolate"/><path d="M74.38,97.56a5.1,5.1,0,1,1,5.3-4.89,5.08,5.08,0,0,1-4.9,4.89Zm0-8.15h-.25a3.14,3.14,0,1,0,.25,0Z" fill="#371a45"/><path d="M79.35,102.21l21.53-.32a4.71,4.71,0,0,0,4.57-4.73l-.16-11.5a4.63,4.63,0,0,0-3.76-4.49,3.66,3.66,0,0,0-.89-.08l-21.53.33a4.7,4.7,0,0,0-4.57,4.73l.16,9v2.36a4.65,4.65,0,0,0,4.65,4.65Z" fill="#fff"/><path d="M79.35,102.21l21.53-.32a4.71,4.71,0,0,0,4.57-4.73l-.16-11.5a4.63,4.63,0,0,0-3.76-4.49l-2,1.39c-.9,9.21-.41,16.06-14.68,15.33a25.79,25.79,0,0,1-10.2-2.61v2.36a4.7,4.7,0,0,0,4.65,4.65c0-.08,0-.08.08-.08Z" fill="#371a45" opacity="0.25" style="isolation:isolate"/><path d="M79.27,103.27a5.69,5.69,0,0,1-5.71-5.54l-.16-11.5a5.76,5.76,0,0,1,5.54-5.79l21.53-.33a5.77,5.77,0,0,1,5.79,5.55l.17,11.5a5.78,5.78,0,0,1-5.55,5.79l-21.61.32Zm21.37-21h0l-21.53.33a3.52,3.52,0,0,0-3.51,3.67l.16,11.41a3.52,3.52,0,0,0,3.67,3.51l21.53-.33a3.57,3.57,0,0,0,3.51-3.66l-.16-11.5a3.62,3.62,0,0,0-3.67-3.43Z" fill="#371a45"/><path d="M78.54,102.13a3.07,3.07,0,0,0,.89.08l21.53-.32a4.65,4.65,0,0,0,4.16-2.78,4.72,4.72,0,0,0,.41-1.87l-.08-5.06V90.47l-.08-4.73a4.7,4.7,0,0,0-4.73-4.57L96,81.25a4.63,4.63,0,0,1,3.83,4.49l.08,6.2.08,5.22a4.76,4.76,0,0,1-4.56,4.73Z" fill="#fff"/><path d="M78.54,102.13a3.07,3.07,0,0,0,.89.08l21.53-.32a4.71,4.71,0,0,0,4.57-4.73l-.08-6.77c-.49,1.22-1.47,2.69-3,2.85A3.11,3.11,0,0,1,100,91.85l.09,5.22a4.75,4.75,0,0,1-4.57,4.73Z" fill="#371a45" opacity="0.25" style="isolation:isolate"/><path d="M79.27,103.27a4.06,4.06,0,0,1-1-.08l.16-2,16.89-.24a3.52,3.52,0,0,0,3.5-3.67h0l-.16-11.58a3.66,3.66,0,0,0-3-3.51l.17-2,4.64-.08a5.78,5.78,0,0,1,5.79,5.63l.17,11.5a5.78,5.78,0,0,1-5.55,5.79l-21.61.32Zm20.31-21a5.51,5.51,0,0,1,1.3,3.51L101,97.16a5.29,5.29,0,0,1-1.3,3.66H101a3.62,3.62,0,0,0,3.51-3.66l-.24-11.5a3.56,3.56,0,0,0-3.59-3.51h-.08Z" fill="#371a45"/><path d="M91.34,91.69c0,.41.65,3.83.65,3.83l2.45-.08c1.63,0,3-1.79,2.93-3.91s-1.46-3.84-3.09-3.75l-2.45.08S91.34,91,91.34,91.69Z" fill="#22a7f0"/><path d="M91.34,91.69c0,.41.65,3.83.65,3.83l2.45-.08c1.63,0,3-1.79,2.93-3.91s-1.46-3.84-3.09-3.75l-2.45.08S91.34,91,91.34,91.69Z" fill="#371a45" opacity="0.35" style="isolation:isolate"/><path d="M91.5,96.18l-.08-.57c-.16-.82-.65-3.51-.65-3.92,0-.73.41-3.42.49-4l.08-.57,3-.08h.08c2,0,3.67,2,3.75,4.49s-1.55,4.56-3.59,4.65Zm.57-4.49a31.93,31.93,0,0,0,.57,3.18h1.8c1.3,0,2.28-1.47,2.28-3.18s-1.14-3.1-2.36-3.1H92.48c-.16,1.06-.41,2.69-.41,3.1Z" fill="#371a45"/><path d="M89,91.69c0-2.12,1.31-3.91,2.94-3.91s3,1.63,3.1,3.75-1.31,3.91-2.94,3.91S89,93.81,89,91.69Z" fill="#22a7f0"/><path d="M94.93,91.61c0,2.12-1.31,3.91-2.94,3.91s-3-1.63-3.1-3.75A2.79,2.79,0,0,1,89,91a3.12,3.12,0,0,0,2.86,2.44c1.47,0,2.61-1.3,2.85-3.1A3.29,3.29,0,0,1,94.93,91.61Z" fill="#371a45" opacity="0.35" style="isolation:isolate"/><path d="M94.93,91.61V92a3.29,3.29,0,0,0-3-2.86c-1.47,0-2.77,1.55-2.94,3.51a4.06,4.06,0,0,1-.08-1c0-2.12,1.31-3.91,2.94-3.91S94.93,89.41,94.93,91.61Z" fill="#fff"/><path d="M92,96.18a3.16,3.16,0,0,1-2.61-1.31,4.8,4.8,0,0,1-1.06-3.1c-.08-2.53,1.55-4.56,3.59-4.65a3.43,3.43,0,0,1,2.69,1.31,5.38,5.38,0,0,1,.16,6.28A3.39,3.39,0,0,1,92,96.18Zm-.08-7.67c-1.3,0-2.28,1.47-2.28,3.18A3.86,3.86,0,0,0,90.44,94a1.86,1.86,0,0,0,2.61.49,1.73,1.73,0,0,0,.57-.57,3.9,3.9,0,0,0-.08-4.56,2.14,2.14,0,0,0-1.63-.82ZM86,102.7a.64.64,0,0,1-.65-.65l-.33-7.59-3.43-2a.81.81,0,0,1-.32-.57L81.06,81.5a.73.73,0,0,1,.66-.74.65.65,0,0,1,.65.66h0l.16,9.94,3.43,2a.71.71,0,0,1,.32.57l.33,8a.92.92,0,0,1-.16.49c0,.16-.17.24-.41.24Z" fill="#371a45"/><path d="M127.14,82.88a5.33,5.33,0,0,1,2.37,3.92,5.43,5.43,0,0,1-2,4.4s-7,5.14-23.41,4.16c0,0-4.16-4.32.65-7.67C104.63,87.69,119.64,90.22,127.14,82.88Z" fill="#fff"/><path d="M129.42,86.8a5.42,5.42,0,0,1-2,4.48s-7,5.14-23.41,4.16c0,0-3.18-3.34-.73-6.36v.08A3.9,3.9,0,0,0,107,92.42c14.84.49,21.2-4.24,21.2-4.24A6.08,6.08,0,0,0,129.42,86.8Z" fill="#371a45" opacity="0.25" style="isolation:isolate"/><path d="M108.22,96.5a39.09,39.09,0,0,1-4.24-.16h-.41l-.24-.33c-.08-.08-2.2-2.36-1.88-5.05a5.72,5.72,0,0,1,2.69-4.08l.33-.25.41.09c.16,0,14.51,2.28,21.53-4.49l.57-.57.65.41a6.07,6.07,0,0,1,2.77,4.81A6.17,6.17,0,0,1,128,92.1C127.79,92.26,121.76,96.5,108.22,96.5Zm-3.67-2.12c15.41.82,22.18-3.91,22.27-4a4.26,4.26,0,0,0,1.54-3.51,3.89,3.89,0,0,0-1.22-2.61c-7.26,6.2-19.73,4.89-22.26,4.57a3.21,3.21,0,0,0-1.47,2.36A5.08,5.08,0,0,0,104.55,94.38Zm38.9-23.81h-.08c-5.87-.65-10.52-6.44-13.37-16.8l-.09-.41a.87.87,0,0,1,.25-1.06,1,1,0,0,1,1.14,0c.25.16.25.33.49,1,2.61,9.38,6.85,14.92,11.91,15.49a.7.7,0,0,1,.57.33.93.93,0,0,1-.17,1.31,1.88,1.88,0,0,1-.65.16ZM56.68,113.38a8.88,8.88,0,0,1,.73.9c.25.33.49.57.74.9.49.65.89,1.22,1.3,1.87a19.23,19.23,0,0,1,1.88,4.16.59.59,0,0,1-.41.74.7.7,0,0,1-.73-.33c-.33-.65-.66-1.22-1-1.87A21,21,0,0,0,58,118a11.94,11.94,0,0,0-1.38-1.55l-.74-.73c-.24-.25-.49-.41-.73-.65a1.23,1.23,0,1,1,1.39-2c.08,0,.08.08.16.08Z" fill="#371a45"/><path d="M2.53,221.8c0-4.52,41.69-8.19,93.13-8.19s93.13,3.67,93.13,8.19-41.7,8.2-93.13,8.2S2.53,226.33,2.53,221.8Z" fill="#102770" opacity="0.3" style="isolation:isolate"/></svg>