<svg xmlns="http://www.w3.org/2000/svg" viewBox="0 0 57.28 61.03"><g style="isolation:isolate"><path d="M28.64,0A28.64,28.64,0,0,1,57.28,28.64h0A28.65,28.65,0,0,1,28.64,57.28h0A28.64,28.64,0,0,1,0,28.64H0A28.64,28.64,0,0,1,28.64,0Z" fill="#552d78" opacity="0.15" style="mix-blend-mode:screen"/><path d="M28.64,4A24.67,24.67,0,0,1,53.31,28.64h0A24.68,24.68,0,0,1,28.64,53.31h0A24.67,24.67,0,0,1,4,28.64H4A24.66,24.66,0,0,1,28.64,4Z" fill="#5b3b78" opacity="0.15" style="mix-blend-mode:screen"/><path d="M17.16,44.06,1.69,51.13a.8.8,0,0,0-.47.73v3.69a.81.81,0,0,0,1,.79L22.5,52Z" fill="#f0436e"/><path d="M40.11,44.06l15.47,7.07a.8.8,0,0,1,.47.73v3.69a.81.81,0,0,1-1,.79L34.77,52Z" fill="#f0436e"/><path d="M17.54,44.63a15.66,15.66,0,0,1-4.07,6A15.62,15.62,0,0,1,6.74,55a14.19,14.19,0,0,1-1.59.73L22.5,52Z" fill="#f06b8c" opacity="0.17" style="mix-blend-mode:multiply"/><path d="M55.58,51.13l-2-.91a15.68,15.68,0,0,1-7.1,1.34,20.73,20.73,0,0,1-9.81-2.44L34.77,52l20.31,4.37a.81.81,0,0,0,1-.79V51.86A.8.8,0,0,0,55.58,51.13Z" fill="#f06b8c" opacity="0.17" style="mix-blend-mode:multiply"/><path d="M28.62,44.06a42.69,42.69,0,0,0,12.64-1.77,40.45,40.45,0,0,0,2.25-13.56,26.83,26.83,0,0,0-.26-3.4,39,39,0,0,0-3.14-10.88A44.07,44.07,0,0,0,28.64,13a44.15,44.15,0,0,0-11.48,1.43A39,39,0,0,0,14,25.33a26.83,26.83,0,0,0-.26,3.4A40.46,40.46,0,0,0,16,42.3,42.92,42.92,0,0,0,28.62,44.06Z" fill="#ffc400"/><path d="M34.15,57.56h-11c-.43,0-.73-.52-.6-1l.65-3.5a.64.64,0,0,1,.59-.53H33.5a.66.66,0,0,1,.6.53l.64,3.5C34.87,57,34.57,57.56,34.15,57.56Z" fill="#dae9f0"/><path d="M16,42.3c2.34,6.5,6.3,11.28,11,12.85a5.15,5.15,0,0,0,3.27,0c4.69-1.56,8.66-6.34,11-12.85a42.69,42.69,0,0,1-12.64,1.77A42.92,42.92,0,0,1,16,42.3Z" fill="#f06b8c"/><path d="M40.11,14.45A42.38,42.38,0,0,0,29.8.47a1.74,1.74,0,0,0-2.32,0,42.55,42.55,0,0,0-10.32,14A44.15,44.15,0,0,1,28.64,13,44.07,44.07,0,0,1,40.11,14.45Z" fill="#f06b8c"/><path d="M28.64,61h0a1.11,1.11,0,0,1-1.11-1.11V48.76h2.21V59.92A1.11,1.11,0,0,1,28.64,61Z" fill="#f0436e"/><path d="M43.25,25.33a39,39,0,0,0-3.14-10.88A40.89,40.89,0,0,0,33,13.22a20.88,20.88,0,0,1,2.93,6.28l.75,5.55a16,16,0,0,1-1.8,8.06,15.7,15.7,0,0,1-4.33,6.72,15.53,15.53,0,0,1-6,4.06c1.31.11,2.66.17,4.05.17a42.69,42.69,0,0,0,12.64-1.77,40.45,40.45,0,0,0,2.25-13.56A26.83,26.83,0,0,0,43.25,25.33Z" fill="#f06b8c" opacity="0.17" style="mix-blend-mode:multiply"/><path d="M33.06,43.86a8.07,8.07,0,0,1-.93,3.75,8.06,8.06,0,0,1-2.22,3.46A11.08,11.08,0,0,1,24.5,54,12.38,12.38,0,0,0,27,55.15a5.15,5.15,0,0,0,3.27,0c4.69-1.56,8.66-6.34,11-12.85A39.15,39.15,0,0,1,33.06,43.86Z" fill="#f06b8c" opacity="0.17" style="mix-blend-mode:multiply"/><path d="M31.28,6.89a7.37,7.37,0,0,1-.84,3.76A7.38,7.38,0,0,1,29.13,13a43.59,43.59,0,0,1,11,1.42A42.38,42.38,0,0,0,29.8.47,1.76,1.76,0,0,0,28.46,0,9.89,9.89,0,0,1,31.28,6.89Z" fill="#f06b8c" opacity="0.17" style="mix-blend-mode:multiply"/><path d="M28.64,35.85a6.14,6.14,0,1,1,6.13-6.14A6.14,6.14,0,0,1,28.64,35.85Z" fill="#3e1661"/><path d="M22.5,29.69a6.14,6.14,0,0,1,6.11-6.12Zm2.14,4.68,8.66-8.64a6.06,6.06,0,0,0-1.57-1.32c-2.8,2.79-5.6,5.6-8.39,8.4A6.11,6.11,0,0,0,24.64,34.37Zm5.52,1.29,4.42-4.42a5.94,5.94,0,0,0,.19-1.53,6.07,6.07,0,0,0-.15-1.35L27.27,35.7a6.19,6.19,0,0,0,1.37.15A6.39,6.39,0,0,0,30.16,35.66Z" fill="#602296"/><path d="M28.64,21.7a8,8,0,1,0,8,8A8,8,0,0,0,28.64,21.7Zm0,14.15a6.14,6.14,0,1,1,6.13-6.14A6.14,6.14,0,0,1,28.64,35.85Z" fill="#fff"/><path d="M31,22.05A11.63,11.63,0,0,1,31.81,26,7.33,7.33,0,0,1,31,29.74a7.19,7.19,0,0,1-2,3.14,10,10,0,0,1-5.68,2.77A8,8,0,1,0,31,22.05Z" fill="#e5e5e5" style="mix-blend-mode:multiply"/></g></svg>