<svg xmlns="http://www.w3.org/2000/svg" width="1440" height="675"><path d="M1051.8 80.625c118.631 0 214.8 96.169 214.8 214.8C1266.476 413.968 1170.343 510 1051.8 510S837.124 413.968 837 295.425c0-118.631 96.169-214.8 214.8-214.8z" fill="#552D78" opacity=".15"/><path d="M1051.8 110.4c102.186 0 185.025 82.839 185.025 185.025A184.95 184.95 0 011051.8 480.45a184.948 184.948 0 01-185.025-185.025c0-102.186 82.839-185.025 185.025-185.025z" fill="#5B3B78" opacity=".15"/><path d="M1019.55 503.325h64.5a254.024 254.024 0 00109.725 142.5h-283.95a254.024 254.024 0 00109.725-142.5z" fill="#FFF"/><path d="M1442.25 397.5v280.95h-248.175l-11.4-15-1.725-2.325a92.426 92.426 0 01-3.45-8.625 88.048 88.048 0 01-4.125-15 83.927 83.927 0 011.2-36.225c9.6-38.175 45.45-69.225 92.925-75.75a131.035 131.035 0 0146.05 1.8 108.826 108.826 0 0177.625-60.525 127.953 127.953 0 0151.075-69.3z" fill="#FFF"/><path d="M965.7 652.5a36.152 36.152 0 01-1.425 10.65l-16.125 15.675h-259.8v-.975C690 660 705 644.4 725.25 638.625a44.418 44.418 0 01-1.875-12.3 51.453 51.453 0 0113.65-34.65 76.727 76.727 0 0153.1-24.45c27.975-1.425 52.05 11.175 62.55 30.525a50.704 50.704 0 0140.275 19.2 63.221 63.221 0 0120.55-4.575 57.759 57.759 0 0131.575 7.125 42.448 42.448 0 0115 15 35.414 35.414 0 014.575 11.475c.574 2.133.925 4.32 1.05 6.525z" fill="#DAE9F0"/><path d="M1227.825 675.45v3h-409.2a94.952 94.952 0 0148.975-24.825 103.934 103.934 0 0124.75-1.65 102.008 102.008 0 0135.925 8.25 83.342 83.342 0 0114.025-15 91.917 91.917 0 0118.15-11.475 102.076 102.076 0 0141.1-10.05c20.325-35.4 63.375-58.95 111.9-57.225h1.95a131.629 131.629 0 0158.8 16.725c34.425 19.95 56.175 54.3 53.625 92.25zM135 678.45H0V379.725C44.55 396.45 74.475 435.675 71.55 480a89.113 89.113 0 01-4.5 22.5 85.65 85.65 0 0157.825 52.5 69.06 69.06 0 013.75 19.5l1.05 17.475 2.775 49.65z" fill="#DAE9F0"/><path d="M461.55 678.45h-262.5l-30-16.65-17.7-9.9-18.975-10.575-69.225-38.85a68.949 68.949 0 019.225-16.425 80.323 80.323 0 0123.475-20.625A94.666 94.666 0 01124.875 555a95.777 95.777 0 0164.2 10.05 78.973 78.973 0 0124.3 20.85 96.377 96.377 0 0177.85 0A124.952 124.952 0 01412.5 585c1.8.975 3.525 2.025 5.25 3.15 33.975 21.075 49.725 56.4 43.8 90.3z" fill="#FFF"/><path d="M682.5 678.45H248.4v-3.075c5.175-37.875 44.1-66.825 89.1-64.575a94.505 94.505 0 0133.075 7.5 84.453 84.453 0 0147.55-30.45A92.135 92.135 0 01438 585c18.975-33.075 59.55-54.9 105-52.5a114.526 114.526 0 0184.15 40.65 83.175 83.175 0 0115 80.4 85.12 85.12 0 0140.35 24.9z" fill="#DAE9F0"/><path d="M240.525 678.45H0V546.9h10.35a190.719 190.719 0 0185.5 24.3 151.577 151.577 0 0133.75 26.25 123.082 123.082 0 0122.5 32.4 127.5 127.5 0 0188.425 48.6zm671.475 0H523.95a84.752 84.752 0 0139.9-17.55 62.605 62.605 0 01-1.35-18c2.1-32.325 28.5-59.025 64.65-69.825a127.958 127.958 0 0142.975-5.1 117.531 117.531 0 0166.9 23.7 81.452 81.452 0 0124.15 29.55A80.777 80.777 0 01819.9 655.05a98.27 98.27 0 0131.5-3.525c5.451.228 10.871.93 16.2 2.1A82.058 82.058 0 01912 678.45z" fill="#FFF"/><path d="M965.7 411.075L849.675 464.1a6.15 6.15 0 00-3.525 5.55v27.6a6.075 6.075 0 007.5 5.925L1005.9 470.4zm172.125 0L1253.85 464.1a6.001 6.001 0 013.525 5.55v27.6a6.001 6.001 0 01-7.5 5.925l-152.25-32.775z" fill="#F0436E"/><path d="M968.625 415.35a117.382 117.382 0 01-30.6 45 117.742 117.742 0 01-50.4 32.475c-3.907 2-7.912 3.802-12 5.4l130.125-27.975zm285.225 48.75l-15-6.75a118.418 118.418 0 01-53.25 10.05 156.068 156.068 0 01-73.5-18.3l-14.4 21.3 152.25 32.775a6 6 0 007.5-5.925v-27.6a6 6 0 00-3.6-5.55z" fill="#F06B8C" opacity=".17"/><path d="M1051.65 411.075a320.688 320.688 0 0094.875-13.575 304.504 304.504 0 0016.8-101.625 199.1 199.1 0 00-1.95-25.5 289.364 289.364 0 00-23.55-81.6 350.698 350.698 0 00-172.5 0 289.215 289.215 0 00-23.475 81.6 187.501 187.501 0 00-2.025 25.5 302.989 302.989 0 0016.875 101.7 319.418 319.418 0 0094.95 13.5z" fill="#FFC400"/><path d="M1093.125 512.325h-82.5a5.7 5.7 0 01-4.5-7.5l4.875-26.25a4.875 4.875 0 014.5-4.05h72.9a5.026 5.026 0 014.5 4.05l4.875 26.25a5.698 5.698 0 01-4.65 7.5z" fill="#DAE9F0"/><path d="M957.075 397.875c17.55 48.825 47.25 84.6 82.5 96.375a38.395 38.395 0 0024.6 0c35.1-11.775 64.875-47.625 82.5-96.45a320.71 320.71 0 01-94.875 13.275 319.41 319.41 0 01-94.725-13.2zm180.75-208.8a316.28 316.28 0 00-77.325-105 13.05 13.05 0 00-17.4 0 317.56 317.56 0 00-77.4 105 350.698 350.698 0 01172.5 0z" fill="#F06B8C"/><path d="M1051.8 538.425a8.325 8.325 0 01-8.325-8.325v-83.775h16.65V530.1a8.325 8.325 0 01-8.325 8.325z" fill="#F0436E"/><path d="M1161.375 270.675a289.364 289.364 0 00-23.55-81.6 299.513 299.513 0 00-53.25-9.3 156.614 156.614 0 0121.975 47.1l5.625 41.7a117.902 117.902 0 01-13.5 60 118.267 118.267 0 01-32.4 50.475 118.414 118.414 0 01-45 30.45c9.825.825 20.025 1.2 30.375 1.2a320.678 320.678 0 0094.875-13.2 304.504 304.504 0 0016.8-101.625 199.176 199.176 0 00-1.95-25.2z" fill="#F06B8C" opacity=".17"/><path d="M1084.95 409.65a60.975 60.975 0 01-6.975 28.125 60 60 0 01-16.65 25.875 82.5 82.5 0 01-40.575 21.75 90.711 90.711 0 0018.75 8.85 38.395 38.395 0 0024.6 0c35.1-11.775 64.875-47.625 82.5-96.45a293.186 293.186 0 01-61.65 11.85zm-13.35-277.275a54.97 54.97 0 01-6.6 28.125 55.185 55.185 0 01-9.75 17.85 326.123 326.123 0 0182.5 10.725 316.28 316.28 0 00-77.325-105 13.124 13.124 0 00-9.975-3.3 74.178 74.178 0 0121.15 51.6z" fill="#F06B8C" opacity=".17"/><path d="M1051.8 349.575c-25.433 0-46.05-20.617-46.05-46.05 0-25.433 20.617-46.05 46.05-46.05 25.433 0 46.05 20.617 46.05 46.05 0 25.433-20.617 46.05-46.05 46.05z" fill="#3E1661"/><path d="M1005.75 303.375c.041-25.303 20.522-45.817 45.825-45.9-15.3 15.25-30.575 30.55-45.825 45.9zm16.125 35.1c21.6-21.7 43.225-43.325 64.875-64.875a46.147 46.147 0 00-11.7-9.825c-21.1 20.95-42.1 41.925-63 62.925a46.424 46.424 0 009.825 11.775zm41.325 9.6L1096.425 315a47.933 47.933 0 001.425-11.4 45.732 45.732 0 00-1.2-10.2c-18.3 18.375-36.75 36.675-55.05 55.05a44.97 44.97 0 0010.2 1.2 44.007 44.007 0 0011.4-1.575z" fill="#602296"/><path d="M1051.8 243.45c-33.137 0-60 26.863-60 60s26.863 60 60 60 60-26.863 60-60-26.863-60-60-60zm0 106.125c-25.433 0-46.05-20.617-46.05-46.05 0-25.433 20.617-46.05 46.05-46.05 25.433 0 46.05 20.617 46.05 46.05 0 25.433-20.617 46.05-46.05 46.05z" fill="#FFF"/><path d="M1069.35 246.075a88.582 88.582 0 016.225 29.475 55.271 55.271 0 01-6.3 28.2 54.824 54.824 0 01-15 23.55 76.493 76.493 0 01-42.675 20.775c18.277 16.363 44.675 19.952 66.657 9.062 21.982-10.89 35.12-34.066 33.176-58.52-1.945-24.455-18.581-45.263-42.008-52.542z" fill="#E5E5E5"/><path d="M112.5 93.225H90a2.324 2.324 0 01-2.356-3.568A2.326 2.326 0 0190 88.65h22.5a2.326 2.326 0 012.356 3.569 2.324 2.324 0 01-2.356 1.006zm9.6 7.725h-16.2a2.324 2.324 0 01-2.356-3.568 2.326 2.326 0 012.356-1.007h16.2a2.326 2.326 0 012.356 3.569 2.324 2.324 0 01-2.356 1.006zm-24.6 0H69.6a2.324 2.324 0 01-2.356-3.568 2.326 2.326 0 012.356-1.007h27.9a2.326 2.326 0 012.356 3.569 2.324 2.324 0 01-2.356 1.006zm605.85-88.575h-63.675a2.325 2.325 0 010-4.65h63.675a2.325 2.325 0 010 4.65zM653.925 4.65h-6.675A2.324 2.324 0 01645 2.325 2.325 2.325 0 01647.25 0h6.675a2.325 2.325 0 010 4.65zm36.075 0h-27.6a2.327 2.327 0 110-4.65H690a2.325 2.325 0 010 4.65zm207.525 185.925H877.5a2.324 2.324 0 01-2.356-3.568A2.326 2.326 0 01877.5 186h19.95a2.326 2.326 0 012.356 3.569 2.324 2.324 0 01-2.356 1.006zm-5.7-7.725H885a2.324 2.324 0 01-2.356-3.568 2.326 2.326 0 012.356-1.007h6.675a2.325 2.325 0 010 4.575zm36.225 0H900a2.324 2.324 0 01-2.356-3.568 2.326 2.326 0 012.356-1.007h27.825a2.326 2.326 0 012.356 3.569 2.324 2.324 0 01-2.356 1.006zM1257 94.8h-39.975a2.325 2.325 0 010-4.65H1257a2.325 2.325 0 010 4.65zm-18.525-7.725H1224.6a2.325 2.325 0 010-4.65h13.875a2.325 2.325 0 010 4.65zm14.025 0h-6.6a2.325 2.325 0 010-4.65h6.6a2.325 2.325 0 010 4.65zm105 209.175h22.5a2.325 2.325 0 010 4.65h-22.5a2.325 2.325 0 010-4.65zm-9.675-7.725h16.2a2.325 2.325 0 010 4.65h-16.2a2.325 2.325 0 010-4.65zm24.675 0h27.75a2.325 2.325 0 010 4.65h-27.75a2.325 2.325 0 010-4.65zM1140 506.175h63.6a2.326 2.326 0 012.356 3.569 2.324 2.324 0 01-2.356 1.006H1140a2.324 2.324 0 01-2.356-3.568 2.326 2.326 0 012.356-1.007zm49.2 7.725h6.6a2.326 2.326 0 012.356 3.569 2.324 2.324 0 01-2.356 1.006h-6.6a2.324 2.324 0 01-2.356-3.568 2.326 2.326 0 012.356-1.007zm-36.3 0h27.825a2.326 2.326 0 012.356 3.569 2.324 2.324 0 01-2.356 1.006H1152.9a2.324 2.324 0 01-2.356-3.568 2.326 2.326 0 012.356-1.007zM750 421.275h20.025a2.325 2.325 0 010 4.65H750a2.325 2.325 0 010-4.65zm5.55 7.725h6.675a2.325 2.325 0 010 4.65h-6.675a2.325 2.325 0 010-4.65zm-36.225 0h27.825a2.325 2.325 0 010 4.65h-27.825a2.325 2.325 0 010-4.65zM304.8 526.05H345a2.325 2.325 0 010 4.65h-40.2a2.325 2.325 0 01-2.325-2.325 2.25 2.25 0 012.325-2.325zm18.45 7.725h14.25a2.325 2.325 0 010 4.65h-14.25a2.325 2.325 0 010-4.65zm-13.725 0h6.525a2.325 2.325 0 010 4.65h-6.525a2.325 2.325 0 010-4.65z" fill="#FFF"/></svg>