<svg xmlns="http://www.w3.org/2000/svg" width="323.5" height="460"><path d="M55.441 436.328c0-13.103 60.018-23.724 134.054-23.724 74.035 0 134.053 10.621 134.053 23.724 0 13.102-60.018 23.723-134.053 23.723-74.036 0-134.054-10.621-134.054-23.723z" fill="#371A45" opacity=".3"/><path d="M288.382 319.787c-14.43 18.791-52.002 12.277-52.002 12.277l-.322-126.98-.067-25.645s21.434.569 37.72 7.29c7.848 3.233 14.492 7.899 16.983 14.614 8.652 23.33 9.544 103-2.312 118.444z" fill="#FFF"/><path d="M297.172 254.32c.504 27.845-2.133 56.79-8.79 65.462-14.428 18.792-52.011 12.28-52.011 12.28l-.39-152.62s.399 0 1.127.048l.301 118.997s37.577 6.514 52.012-12.279c3.913-5.092 6.434-17.159 7.751-31.888z" fill="#371A45" opacity=".35"/><path d="M251.155 335.861c-8.314 0-14.602-1.049-15.235-1.158a2.678 2.678 0 01.916-5.277c.359.063 36.154 6.004 49.417-11.27 10.964-14.279 10.71-92.195 1.921-115.88-6.945-18.718-51.806-20.15-52.259-20.161a2.68 2.68 0 01-2.55-2.749 2.68 2.68 0 012.698-2.604c1.995.053 48.952 1.557 57.143 23.655 4.2 11.316 6.894 36.686 6.705 63.126-.098 13.848-1.211 47.211-9.399 57.873-9.215 11.994-26.651 14.445-39.357 14.445z" fill="#371A45"/><path d="M294.414 266.028l-25.603 1.92a5.027 5.027 0 00-4.578 4.111c-1.494 8.251-3.956 27.489 4.079 33.841 6.669 5.272 17.498 4.655 23.844-.711 7.098-5.999 7.791-24.867 7.676-34.207a5.035 5.035 0 00-5.418-4.954z" fill="#FFF"/><path d="M264.231 272.063c-1.499 8.247-3.956 27.485 4.079 33.835 6.671 5.276 17.497 4.657 23.846-.711 4.363-3.699 6.306-12.251 7.127-20.463-1.154 4.103-2.964 7.436-5.217 9.621-12.908 12.526-22.543-2.242-22.543-2.242s-1.672 3.587-3.005 3.79c-5.572.849-4.42-16.567-3.615-25.574a4.898 4.898 0 00-.672 1.744z" fill="#371A45" opacity=".35"/><path d="M279.592 312.234c-4.707 0-9.366-1.403-12.947-4.233-8.866-7.01-6.972-25.826-5.054-36.418a7.71 7.71 0 017.015-6.305l25.603-1.92a7.722 7.722 0 015.793 2.003 7.708 7.708 0 012.504 5.589c.161 13.089-1.205 30.011-8.627 36.285-3.922 3.32-9.135 4.999-14.287 4.999zm15.205-43.543h-.182l-25.603 1.919a2.35 2.35 0 00-2.14 1.919c-2.858 15.78-1.697 27.467 3.105 31.264 5.512 4.356 14.875 4.056 20.45-.655 4.415-3.733 6.924-15.744 6.728-32.13a2.354 2.354 0 00-2.351-2.325zm-.383-2.663z" fill="#371A45"/><path d="M273.904 276.986c.292 3.217.282 6.273.499 9.311.218 3.038.549 6.002 1.289 8.795.739 2.792 1.904 5.375 3.64 7.313 1.736 1.938 4.013 3.18 6.588 3.786a2.679 2.679 0 11-1.23 5.216 2.765 2.765 0 01-.184-.05 19.119 19.119 0 01-4.874-2.274 16.493 16.493 0 01-3.965-3.682c-2.206-2.858-3.351-6.184-3.98-9.401-.63-3.216-.77-6.448-.767-9.595.004-3.148.206-6.273.137-9.22v-.038a1.422 1.422 0 012.834-.161zm5.388-76.497c-2.354.192-4.753.483-7.117.804-2.364.322-4.731.723-7.076 1.17-2.344.447-4.669.942-6.982 1.51a135.978 135.978 0 00-6.838 1.891l-.046.013a2.683 2.683 0 01-1.553-5.135c.089-.027.18-.049.272-.066 2.436-.467 4.869-.903 7.312-1.216 2.443-.314 4.879-.598 7.322-.795 2.442-.196 4.882-.349 7.323-.429a127.32 127.32 0 017.344-.056 1.154 1.154 0 01.071 2.304z" fill="#371A45"/><path d="M273.705 186.734a108.036 108.036 0 01-37.653 18.355l-.068-25.646s21.434.565 37.721 7.291z" fill="#371A45" opacity=".35"/><path d="M186.047 414.465c-10.95 25.345-57.84 21.174-69.669 10.684-12.124-10.758 9.792-24.177 9.792-24.177-9.778-16.589-10.066-48.252-9.042-68.59.557-11.146 1.516-18.892 1.516-18.892l69.112-37.365c-.047 14.053-2.4 26.069-4.509 35.695-4.483 20.466-4.187 36.21-2.378 49.069 3.368 23.859 11.988 37.817 5.178 53.576z" fill="#FFF"/><path d="M186.047 414.465c-10.95 25.345-57.84 21.174-69.669 10.684-3.82-3.387-4.262-7.043-3.069-10.454 15.985 9.412 56.719 16.534 64.614-7.425 3.865-11.73-3.703-19.836-7.814-35.67-1.738-6.678-7.031-11.862-13.72-13.587-14.189-3.659-31.631-11.298-38.831-24.769a14.158 14.158 0 01-.43-.863c.557-11.147 1.516-18.893 1.516-18.893l61.865-33.446 7.247-3.917c-.047 14.053-2.4 26.069-4.509 35.695-.322 1.5-.63 2.979-.912 4.425a136.82 136.82 0 00-.763 4.285c-.114.703-.228 1.393-.322 2.081a139.725 139.725 0 00-.992 8c-.12 1.232-.221 2.448-.302 3.648a134.843 134.843 0 00-.323 10.538l.02 1.084c.014.731.034 1.453.061 2.169.04.977.087 1.93.14 2.879.046.689.093 1.37.14 2.042.04.447.074.89.115 1.326.033.387.067.762.107 1.143.034.356.066.711.107 1.058.161 1.507.343 2.966.544 4.391 3.37 23.859 11.99 37.817 5.18 53.576z" fill="#371A45" opacity=".35"/><path d="M182.334 316.245c-.276 1.452-.53 2.88-.763 4.285.227-1.406.482-2.834.763-4.285z" fill="#371A45" opacity=".35"/><path d="M147.543 436.035c-14.05 0-27.288-3.86-32.943-8.885-4.149-3.68-4.744-7.585-4.509-10.211.667-7.523 8.577-14.019 12.56-16.837-13.817-27.214-6.966-84.45-6.658-86.94a2.682 2.682 0 014.315-1.902 2.675 2.675 0 01.999 2.555c-.074.609-7.328 61.19 7.175 85.798l1.337 2.266-2.245 1.375c-3.204 1.969-11.636 8.364-12.145 14.154-.18 2.067.712 3.941 2.738 5.732 6.663 5.913 26.495 9.778 43.058 6.112 7.831-1.737 18.069-5.898 22.37-15.85 4.228-9.789 2.009-18.796-1.065-31.263-4.111-16.675-9.226-37.43-1.895-70.888 2.283-10.417 4.401-21.884 4.444-35.135a2.68 2.68 0 012.681-2.67h.01a2.682 2.682 0 012.672 2.687c-.046 13.752-2.223 25.556-4.569 36.263-7.064 32.241-2.114 52.326 1.863 68.463 3.198 12.975 5.725 23.222.781 34.666-4.114 9.521-13.149 16.084-26.129 18.955a68.914 68.914 0 01-14.845 1.555z" fill="#371A45"/><path d="M166.983 381.395c-15.254 0-36.069-1.697-50.175-9.618a2.006 2.006 0 01-.767-2.734 2.01 2.01 0 012.736-.766c23.027 12.931 67.019 8.227 67.46 8.177a2.01 2.01 0 11.445 3.993c-.772.086-8.821.948-19.699.948z" fill="#371A45"/><path d="M261.439 276.93c-.275 10.316-1.568 19.038-3.864 25.806a66.812 66.812 0 01-5.697 12.42c-7 11.867-17.425 20.998-30.095 26.627a106.436 106.436 0 01-41.728 9.07 104.26 104.26 0 01-8.452-.248c-12.855-.896-43.799-8.267-54.045-27.42-6.863-12.833-5.214-49.746 3.177-105.79 3.33-22.22 7.72-47.457 13.056-75.385l100.116 5.401c7.232 18.919 12.988 37.208 17.338 54.352 7.426 29.276 10.73 55.203 10.194 75.167z" fill="#FFF"/><path d="M257.357 303.384c-6.233 17.651-18.986 31.03-35.574 38.399-6.461 2.871-25.342 10.571-50.18 8.822-12.855-.896-43.799-8.267-54.045-27.42-3.183-5.951-4.538-17.078-4.228-32.896.254 9.393 1.634 16.187 4.228 20.164 10.241 15.711 41.19 21.757 54.045 22.494 24.838 1.431 43.719-4.882 50.18-7.238 16.586-6.044 29.341-17.017 35.574-31.497 2.601-6.032 3.989-14.024 4.122-23.59.168 13.444-1.233 24.589-4.122 32.762z" fill="#371A45" opacity=".35"/><path d="M116.099 252.408c-1.628 14.627-2.576 27.306-2.766 37.883-.272-9.853.686-22.566 2.766-37.883zm145.38 18.215c-.067-5.684-.415-11.783-1.051-18.242.791 6.57 1.138 12.672 1.051 18.242z" fill="#371A45" opacity=".35"/><path d="M178.949 353.545c-2.454 0-4.965-.088-7.534-.263l-.232-.026-12.238-1.93a2.675 2.675 0 01-1.685-4.34 2.682 2.682 0 012.522-.95l12.129 1.914a103.172 103.172 0 0048.79-8.608c16.158-7.18 28.283-20.266 34.138-36.847 8.483-24.013 4.529-80.982-23.426-154.124a2.676 2.676 0 012.928-3.627 2.679 2.679 0 012.081 1.718c24.626 64.429 34.059 127.849 23.473 157.817-6.352 17.982-19.499 32.168-37.015 39.955a108.738 108.738 0 01-43.931 9.311z" fill="#371A45"/><path d="M158.343 351.122c-.21 0-.419-.024-.623-.073-9.034-2.15-25.789-7.408-36.5-18.453a36.462 36.462 0 01-6.027-8.151c-9.415-17.607-4.187-77.446 15.964-182.937a2.678 2.678 0 011.743-2.084 2.679 2.679 0 013.522 3.088c-19.645 102.793-25.192 163.155-16.5 179.411a31.208 31.208 0 005.153 6.946c9.766 10.071 25.426 14.958 33.892 16.971a2.675 2.675 0 012.037 2.915 2.68 2.68 0 01-2.656 2.367z" fill="#371A45"/><path d="M182.249 332.688s-10.49 52.324 11.271 77.729c0 0-21.915 13.423-9.793 24.178 11.827 10.494 58.718 14.663 69.669-10.686 10.483-24.259-15.599-44.23-2.802-102.639 2.111-9.631 4.462-21.644 4.509-35.707z" fill="#FFF"/><path d="M250.588 321.413c-12.794 58.409 13.284 78.385 2.802 102.646-10.95 25.343-57.839 21.173-69.668 10.683-3.177-2.818-4.016-5.818-3.52-8.716 15.911 8.388 55.795 9.827 65.782-13.289 3.607-8.346-18.186-24.571-18.331-42.71-.123-15.201 4.137-30.734 8.6-42.755 3.593-9.674-3.265-19.986-13.581-20.531l-.28-.016a124.194 124.194 0 01-19.039-2.549s-11.053-13.958 1.259-21.831c0 0 37.438 5.134 56.827-5.415-.275 10.316-1.568 19.038-3.864 25.806-1.12.354-2.38.722-3.768 1.084-.873 6.521-2.079 12.406-3.219 17.593z" fill="#371A45" opacity=".35"/><path d="M183.125 333.008c.127 6.771-.187 13.407-.405 20.028-.145 6.616-.201 13.227.284 19.783a88.63 88.63 0 001.238 9.753 70.282 70.282 0 002.361 9.462c1.017 3.067 2.17 6.091 3.687 8.899a45.112 45.112 0 005.264 7.882l1.987 2.37-2.623 1.654c-.947.596-2 1.343-2.963 2.076a42.837 42.837 0 00-2.823 2.342c-1.787 1.633-3.449 3.4-4.644 5.295-1.194 1.895-1.911 3.882-1.7 5.603.211 1.721 1.27 3.378 2.961 4.768 1.641 1.359 3.791 2.473 6.024 3.377a50.601 50.601 0 007.039 2.186 72.254 72.254 0 0014.87 1.769 76.075 76.075 0 007.493-.281 61.968 61.968 0 007.359-1.14c4.816-1.073 9.473-2.801 13.447-5.435a27.207 27.207 0 005.314-4.616 24.91 24.91 0 003.676-5.881c1.863-4.389 2.576-9.118 2.196-13.993-.341-4.868-1.5-9.825-2.715-14.835-1.214-5.011-2.518-10.101-3.528-15.28-2.075-10.339-2.991-21.009-2.486-31.581.248-5.277.768-10.538 1.559-15.762.805-5.195 1.951-10.422 2.997-15.402 1.04-5.033 1.61-10.112 2.326-15.148.717-5.036 1.382-10.057 2.899-15.194a.928.928 0 011.786.013c1.449 5.236 1.458 10.596.966 15.85-.493 5.255-1.686 10.424-2.717 15.555-1.09 5.173-2.164 10.083-2.953 15.143a148.136 148.136 0 00-1.502 15.188c-.483 10.162.386 20.316 2.391 30.317.976 5.008 2.237 9.984 3.476 15.044 1.24 5.06 2.464 10.249 2.855 15.745.442 5.469-.394 11.288-2.616 16.454a30.256 30.256 0 01-4.544 7.268 32.443 32.443 0 01-6.398 5.578c-4.699 3.109-9.958 5.021-15.257 6.205a66.902 66.902 0 01-8.026 1.245 80.161 80.161 0 01-8.069.304 77.651 77.651 0 01-16.009-1.915 55.677 55.677 0 01-7.822-2.434c-2.565-1.047-5.113-2.298-7.482-4.248a8.747 8.747 0 01-.851-.77c-.273-.274-.556-.526-.815-.822a14.33 14.33 0 01-1.449-1.922 11.327 11.327 0 01-1.712-4.75c-.172-1.664.01-3.345.533-4.934a17.856 17.856 0 011.971-4.134c1.588-2.496 3.542-4.527 5.57-6.393 1.024-.928 2.08-1.8 3.167-2.628a45.781 45.781 0 013.415-2.387l-.644 4.021a50.487 50.487 0 01-5.938-8.882c-1.683-3.125-2.941-6.42-4.039-9.738-1.098-3.319-1.887-6.717-2.554-10.116-.352-1.698-.6-3.408-.871-5.116-.212-1.711-.452-3.423-.613-5.137a110.988 110.988 0 01-.28-20.573 83.064 83.064 0 011.338-10.171c.69-3.359 1.51-6.679 2.851-9.913a.912.912 0 011.752.331z" fill="#371A45"/><path d="M214.618 385.486c-11.185 0-23.563-1.676-34.861-6.941a2.008 2.008 0 01-.927-2.649 2.012 2.012 0 012.628-.991c28.975 13.51 67.006 1.753 67.387 1.631a2.008 2.008 0 011.215 3.829c-1.015.322-16.517 5.121-35.442 5.121z" fill="#371A45"/><path d="M99.303 282.694c-4.867-4.862-4.867-12.744 0-17.605 4.867-4.862 12.758-4.862 17.626 0 4.867 4.861 4.867 12.743 0 17.605-4.868 4.862-12.759 4.862-17.626 0z" fill="#FFF"/><path d="M95.66 274.213c.178 6.873 5.901 12.301 12.782 12.123 6.881-.177 12.315-5.893 12.137-12.766a12.31 12.31 0 00-1.336-5.289 12.466 12.466 0 01-11.076 7.414 12.467 12.467 0 01-11.447-6.828 12.292 12.292 0 00-1.06 5.346z" fill="#371A45" opacity=".35"/><path d="M108.106 289.017c-8.36.106-15.223-6.577-15.329-14.927-.106-8.35 6.585-15.205 14.944-15.311h.401c8.362-.107 15.228 6.577 15.335 14.93.108 8.352-6.585 15.21-14.947 15.317zm.014-24.897h-.259c-5.398.147-9.658 4.63-9.523 10.022a9.699 9.699 0 003.044 6.844 9.841 9.841 0 006.988 2.681c5.352-.137 9.599-4.545 9.531-9.892-.069-5.347-4.427-9.646-9.781-9.647z" fill="#371A45"/><path d="M114.156 286.022c1.943-12.725 2.594-25.613 1.943-38.468a193.194 193.194 0 01-2.029 20.93c-1.288 8.536-1.694 17.448-.9 26.197.219-2.909.556-5.806.986-8.659z" fill="#371A45" opacity=".35"/><path d="M126.152 310.128l65.085 3.348c7.703.397 14.331-5.575 14.734-13.279l1.771-34.595c.348-6.744-4.196-12.657-10.508-14.289a13.606 13.606 0 00-2.786-.428l-65.069-3.354c-7.711-.398-14.346 5.575-14.734 13.279l-1.414 27.414-.373 7.196c-.398 7.696 5.592 14.311 13.294 14.708z" fill="#FFF"/><path d="M126.152 310.128l65.085 3.348c7.703.397 14.331-5.575 14.734-13.279l1.771-34.595c.348-6.744-4.196-12.657-10.508-14.289-3.823 2.261-6.25 3.709-6.25 3.709-4.599 27.606-13.226 41.048-47.778 39.838-14.914-.526-24.203-3.278-29.981-6.638l-.374 7.196c-.391 7.698 5.599 14.313 13.301 14.71z" fill="#371A45" opacity=".35"/><path d="M191.966 316.17c-.289 0-.579 0-.871-.023l-65.078-3.342c-9.211-.491-16.29-8.33-15.834-17.532l1.781-34.599c.472-9.194 8.354-16.281 17.552-15.816l65.08 3.343c9.211.491 16.29 8.329 15.834 17.531l-1.781 34.6c-.479 8.86-7.796 15.808-16.679 15.838zm-63.318-65.977c-6.038.011-11.013 4.735-11.33 10.757l-1.781 34.6c-.297 6.244 4.505 11.558 10.754 11.902l65.08 3.341c6.25.295 11.57-4.5 11.915-10.741l1.781-34.6c.313-6.25-4.498-11.574-10.754-11.902l-65.074-3.342c-.198-.01-.395-.015-.591-.015z" fill="#371A45"/><path d="M123.553 309.739c.85.22 1.722.351 2.599.389l65.085 3.348a14.063 14.063 0 0013.173-7.573 13.783 13.783 0 001.551-5.706l.805-15.369.263-5.071.728-14.154c.397-7.704-5.591-14.314-13.295-14.716l-14.064-.719c6.42 1.553 11.063 7.514 10.717 14.327l-.957 18.686-.823 15.924c-.397 7.692-7.03 13.671-14.734 13.278z" fill="#FFF"/><path d="M123.553 309.739c.85.22 1.722.351 2.599.389l65.085 3.348c7.731.377 14.313-5.559 14.724-13.279l1.06-20.44c-1.823 3.527-4.992 7.809-9.721 8.042-2.596.127-5.042-1.858-7.15-4.611l-.823 15.923c-.398 7.693-7.03 13.671-14.734 13.279z" fill="#371A45" opacity=".35"/><path d="M191.976 316.168c-.291 0-.584 0-.878-.023l-65.083-3.343a15.63 15.63 0 01-3.125-.465l.805-5.269 51.045 2.626c6.252.299 11.573-4.498 11.916-10.741l1.781-34.599a11.352 11.352 0 00-8.665-11.597l.77-5.275 14.057.719c9.211.491 16.29 8.329 15.834 17.531l-1.781 34.597c-.472 8.858-7.785 15.807-16.666 15.837zm-5.265-5.61l4.669.24c6.253.299 11.575-4.498 11.916-10.741l1.781-34.598c.31-6.25-4.5-11.573-10.756-11.902l-4.187-.214a16.649 16.649 0 013.658 11.294l-1.78 34.598a16.552 16.552 0 01-5.301 11.323z" fill="#371A45"/><path d="M164.539 280.753c-.058 1.287 1.272 11.691 1.272 11.691l7.299.333c5.026.23 9.34-4.783 9.631-11.194.292-6.411-3.542-11.796-8.57-12.026l-7.299-.333s-2.236 9.444-2.333 11.529z" fill="#22A7F0"/><path d="M164.539 280.753c-.058 1.287 1.272 11.691 1.272 11.691l7.299.333c5.026.23 9.34-4.783 9.631-11.194.292-6.411-3.542-11.796-8.57-12.026l-7.299-.333s-2.236 9.444-2.333 11.529z" fill="#371A45" opacity=".35"/><path d="M173.448 294.794c-.143 0-.287-.003-.429-.01l-5.071-.231a4.642 4.642 0 01-4.411-4.077c-1.061-8.613-1.021-9.49-1.006-9.812.056-1.228.689-4.503 1.881-9.729a4.642 4.642 0 014.753-3.614l5.098.233c3.06.14 5.841 1.75 7.826 4.536 1.878 2.635 2.823 6.04 2.66 9.588-.162 3.548-1.414 6.851-3.525 9.306-2.111 2.454-4.872 3.81-7.776 3.81zm-6.899-13.956c0 .182.03 1.448.98 9.149.039.306.293.54.602.553l5.071.231c1.797.089 3.565-.773 4.973-2.412 1.528-1.769 2.436-4.216 2.557-6.871.12-2.656-.561-5.168-1.92-7.077-1.253-1.758-2.934-2.77-4.732-2.852l-5.097-.233a.625.625 0 00-.644.494c-1.591 6.956-1.773 8.658-1.79 9.018z" fill="#371A45"/><path d="M165.801 292.425c-5.026-.229-8.864-5.613-8.571-12.025.292-6.412 4.604-11.425 9.631-11.196 5.026.229 8.864 5.613 8.571 12.025-.292 6.412-4.604 11.424-9.631 11.196z" fill="#22A7F0"/><path d="M166.149 294.461c-.143 0-.286-.003-.43-.01-6.119-.279-10.83-6.615-10.487-14.123.343-7.508 5.619-13.378 11.732-13.11 3.059.14 5.84 1.75 7.826 4.536 1.877 2.636 2.823 6.039 2.66 9.587-.163 3.549-1.414 6.852-3.525 9.307-2.111 2.454-4.872 3.813-7.776 3.813zm-6.895-13.949c-.241 5.294 2.738 9.748 6.652 9.927 1.799.085 3.567-.774 4.974-2.413 1.528-1.769 2.436-4.216 2.557-6.871.121-2.656-.56-5.168-1.919-7.077-1.253-1.758-2.934-2.77-4.733-2.852-3.921-.198-7.289 3.984-7.531 9.281zm-12.855 32.413h-.058a2.01 2.01 0 01-1.953-2.063l.644-22.945-10.806-7.586 1.557-32.438a2.01 2.01 0 014.016.192l-1.449 30.238 10.764 7.559-.697 25.101a2.008 2.008 0 01-2.018 1.942z" fill="#371A45"/><path d="M264.252 265.007s6.024 4.788 6.28 12.174c.306 8.54-5.041 12.003-5.041 12.003s-23.409 11.971-60.963 4.021c0 0-11.054-13.956 1.258-21.831.004-.003 39.646 5.43 58.466-6.367z" fill="#FFF"/><path d="M270.539 277.187c.306 8.524-5.04 11.992-5.04 11.992s-23.404 11.975-60.966 4.021c0 0-3.635-4.601-4.407-9.996.177.267.291.405.291.405 27.452 5.818 47.341.983 56.056-2.038 6.053-2.098 10.1-7.588 9.958-13.719v-.254a2.599 2.599 0 00-.032-.422c1.749 2.093 3.984 5.585 4.14 10.011z" fill="#371A45" opacity=".35"/><path d="M229.976 298.627c-7.656 0-16.366-.767-25.995-2.807l-.947-.199-.601-.758c-.256-.321-6.28-8.042-4.943-16.01.666-3.976 2.974-7.252 6.859-9.737l.831-.532.979.133c.387.053 38.896 5.166 56.668-5.978l1.61-1.009 1.487 1.181c.285.228 6.991 5.655 7.297 14.175.358 9.943-5.993 14.17-6.263 14.345l-.237.137c-.741.379-14.153 7.059-36.745 7.059zm-23.864-7.83c33.956 6.905 55.995-2.961 58.021-3.921.607-.462 3.958-3.302 3.731-9.594-.145-4.073-2.493-7.278-4.011-8.938-18.357 9.938-51.023 6.594-57.383 5.816-2.111 1.55-3.32 3.378-3.689 5.583-.744 4.42 2.106 9.235 3.331 11.054z" fill="#371A45"/><path d="M244.147 184.17s33.796 49.368 20.786 84.11c-8.259 22.054-44.806 20.679-55.891 4.342l-21.65-38.094z" fill="#FFF"/><path d="M264.93 268.28c-8.256 22.057-44.803 20.685-55.888 4.342l-21.649-38.102 8.031-7.122 18.564 20.122c7.52 16.245 43.055 26.973 51.311 4.92a42.786 42.786 0 002.254-8.868c.849 8.487.281 16.955-2.623 24.708z" fill="#371A45" opacity=".35"/><path d="M236.633 287.548c-12.424 0-24.205-5.168-29.812-13.435a2.678 2.678 0 01.719-3.721 2.685 2.685 0 013.725.718c5.23 7.721 17.839 12.261 29.986 10.81 10.454-1.246 18.172-6.56 21.177-14.581 12.365-33.027-20.16-81.174-20.491-81.657a2.676 2.676 0 01.7-3.722 2.683 2.683 0 013.727.699c1.412 2.063 34.429 50.921 21.085 86.555-3.73 9.972-13.043 16.533-25.561 18.024a44.374 44.374 0 01-5.255.31z" fill="#371A45"/><path d="M251.245 201.765c-16.808 16.481-38.717 26.985-62.014 29.943-2.018.248-4.046.447-6.086.597a107.501 107.501 0 01-47.143-7.378 103.403 103.403 0 01-5.195-2.236 107.518 107.518 0 01-10.065-5.294c3.33-22.22 7.719-47.458 13.056-75.386l100.116 5.401c7.225 18.92 12.981 37.209 17.331 54.353z" fill="#371A45" opacity=".35"/><path d="M83.585 159.488a104.053 104.053 0 0037.157 37.823 106.868 106.868 0 0010.067 5.298c1.694.785 3.43 1.523 5.191 2.236a107.332 107.332 0 0047.142 7.377c2.04-.146 4.07-.346 6.09-.598 36.968-4.696 70.458-28.383 85.582-64.855C297.101 93.049 271.08 31.951 216.71 10.3a107.082 107.082 0 00-31.958-7.339 84.324 84.324 0 00-3.768-.206 106.57 106.57 0 00-10.052.09 108.677 108.677 0 00-50.224 15.663 106.686 106.686 0 00-9.018 6.157 105.275 105.275 0 00-33.792 43.713c-12.823 30.902-9.655 64.239 5.687 91.11z" fill="#FFF"/><path d="M175.737 212.747c-3.198 0-6.387-.142-9.538-.426a108.217 108.217 0 01-30.294-7.225 114.79 114.79 0 01-5.204-2.242 107.985 107.985 0 01-10.093-5.308 104.694 104.694 0 01-37.256-37.924c-16.043-28.109-18.129-61.404-5.704-91.349a106.65 106.65 0 0149.263-53.572 108.926 108.926 0 0144.006-12.128c3.332-.188 6.721-.217 10.077-.091 1.348.042 2.577.109 3.781.207a107.333 107.333 0 0132.034 7.359c26.47 10.539 47.091 30.654 58.061 56.629 10.887 25.77 10.95 54.252.19 80.195-14.609 35.238-47.484 60.154-85.794 65.019-2.03.252-4.066.452-6.106.6-2.471.17-4.947.256-7.423.256zM83.82 159.348a104.16 104.16 0 0037.06 37.725 107.054 107.054 0 0010.042 5.285c1.573.729 3.267 1.457 5.18 2.231a107.15 107.15 0 0047.019 7.358 115.64 115.64 0 006.076-.598c38.118-4.843 70.827-29.63 85.364-64.689 10.708-25.81 10.641-54.144-.188-79.777-10.918-25.842-31.432-45.848-57.766-56.335a106.749 106.749 0 00-31.884-7.322 79.601 79.601 0 00-3.756-.205 107.788 107.788 0 00-10.029.09 108.394 108.394 0 00-50.1 15.622A106.147 106.147 0 0078.147 68.48c-12.362 29.79-10.294 62.911 5.673 90.875z" fill="#371A45"/><path d="M274.812 146.767c-15.118 36.475-48.615 60.164-85.581 64.854-2.022.255-4.051.455-6.087.6a107.625 107.625 0 01-47.145-7.373 123.118 123.118 0 01-5.19-2.234 108.517 108.517 0 01-10.067-5.308 104.074 104.074 0 01-47.843-64.561 104.03 104.03 0 0035.93 35.734 106.136 106.136 0 0010.067 5.308 116.21 116.21 0 005.19 2.234 107.28 107.28 0 0047.14 7.376 116.38 116.38 0 006.092-.603c36.968-4.69 70.458-28.377 85.583-64.854 8.829-21.276 10.071-43.71 4.982-64.381 16.409 27.219 20.088 61.501 6.929 93.208z" fill="#371A45" opacity=".35"/><path d="M175.735 214.559c-3.253 0-6.494-.144-9.697-.434a109.956 109.956 0 01-30.807-7.345 115.238 115.238 0 01-5.295-2.281 110.121 110.121 0 01-10.259-5.398 106.513 106.513 0 01-37.897-38.584c-16.328-28.598-18.442-62.471-5.797-92.936a107.76 107.76 0 0134.445-44.57 109.22 109.22 0 019.195-6.272 106.332 106.332 0 016.46-3.64A110.745 110.745 0 01170.814.774c3.382-.192 6.836-.222 10.249-.094 1.366.042 2.632.111 3.865.211a109.105 109.105 0 0132.556 7.481c26.924 10.721 47.899 31.178 59.061 57.603 11.077 26.216 11.145 55.195.195 81.588-14.86 35.835-48.287 61.171-87.239 66.12-2.062.257-4.13.46-6.203.609-2.52.178-5.041.267-7.563.267zM85.39 158.46a102.344 102.344 0 0036.416 37.069 105.83 105.83 0 009.873 5.195c1.549.717 3.22 1.435 5.101 2.197a105.322 105.322 0 0046.214 7.238 116.9 116.9 0 005.974-.589c37.472-4.759 69.629-29.126 83.919-63.589 10.521-25.36 10.456-53.198-.184-78.385-10.715-25.4-30.882-45.061-56.768-55.372a104.926 104.926 0 00-31.334-7.198 74.389 74.389 0 00-3.686-.202 105.403 105.403 0 00-9.871.09 106.593 106.593 0 00-49.257 15.36 104.3 104.3 0 00-41.975 48.895c-12.144 29.273-10.114 61.815 5.573 89.29z" fill="#371A45"/><path d="M175.735 215.155c-3.272 0-6.531-.145-9.752-.435a110.628 110.628 0 01-30.974-7.387 128.65 128.65 0 01-5.327-2.294 110.707 110.707 0 01-10.314-5.428 107.1 107.1 0 01-38.111-38.796c-16.425-28.76-18.549-62.827-5.836-93.464a109.062 109.062 0 0150.375-54.786A111.348 111.348 0 01170.78.172c3.432-.193 6.871-.224 10.306-.093 1.37.042 2.647.112 3.884.212a109.716 109.716 0 0132.736 7.521c27.075 10.776 48.166 31.364 59.393 57.929 11.136 26.368 11.204 55.509.187 82.054-14.942 36.028-48.554 61.51-87.72 66.485-2.057.257-4.153.463-6.234.614-2.528.174-5.067.261-7.597.261zm-89.82-56.992a101.763 101.763 0 0036.2 36.85 105.559 105.559 0 009.823 5.164c1.541.713 3.199 1.428 5.075 2.186a104.702 104.702 0 0045.952 7.188c1.979-.143 3.982-.339 5.942-.584 37.256-4.733 69.23-28.951 83.437-63.223 10.466-25.211 10.394-52.884-.184-77.921-10.663-25.244-30.707-44.789-56.436-55.035a104.39 104.39 0 00-31.162-7.159 71.367 71.367 0 00-3.661-.199c-3.284-.126-6.58-.095-9.823.087a105.972 105.972 0 00-48.977 15.275A103.691 103.691 0 0080.374 69.4c-12.077 29.098-10.054 61.451 5.541 88.763z" fill="#371A45"/><path d="M99.863 180.954c62.976 41.657 147.309 9.328 150.675-64.852 2.29-50.467-46.07-91.357-95.38-90.13-35.888.888-70.62 17.229-84.779 72.495 0 0-2.438 25.397 4.784 42.126 7.222 16.729 17.119 31.78 17.119 31.78z" fill="#371A45"/><path d="M250.535 116.103c-3.361 74.178-87.7 106.498-150.672 64.854l-1.536-1.742c68.767 10.67 136.506-31.187 141.322-106.133 7.478 12.785 11.589 27.442 10.886 43.021z" fill="#220F2D"/><path d="M159.65 212.764c-2.55 0-5.109-.083-7.676-.249l-.414-.059a110.28 110.28 0 01-16.551-5.123 128.65 128.65 0 01-5.327-2.294 110.707 110.707 0 01-10.314-5.428 107.1 107.1 0 01-38.111-38.796c-16.425-28.76-18.549-62.827-5.836-93.464a108.358 108.358 0 0134.643-44.819l.219-.161.248-.119c12.678-6.027 27.455-9.29 43.92-9.699 29.628-.744 60.172 11.93 81.696 33.875 19.379 19.754 29.414 44.697 28.257 70.229-1.264 27.793-12.356 51.806-32.077 69.442-19.178 17.147-45.319 26.665-72.677 26.665zm-7.119-5.579c28.603 1.801 56.37-7.328 76.217-25.076 18.624-16.655 29.1-39.372 30.298-65.695 1.091-24.031-8.402-47.557-26.73-66.243-20.502-20.91-49.563-32.972-77.732-32.268-15.6.386-29.561 3.436-41.499 9.062A103.023 103.023 0 0080.374 69.4c-12.077 29.098-10.054 61.451 5.541 88.763a101.763 101.763 0 0036.2 36.85 105.559 105.559 0 009.823 5.164c1.541.713 3.199 1.428 5.075 2.186a104.698 104.698 0 0015.518 4.822z" fill="#371A45"/><path d="M159.924 202.038c-21.141 0-42.657-6.361-61.541-18.852l-.296-.196-8.051-9.147c-.409-.622-10.108-15.441-17.341-32.19-7.407-17.163-5.093-42.377-4.992-43.441l.071-.409c12.373-48.311 41.749-73.378 87.31-74.507 26.433-.663 53.695 10.643 72.899 30.223 17.301 17.638 26.258 39.906 25.225 62.705-1.5 33.044-18.971 60.43-47.934 75.136-14.072 7.149-29.608 10.678-45.35 10.678zm-58.291-23.124c31.289 20.557 70.046 23.502 101.214 7.672 27.194-13.808 43.598-39.542 45.008-70.608.966-21.298-7.451-42.15-23.698-58.706-18.178-18.544-43.944-29.243-68.929-28.622-42.808 1.06-70.461 24.7-82.197 70.266-.201 2.382-1.932 25.482 4.595 40.614 6.655 15.414 15.741 29.594 16.798 31.215z" fill="#371A45"/><path d="M297.649 110.53c1.593 20.617-9.428 38.899-24.621 40.833-15.193 1.933-28.798-13.217-30.39-33.835a8.631 8.631 0 01-.024-.397c-1.427-20.454 9.56-38.518 24.637-40.435 11.737-1.494 22.525 7.207 27.562 20.748a48.352 48.352 0 012.836 13.086z" fill="#FFF"/><path d="M297.649 110.53c1.593 20.617-9.428 38.899-24.621 40.833-15.193 1.933-28.798-13.217-30.39-33.835a8.631 8.631 0 01-.024-.397c1.834 1.904 4.594 3.658 8.061 2.506 6.074-2.017 16.12-16.682 16.12-16.682s12.138-2.471 28.026-5.512a48.347 48.347 0 012.828 13.087z" fill="#371A45" opacity=".35"/><path d="M270.379 154.206c-5.636 0-11.094-2.041-15.941-5.991-8.212-6.681-13.484-17.792-14.463-30.482-1.699-21.987 10.394-41.587 26.957-43.694 6.681-.848 13.23 1.157 18.936 5.802 8.213 6.681 13.485 17.792 14.465 30.483 1.697 21.986-10.396 41.587-26.959 43.692-.993.127-1.993.19-2.995.19zm-.5-74.999c-.761 0-1.521.048-2.276.145-13.772 1.751-23.772 18.784-22.289 37.967.855 11.071 5.528 21.07 12.504 26.745 4.542 3.699 9.689 5.307 14.874 4.64 13.771-1.752 23.77-18.785 22.289-37.969-.855-11.069-5.53-21.07-12.505-26.743-3.878-3.154-8.193-4.785-12.597-4.785z" fill="#371A45"/><path d="M278.713 146.19c-12.44-.236-22.27-13.752-21.957-30.189.313-16.437 10.651-29.57 23.09-29.333 12.44.236 22.27 13.752 21.957 30.189-.313 16.437-10.651 29.569-23.09 29.333z" fill="#FFF"/><path d="M279.057 146.491a17.778 17.778 0 01-6.924-1.43c-11.926-5.004-18.449-21.91-14.541-37.685 2.181-8.793 7.198-15.727 13.771-19.022 4.884-2.448 10.088-2.643 15.046-.563 11.926 5.005 18.449 21.909 14.541 37.684-2.179 8.795-7.198 15.727-13.771 19.023a18.059 18.059 0 01-8.122 1.993zm.448-59.567a17.509 17.509 0 00-7.881 1.93c-6.425 3.217-11.338 10.022-13.478 18.657-3.843 15.518 2.532 32.133 14.212 37.034 4.804 2.015 9.845 1.825 14.58-.547 6.424-3.217 11.337-10.022 13.477-18.658 3.844-15.519-2.531-32.132-14.212-37.034a17.216 17.216 0 00-6.706-1.382z" fill="#371A45"/><path d="M259.022 130.706c-1.813-5.338-2.141-11.194-1.225-16.793 5.172 11.825 16.788 15.884 26.896 8.968 6.538-4.466 10.938-12.495 12.351-21.158.331.743.631 1.529.906 2.338 4.607 13.596-.372 30.586-11.127 37.944-10.755 7.358-23.195 2.29-27.801-11.299z" fill="#371A45" opacity=".35"/><path d="M279.603 148.902c-4.156 0-8.212-1.52-11.837-4.462-6.639-5.38-11.074-15.024-11.863-25.797-1.332-18.175 8.016-34.368 20.837-36.099 4.958-.67 9.855.817 14.154 4.304 6.639 5.38 11.074 15.024 11.863 25.796 1.331 18.175-8.018 34.366-20.839 36.098a17.24 17.24 0 01-2.315.16zm-.581-61.156a11.48 11.48 0 00-1.562.104c-10.066 1.361-17.338 14.999-16.209 30.399.683 9.329 4.381 17.562 9.893 22.035 3.122 2.532 6.602 3.622 10.056 3.154 10.066-1.359 17.338-14.997 16.209-30.399-.683-9.328-4.381-17.563-9.893-22.035-2.652-2.147-5.561-3.258-8.494-3.258z" fill="#371A45"/><path d="M180.851 43.79s-48.176 4.227-74.172 32.247l-.082.088A44.988 44.988 0 0095.67 97.071c-2.254 10.313-2.278 17.738-2.042 24.271.725 19.873 4.831 29.03 4.831 29.03-11.848-10.029-18.751-21.681-19.518-38.229a74.55 74.55 0 01-.042-5.045c0-.399.026-.795.05-1.192-.01 0 0-.013 0-.024.43-4.439 1.129-8.847 2.093-13.202 3.414-15.44 11.486-35.706 30.586-45.754 35.71-18.779 70.814-5.28 69.223-3.136zM204.961 95.574c-2.755-8.587 1.078-17.49 8.562-19.885 7.484-2.396 15.784 2.623 18.54 11.21 2.755 8.586-1.079 17.489-8.563 19.885-7.484 2.396-15.784-2.623-18.539-11.21zM221.928 121.87c-1.463-3.426-.229-7.234 2.755-8.505 2.984-1.271 6.589.475 8.052 3.901 1.463 3.426.23 7.234-2.754 8.505-2.984 1.272-6.59-.475-8.053-3.901z" fill="#FFF" opacity=".7"/><path d="M43.316 293.332v.122a.252.252 0 010-.122zm142.71-5.657a1.263 1.263 0 01-.212.571 3.35 3.35 0 01.212-.571z" opacity=".35"/><path d="M185.73 279.164V266.06" fill="#848484"/><path d="M152.039 256.378s4.806 23.193 3.639 26.824c-1.168 3.632-11.238 23.152-14.459 16.991-3.22-6.16-13.365-17.277-9.75-28.512 3.615-11.234 4.478-16.091 7.496-15.303 3.018.788 13.074 0 13.074 0z" fill="#CE2E2E"/><path d="M157.27 282.894a2.209 2.209 0 01-2.162-1.77l-5.234-25.456a2.21 2.21 0 014.329-.888l5.235 25.457a2.207 2.207 0 01-2.168 2.65zm-27.645-3.269a2.21 2.21 0 01-2.104-2.882l7.505-23.359a2.213 2.213 0 013.773-.851c.535.599.702 1.441.436 2.199l-7.505 23.359a2.21 2.21 0 01-2.105 1.534z" fill="#6B184E"/><path d="M165.822 286.455H30.165l-.644-2.091-.427-1.384-1.747-5.629-9.064-29.237-3.664-11.822-11.411-36.787a7.854 7.854 0 011.182-6.99 7.873 7.873 0 016.334-3.196h118.74a8.337 8.337 0 017.966 5.859l21.934 70.506 1.798 5.777z" fill="#33AEF1"/><path d="M159.357 265.684a16.936 16.936 0 01-12.603-11.42l-13.526-42.566a16.262 16.262 0 00-15.506-11.337H35.719a20.026 20.026 0 01-17.902-11.034h117.784z" fill="#FFF" opacity=".35"/><path d="M167.701 286.455v13.108H37.841a7.677 7.677 0 01-7.386-5.549 7.516 7.516 0 01-.303-2.118v-5.441z" fill="#F92323"/><path d="M168.896 286.455l64.476-31.491a3.567 3.567 0 015.108 3.112 3.56 3.56 0 01-1.832 3.217l-68.948 38.27m66.384-44.951h-77.965" fill="#848484"/><path d="M167.701 292.705v5.554H37.841a7.676 7.676 0 01-7.378-5.554z" fill="#371A45" opacity=".35"/><path d="M166.912 299.561v-13.103" fill="#848484"/><path d="M232.07 255.601l-21.882 16.849-45.139 13.115-8.927-30.955 4.82.06 52.637.69z" fill="#33AEF1"/><path d="M162.734 280.034l34.894-18.165h-37.656z" fill="#FFF" opacity=".6"/><path d="M169.462 289.136H28.187L.461 199.701a10.066 10.066 0 011.517-8.963 10.093 10.093 0 018.123-4.099h120.046a10.044 10.044 0 019.638 7.089zM32.141 283.78h130.041l-27.518-88.462a4.71 4.71 0 00-4.509-3.323H10.101a4.73 4.73 0 00-3.808 1.92 4.716 4.716 0 00-.71 4.202z" fill="#371A45"/><path d="M167.7 302.239H37.831c-5.717-.007-10.349-4.635-10.355-10.345v-8.114H167.7a2.68 2.68 0 012.681 2.678 2.68 2.68 0 01-2.681 2.678H32.836v2.758a4.998 4.998 0 004.992 4.986h129.869a2.68 2.68 0 012.681 2.678 2.68 2.68 0 01-2.681 2.678z" fill="#371A45"/><path d="M168.896 286.455l64.476-31.491a3.567 3.567 0 015.108 3.112 3.56 3.56 0 01-1.832 3.217l-68.948 38.27" fill="#F92323"/><path d="M238.479 258.078v.104a3.556 3.556 0 01-1.831 3.109l-68.945 38.28.598-6.583 67.192-34.627a3.525 3.525 0 001.904-2.734 3.515 3.515 0 011.082 2.451z" fill="#371A45" opacity=".35"/><path d="M167.701 302.239a2.677 2.677 0 01-1.304-5.018l68.95-38.27a.882.882 0 00.454-.804.884.884 0 00-1.269-.774l-64.459 31.494a2.68 2.68 0 01-3.887-2.585 2.678 2.678 0 011.532-2.226l64.481-31.495a6.248 6.248 0 018.269 2.739 6.234 6.234 0 01-2.516 8.331l-68.951 38.264a2.654 2.654 0 01-1.3.344z" fill="#371A45"/><path d="M234.084 257.29h-77.965a2.68 2.68 0 01-2.681-2.678 2.68 2.68 0 012.681-2.678h77.965a2.68 2.68 0 012.681 2.678 2.68 2.68 0 01-2.681 2.678zm-67.172 44.949a2.679 2.679 0 01-2.679-2.678v-13.106a2.677 2.677 0 011.321-2.374 2.684 2.684 0 012.719 0 2.679 2.679 0 011.321 2.374v13.103a2.68 2.68 0 01-2.682 2.681z" fill="#371A45"/><path d="M100.998 300.608s-13.286 15.483-34.543 14.476c-36.575-1.747-28.453-29.467-20.799-34.581 20.034-13.391 41.038 1.028 43.38 6.97 4.359 11.035 11.962 13.135 11.962 13.135z" fill="#FFF"/><path d="M100.997 300.608s-13.283 15.478-34.543 14.476c-21.982-1.046-27.821-11.474-27.31-20.748 3.591 5.269 10.998 9.433 24.476 10.075 13.477.641 23.731-5.335 29.448-9.812 3.881 4.884 7.929 6.009 7.929 6.009z" fill="#371A45" opacity=".35"/><path d="M68.473 317.802c-.707 0-1.42-.016-2.145-.05-20.505-.974-27.175-9.682-29.16-16.815-2.486-8.935 1.692-19.113 6.998-22.66 11.513-7.696 22.666-6.584 29.996-4.294 8.879 2.773 15.803 8.537 17.368 12.51 3.749 9.507 9.947 11.46 10.209 11.537l3.948 1.182-2.653 3.135c-.559.651-13.515 15.455-34.561 15.455zm-5.108-40.145c-4.911 0-10.512 1.259-16.217 5.073-3.188 2.126-6.731 9.901-4.814 16.772 2.167 7.788 10.552 12.249 24.248 12.899 14.554.705 25.249-7 29.867-11.088-2.996-1.95-7.106-5.75-9.908-12.867-.805-2.043-6.165-6.916-13.978-9.359a30.927 30.927 0 00-9.198-1.43z" fill="#371A45"/><path d="M213.579 255.36c-6.81 20.852-49.038 19.916-52.504.16-.046-.288-.095-.569-.135-.85z" fill="#371A45" opacity=".35"/><path d="M243.396 233.659s-18.658-17.813-39.762-17.813c-21.717 0-46.362 11.655-42.559 33.316 3.681 20.975 51.065 20.737 53.34-4.276" fill="#FFF"/><path d="M214.417 244.882c-2.279 25.017-49.662 25.252-53.342 4.279-.631-3.589-.483-6.902.322-9.927 4.725 16.854 39.028 18.604 49.851 3.128.983-1.406 3.177-.756 3.177.965z" fill="#371A45" opacity=".35"/><path d="M186.467 266.993c-12.357 0-25.912-5.285-28.033-17.371-1.368-7.792.579-15.085 5.627-21.089 7.85-9.329 23.384-15.368 39.573-15.368 21.927 0 40.82 17.798 41.614 18.554a2.676 2.676 0 01.075 3.775 2.682 2.682 0 01-3.778.098c-.253-.239-18.196-17.071-37.909-17.071-14.673 0-28.595 5.282-35.468 13.456-4.054 4.825-5.552 10.454-4.452 16.727 1.593 9.066 13.433 13.371 24.315 12.901 11.083-.46 22.716-5.88 23.724-16.956a2.679 2.679 0 014.23-1.983 2.673 2.673 0 011.109 2.466c-1.301 14.303-15.423 21.266-28.841 21.822-.597.021-1.191.039-1.786.039zm44.633 146.19a44.823 44.823 0 00-9.21-2.647 45.4 45.4 0 00-9.33-.768 50.596 50.596 0 00-9.132 1.023c-1.512.224-2.972.69-4.468 1.015-.752.148-1.472.428-2.211.635-.739.208-1.482.423-2.238.608l-.25.062a2.678 2.678 0 01-3.169-1.726 2.672 2.672 0 011.43-3.31 59.915 59.915 0 012.388-1.01c.805-.298 1.599-.676 2.449-.867 1.678-.452 3.351-.943 5.089-1.126 3.434-.6 6.962-.492 10.387-.118 3.414.4 6.76 1.249 9.95 2.526 3.156 1.273 6.148 2.885 8.741 5.072a.385.385 0 01-.395.644zm-69.176-9.498a59.761 59.761 0 00-8.866-2.412 50.638 50.638 0 00-8.89-.923c-.735.009-1.467-.037-2.195.017-.728.055-1.449.113-2.172.143-.723.031-1.429.187-2.14.271-.356.051-.712.083-1.068.125-.356.042-.699.145-1.048.216-2.838.423-5.475 1.434-8.23 2.271l-.277.085a2.675 2.675 0 01-3.262-1.547 2.67 2.67 0 011.254-3.383 53.715 53.715 0 012.277-1.105l1.161-.516c.391-.161.805-.261 1.206-.393.805-.252 1.62-.493 2.436-.714.829-.16 1.663-.307 2.498-.431a32.326 32.326 0 019.983.151 41.13 41.13 0 019.399 2.683c2.969 1.279 5.797 2.812 8.32 4.806a.386.386 0 01-.368.666z" fill="#371A45"/><path d="M222.5 284.405a2.012 2.012 0 11-.105-4.021c6.028-.321 11.948-4.855 15.459-11.841 5.895-11.75 3.864-27.075-5.438-40.991a2.01 2.01 0 113.344-2.231c10.114 15.134 12.238 31.964 5.688 45.022-4.15 8.274-11.368 13.657-18.84 14.053z" fill="#371A45"/><path d="M86.495 254.197l-.147.093c-6 3.727-14.06 2.121-18.152-3.633a13.498 13.498 0 013.8-19.277l.095-.06c1.853-1.145 4.056.816 3.221 2.826a11.496 11.496 0 00.882 10.564 11.528 11.528 0 009.156 5.36c2.185.11 2.99 2.949 1.145 4.127z" fill="#FFF"/></svg>